<svg xmlns="http://www.w3.org/2000/svg" width="15" height="11.426" viewBox="0 0 15 11.426"><defs><style>.a{fill:#e50046;}</style></defs><g transform="translate(-538 -2670.787)"><g transform="translate(538 2669)"><path class="a" d="M13.682,1.787H1.318A1.321,1.321,0,0,0,0,3.105v8.789a1.32,1.32,0,0,0,1.318,1.318H13.682A1.32,1.32,0,0,0,15,11.895V3.105A1.32,1.32,0,0,0,13.682,1.787Zm-.182.879L7.528,8.638,1.5,2.666ZM.879,11.713V3.283l4.233,4.2Zm.621.621L5.736,8.1,7.22,9.57a.439.439,0,0,0,.62,0L9.287,8.121,13.5,12.334Zm12.621-.621L9.909,7.5l4.213-4.213Z"/></g></g></svg>