<svg xmlns="http://www.w3.org/2000/svg" xmlns:xlink="http://www.w3.org/1999/xlink" width="13" height="13" viewBox="0 0 13 13"><defs><style>.a,.c{fill:#e50046;}.a{stroke:#707070;}.b{clip-path:url(#a);}</style><clipPath id="a"><rect class="a" width="13" height="13" transform="translate(-123.066 2644.934)"/></clipPath></defs><g class="b" transform="translate(123.066 -2644.934)"><g transform="translate(-123 2645)"><path class="c" d="M11.9,8.489A7.343,7.343,0,0,1,9.59,8.122a1.054,1.054,0,0,0-1.025.216L7.11,9.436A8.037,8.037,0,0,1,3.5,5.823L4.562,4.407A1.045,1.045,0,0,0,4.82,3.348a7.354,7.354,0,0,1-.369-2.31A1.039,1.039,0,0,0,3.413,0H1.038A1.039,1.039,0,0,0,0,1.038a11.909,11.909,0,0,0,11.9,11.9A1.039,1.039,0,0,0,12.934,11.9V9.527A1.039,1.039,0,0,0,11.9,8.489Z"/></g></g></svg>