<svg xmlns="http://www.w3.org/2000/svg" viewBox="0 0 254.01413 133.04733" alt="Výluka" title="Výluka"><path d="m 98.917415,28.897937 c 1.052,-0.136 0.862,-1.852 -0.172,-1.634 -0.885,0.186 -0.769,1.698 0.172,1.634 m 0.7001,-14.1852 c -0.948,0.097 -0.908,1.566 0.024,1.631 1.050005,0.072 1.039005,-1.68 -0.024,-1.631 m 0.2659,4.2878 c -0.992,0.132 -0.751,1.754 0.240005,1.624 0.995,-0.132 0.746,-1.749 -0.240005,-1.624 -0.199,0.026 0.424005,-0.054 0,0 m -1.4473,-6.1903 c 1.166,0.111 0.923,-1.87 -0.152,-1.661 -0.795,0.155 -0.772,1.569 0.152,1.661 0.022,0.002 -0.246,-0.025 0,0 m -19.8136,47.908299 0,0 0,0 z m -0.351,-0.828 c -1.273,-0.047 -0.917,2.032 0.246,1.621 0.813,-0.288 0.621,-1.586 -0.246,-1.621 -0.44,-0.017 0.439,0.017 0,0 m 16.0039,-20.9001 c -0.112,1.352 2.196,0.813 1.46,-0.461 -0.41,-0.71 -1.395,-0.325 -1.46,0.461 -0.018,0.214 0.043,-0.526 0,0 m 3.6957,-6.953499 c 1.013,-0.087 1.115,-1.763 0.021,-1.741 -1.017,0.02 -1.153,1.833 -0.021,1.741 0.451,-0.039 -0.023,0.002 0,0 m -8.5551,17.584499 c -0.572,-1.429 -2.216,-0.291 -1.37,0.667 0.611,0.692 1.691,0.126 1.37,-0.667 -0.056,-0.141 0.021,0.051 0,0 m 2.223,-10.6316 c -0.754,0.083 -0.848,1.218 -0.384,1.646 1.209,1.115 1.859,-1.8 0.384,-1.646 -0.203,0.022 0.272,-0.028 0,0 m 4.6132,-3.0443 c 0.636,0.492 1.458,-0.403 1.086,-1.156 -0.617,-1.248 -2.272,0.247 -1.086,1.156 0.026,0.02 -0.094,-0.072 0,0 m 3.7215,-10.799199 c 1.173005,-0.576 0.156005,-2.433 -0.781,-1.495 -0.547,0.549 -0.149,1.952 0.781,1.495 0.479005,-0.235 -0.089,0.044 0,0 m -6.3659,-11.9547 c 0,-1.072 -1.579,-1.1 -1.645,-0.045 -0.071,1.125 1.646,1.223 1.645,0.045 0,-0.254 0,0.249 0,0 m 2.0904,-2.0537 c 1.143,0 1.103,-1.8869999 -0.051,-1.7209999 -0.936,0.134 -0.959,1.7209999 0.051,1.7209999 m 0.8334,39.378499 c 0.356,-0.565 -0.217,-1.509 -0.952,-1.32 -1.474,0.38 0.087,2.672 0.952,1.32 0.012,-0.019 -0.063,0.098 0,0 m -5.3291,-29.732299 c 1.215,0.589 1.583,-1.676 0.315,-1.728 -0.911,-0.037 -1.08,1.356 -0.315,1.728 0.102,0.049 -0.279,-0.136 0,0 m -10.5643,36.776199 c -1.034,0.147 -0.87,1.828 0.167,1.774 1.116,-0.059 0.929,-1.924 -0.167,-1.774 -0.441,0.063 0.443,-0.061 0,0 m 6.0444,-5.7968 c -1.05,-0.331 -1.539,1.618 -0.425,1.802 1.064,0.175 1.441,-1.485 0.425,-1.802 -0.36,-0.113 0.349,0.109 0,0 m 4.4904,-6.164 c -1.464,-0.323 -1.169,2.406 0.142,1.747 0.695,-0.35 0.697,-1.561 -0.142,-1.747 -0.222,-0.049 0.411,0.091 0,0 m 3.0189,0.3972 c 0,0 0,0 0,0 m 1.169,-0.266 c -0.094,-1.231 -2.027,-1.095 -1.636,0.216 0.303,1.015 1.654,0.913 1.636,-0.216 m 1.6857,8.2385 c 0.8,-0.251 0.619,-1.522 -0.034,-1.802 -1.449,-0.62 -1.355,2.237 0.034,1.802 0.225,-0.07 -0.079,0.025 0,0 m -6.3646,-20.4495 c 0.877,0 1.052,-1.236999 0.484,-1.715999 -1.176,-0.99 -1.926,1.715999 -0.484,1.715999 m -6.529,20.9024 c -1.219,-0.295 -1.503,1.597 -0.3,1.683 1.028,0.074 1.367,-1.425 0.3,-1.683 -0.275,-0.067 0.479,0.116 0,0 m 14.1086,2.1282 c 0.341,-0.8 -0.586,-1.79 -1.225,-1.224 -1.04,0.922 0.665,2.537 1.225,1.224 0.179,-0.421 -0.098,0.231 0,0 m 1.0458,3.1537 c 0.253,-0.809 -0.603,-1.901 -1.308,-1.233 -1.118,1.061 0.896,2.545 1.308,1.233 0.135,-0.43 -0.077,0.244 0,0 m -5.0395,-17.3103 c 0.11,-1.337 -1.934,-1.359 -1.725,-0.034 0.147,0.932 1.636,1.125 1.725,0.034 0.023,-0.287 -0.033,0.41 0,0 m -1.3602,-26.006399 c -0.036,-0.998 -1.164,-1.231 -1.563,-0.29 -0.572,1.346 1.522,1.824 1.563,0.29 m -2.3445,6.4783 c -1.035,0.743 0.114,2.472 1.014,1.553 0.682,-0.697 -0.231,-2.115 -1.014,-1.553 m -0.4296,5.1513 c 0.472,0.866 1.526,0.128 1.5,-0.626 -0.053,-1.507 -2.349,-0.938 -1.5,0.626 0.159,0.292 -0.117,-0.215 0,0 m 1.0423,7.522699 c -1.063,0.592 -0.306,2.492 0.782,1.819 0.859,-0.531 0.04,-2.219 -0.782,-1.819 m -10.6754,-20.645599 c -1.028,0.8 -1.846,2.053 -2.806,2.955 -0.593,0.558 -1.138,1.174 -1.695,1.767 -1.962,2.088 -3.734,4.276 -5.517,6.515 -3.642,4.575 -6.765,9.511999 -9.383,14.736999 -0.453,0.904 -3.56,6.262 -2.092,6.887 0.745,0.317 1.151,-1.12 1.308,-1.577 0.495,-1.438 1.193,-2.801 1.863,-4.162 2.294,-4.663 4.86,-9.250999 8.041,-13.375999 2.081,-2.7 4.196,-5.366 6.568,-7.815 1.073,-1.109 2.153,-2.201 3.202,-3.333 0.443,-0.478 1.243,-0.991 1.539,-1.562 0.349,-0.674 -0.28,-1.62 -1.028,-1.036 -0.16,0.124 0.298,-0.233 0,0 m 80.290905,39.157999 c 1.016,2.427 -0.054,6.015 -1.241,8.209 -0.508,-0.443 -1.1,-0.769 -1.79,-0.769 0.247,-1.478 -0.012,-3.037 0.374,-4.487 0.183,-0.689 0.509,-1.33 0.934,-1.901 0.169,-0.228 1.418,-1.78 1.723,-1.052 0.124,0.297 -0.043,-0.103 0,0 m -2.146,9.69 c -0.165,0.322 -0.66,0.401 -0.849,0.669 -0.143,-0.156 -0.102,-1.225 0.166,-1.337 0.393,-0.164 0.432,0.59 0.683,0.668 -0.005,0.01 -0.003,-10e-4 0,0 m 0.08,-24.421 c 0.372,-4.68 1.134,-9.301999 1.578,-13.968999 0.216,-2.276 0.671,-4.499 0.88,-6.775 0.183,-1.995 0.265,-4.168 0.958,-6.051 0.416,-1.132 1.961,-4.3689999 3.575,-3.1229999 1.435,1.1069999 0.849,4.2609999 0.73,5.7789999 -0.191,2.428 -0.491,4.933 -1.081,7.298 -0.436,1.744 -1.084,3.45 -1.633,5.163 -1.488,4.64 -3.055,9.264999 -5.164,13.664999 0.052,-0.662 0.104,-1.324 0.157,-1.987 m 43.664,23.205 c -0.41,-1.129 -0.131,-2.646 0.35,-3.709 0.175,-0.387 1.311,-2.512 1.991,-1.904 0.188,0.168 0.019,1.315 -0.002,1.553 -0.058,0.673 -0.189,1.336 -0.366,1.988 -0.098,0.36 -1.354,3.785 -1.973,2.072 -0.061,-0.169 0.076,0.208 0,0 m 51.619,-15.555 c -0.234,-1.827 -4.256,1.417 -4.784,1.744 -2.029,1.255 -3.93,2.621 -5.835,4.061 -1.527,1.153 -3.047,2.315 -4.568,3.476 -1.703,1.302 -3.183,2.794 -4.731,4.273 -3.215,3.074 -6.945,6.938 -11.392,8.114 -4.322,1.143 -9.552,0.222 -12.959,-2.728 -1.673,-1.448 -2.564,-3.533 -3.073,-5.642 -0.275,-1.143 -0.311,-2.178 -0.316,-3.346 -0.004,-1.017 -0.241,-2.018 -1.477,-1.947 -0.82,0.048 -1.657,0.646 -2.442,0.906 -1.045,0.344 -2.059,0.773 -3.032,1.288 -2.152,1.137 -4.208,2.53 -6.259,3.837 -4.04,2.573 -8.188,5.182 -12.476,7.321 -3.785,1.889 -8.215,3.885 -12.557,2.799 -0.912,-0.228 -1.725,-0.786 -2.506,-1.294 -1.086,-0.706 -2.39,-1.302 -3.15,-2.368 -0.521,-0.731 -0.899,-1.39 -1.296,-2.205 -0.265,-0.543 -0.729,-1.158 -0.646,-1.784 0.042,-0.307 0.341,-0.723 0.471,-0.987 1.199,-2.448 1.734,-5.06 1.535,-7.792 -0.076,-1.05 -0.634,-2.227 -1.809,-2.348 -1.267,-0.13 -2.107,1.004 -2.757,1.905 -0.146,-1.983 0.066,-3.959 0.196,-5.937 0.055,-0.835 0.098,-1.673 0.167,-2.507 0.092,-1.1 0.56,-1.883 1.046,-2.855 1.758,-3.516 3.091,-7.185 4.339,-10.905999 1.276,-3.802 2.854,-7.641 3.513,-11.61 0.307,-1.851 0.589,-3.75 0.725,-5.621 0.122,-1.689 0.321,-3.89 -0.49,-5.4499999 -0.769,-1.477 -2.542,-2.191 -3.942,-1.157 -1.419,1.048 -2.215,2.3329999 -2.765,3.9959999 -0.571,1.725 -0.697,3.553 -0.932,5.349 -0.254,1.945 -0.464,3.88 -0.757,5.823 -0.299,1.988 -0.391,4.004 -0.677,5.997 -0.288,2.009 -0.567,4.028999 -0.725,6.052999 -0.158,2.02 -0.414,4.028 -0.528,6.051 -0.101,1.804 -0.134,3.095 -1.17,4.619 -2.162,3.183 -4.273,6.487 -6.962,9.26 -2.285,2.357 -4.746,4.921 -7.602,6.593 -2.663,1.559 -6.648,2.571 -9.294,0.396 -1.307,-1.073 -2.011,-2.594 -2.5,-4.176 -0.264,-0.851 -0.466,-1.721 -0.605,-2.601 -0.104,-0.659 0.037,-2.213 -0.791,-2.454 -0.717,-0.209 -0.902,0.423 -0.993,0.968 -0.144,0.865 -0.274,1.683 -0.503,2.533 -0.247,0.92 -1.529,3.623 -2.226,1.48 -0.292,-0.9 -0.226,-1.992 -0.164,-2.919 0.044,-0.668 0.489,-2.011 -0.2,-2.479 -1.093,-0.744 -1.871,1.791 -2.226,2.378 -1.897,3.141 -4.452,6.101 -7.185,8.547 -1.45,1.298 -2.978,2.46 -4.608,3.521 -0.98,0.638 -1.78,1.104 -2.943,1.265 -1.655,0.23 -3.272,-0.35 -4.421,-1.581 -1.296,-1.386 -1.612,-2.974 -2.472,-4.583 -0.349005,-0.652 -1.399005,-1.087 -1.550005,-0.005 -0.1,0.717 0.748,2.127 1.027,2.811 0.589005,1.44 1.680005,2.911 2.963005,3.811 1.339,0.939 2.943,1.26 4.541,1.053 1.918,-0.248 3.31,-1.21 4.859,-2.316 2.97,-2.121 5.494,-4.596 7.863,-7.359 0.996,-1.163 2.006,-2.392 2.784,-3.712 0.083,1.444 0.358,3.636 2.117,3.924 1.606,0.264 2.616,-1.543 3.038,-2.81 0,1.156 0.745,2.547 1.291,3.545 0.813,1.483 1.899,2.542 3.454,3.225 3.02,1.327 6.523,0.526 9.258,-1.096 3.148,-1.866 5.843,-4.51 8.334,-7.164 2.56,-2.727 4.443,-5.897 6.597,-8.919 -0.038,2.266 -0.391,4.511 -0.376,6.783 0.014,2.213 0.204,4.388 0.025,6.599 -0.183,2.267 -0.129,4.483 -0.202,6.749 -0.079,2.43 -0.318,4.856 -0.336,7.288 -0.031,4.105 -0.305,8.204 -0.335,12.307 -0.004,0.566 0.168,1.792 1.059,1.382 0.827,-0.38 0.441,-2.536 0.455,-3.226 0.031,-1.491 0.064,-2.982 0.088,-4.473 0.046,-2.85 0.061,-5.744 0.227,-8.589 0.084,-1.44 0.185,-2.871 0.223,-4.313 0.015,-0.595 -0.09,-1.42 0.266,-1.814 0.227,-0.252 1.036,-0.623 1.376,-0.833 0.525,1.012 0.986,2.131 1.672,3.049 1.034,1.382 2.618,2.198 4.055,3.093 3.063,1.906 6.358,1.867 9.776,1.015 3.224,-0.803 6.194,-2.356 9.049,-4.022 3.123,-1.822 6.237,-3.635 9.293,-5.566 2.796,-1.767 5.56,-3.576 8.559,-4.981 -0.913,1.635 -1.678,4.504 -0.31,6.112 0.677,0.797 1.783,0.819 2.631,0.284 0.851,-0.538 1.113,-1.482 1.478,-2.364 2.433,8.111 12.874,10.689 19.964,7.258 3.175,-1.536 5.741,-3.888 8.303,-6.265 2.928,-2.716 5.834,-5.321 9.029,-7.723 1.886,-1.418 3.764,-2.937 5.75,-4.21 1.016,-0.65 2.106,-1.144 3.154,-1.734 0.652,-0.368 2.424,-1.146 2.305,-2.07 M 45.742815,9.1363371 c 0.299,0.234 0.032,1.0789999 -0.008,1.4199999 -0.161,-0.479 -0.348,-0.9779999 0.008,-1.4199999 m -5.865,100.0030029 c 0.307,-7.411 2.617,-15.404004 7.224,-21.281004 3.938,-5.024 8.695,-9.275 13.507,-13.435 0.203,6.107 0.083,12.227 0.382,18.326 0.248,5.054 0.415,10.211004 0.14,15.268004 -0.336,6.191 0.052,12.609 -1.963,18.564 -0.784,2.317 -3.908,4.951 -6.43,4.961 -1.348,0.005 -2.859,-0.5 -4.121,-0.92 -1.395,-0.465 -2.69,-1.057 -3.688,-2.17 -2.233,-2.486 -3.674,-6.172 -4.384,-9.394 -0.716,-3.251 -0.803,-6.604 -0.667,-9.919 0.045,-1.09 -0.148,3.606 0,0 m 35.719,-46.901004 c -2.215,1.346 -4.359,2.915 -6.531,4.341 -2.39,1.569 -4.696,3.268 -7.033,4.914 -0.231,-4.034 -0.619,-8.047 -0.698,-12.09 -0.025,-1.304 -0.023,-2.611 0.12,-3.908 0.079,-0.713 0.42,-2.908 -1.096,-2.488 -1.009,0.279 -0.467,1.945 -0.502,2.668 -0.056,1.154 -0.462,2.585 -0.846,3.676 -0.251,0.715 -1.02,2.579 -1.711,1.185 -0.432,-0.873 -0.242,-2.128 -0.235,-3.062 0.009,-1.19 0.261,-2.716 -0.409,-3.784 -0.645,-1.03 -1.744,-1.037 -2.801,-0.729 -2.304,0.67 -4.565,2.69 -6.306,4.278 -1.894,1.726 -3.763,3.54 -5.47,5.453 -3.632,4.071 -6.502,8.693 -9.534,13.208 0.589,-4.257 1.797,-8.355 2.568,-12.573 0.859,-4.698 2.176,-9.316 3.192,-13.979 0.829,-3.805 1.947,-7.531 2.835,-11.323 0.905,-3.863 1.943,-7.678999 2.975,-11.514999 0.971,-3.609 1.387,-7.317 2.32,-10.936 0.066,-0.258 0.108,-0.677 0.237,-0.917 0.211,-0.391 -0.051,-0.255 0.419,-0.406 0.328,-0.106 0.917,0.038 1.263,0.04 0.599,0.004 1.195,-0.036 1.789,-0.113 2.308,-0.298 4.699,-0.819 6.928,-1.483 1.834,-0.546 3.748,-0.88 5.553,-1.517 1.57,-0.554 3.137,-1.131 4.714,-1.6829999 3.083,-1.078 6.231,-1.846 9.34,-2.822 3.879,-1.22 7.824,-2.343 11.78,-3.286 1.941,-0.463 3.893,-0.865 5.86,-1.201 1.124,-0.191 2.248,-0.409 3.376,-0.572 0.701,-0.101 2.475005,0.176 2.682005,-0.79200002 0.36,-1.676 -4.703005,-0.291 -5.417005,-0.171 -2.451,0.41000002 -4.895,0.87200002 -7.315,1.44100002 -4.5,1.059 -8.904,2.518 -13.381,3.664 -2.213,0.567 -4.358,1.295 -6.54,1.948 -0.928,0.278 -1.807,0.697 -2.73,0.99 -0.842,0.267 -1.732,0.423 -2.541,0.782 -1.89,0.8399999 -4.036,1.3379999 -6.063,1.8589999 -2.196,0.564 -4.649,1.167 -6.907,1.347 -0.474,0.038 -1.991,0.344 -2.367,-0.111 -0.249,-0.302 0.192,-2.304 0.242,-2.7599999 0.093,-0.858 0.157,-1.839 -0.717,-2.338 -1.051,-0.6 -1.98,0.078 -2.416,1.045 -0.417,0.923 -0.264,1.9609999 -0.04,2.9189999 0.204,0.872 1.041,1.519 1.026,2.344 -0.014,0.828 -0.375,1.774 -0.54,2.593 -0.216,1.074 -0.443,2.145 -0.658,3.219 -0.91,4.542 -1.928,8.972 -3.3,13.405 -1.304,4.209999 -1.832,8.652999 -3.151,12.861999 -0.697,2.225 -1.019,4.544 -1.559,6.814 -0.376,1.58 -0.748,3.161 -1.145,4.737 -1.096,4.358 -1.999,8.755 -2.973,13.142 -0.497,2.24 -0.678,4.509 -1.118,6.755 -0.581,-2.88 -0.36,-5.889 -0.553,-8.811 -0.205,-3.09 -0.255,-6.153 -0.286,-9.252 -0.061,-6.157 0.234,-12.36 0.639,-18.501 0.384,-5.835 0.538,-11.690999 0.762,-17.533999 0.118,-3.074 0.144,-6.147 0.315,-9.219 0.074,-1.331 0.18,-2.667 0.209,-4 0.008,-0.377 -0.009,-0.758 0.052,-1.132 0.05,-0.308 0.296,-0.757 0.235,-1.069 -0.149,-0.758 -0.988,-0.725 -1.553,-0.476 -0.85,0.375 -1.76,1.516 -2.374,2.189 -0.936,1.0249999 -1.833,2.0949999 -2.745,3.1409999 -1.638,1.88 -3.218,3.816 -4.828,5.72 -3.468,4.1 -6.796,8.392 -9.947,12.744 -1.7239997,2.382999 -3.0739997,5.016999 -4.7719997,7.417999 -1.545,2.183 -3.434,4.203 -4.788,6.511 -0.37400002,0.637 -1.94400002,2.548 -0.59300002,3.116 1.06800002,0.448 1.56600002,-1.497 1.98100002,-2.143 1.232,-1.915 2.748,-3.654 4.06,-5.516 2.006,-2.843 3.6619997,-5.923 5.6759997,-8.758999 1.585,-2.231 3.229,-4.482 4.926,-6.626 2.228,-2.817 4.568,-5.536 6.893,-8.272 2.017,-2.374 3.829,-5.155 6.209,-7.1879999 -0.206,4.1749999 -0.492,8.3329999 -0.433,12.5089999 0.033,2.322 -0.367,4.643 -0.448,6.961 -0.075,2.179 0.016,4.360999 -0.074,6.539999 -0.169,4.068 -0.599,8.095 -0.735,12.166 -0.112,3.341 -0.279,6.666 -0.278,10.01 10e-4,3.83 -0.039,7.662 0.232,11.485 0.235,3.321 0.172,6.69 0.973,9.934 0.216,0.873 0.833,1.749 1.823,1.093 0.794,-0.525 1.352,-1.992 1.885,-2.786 1.254,-1.868 2.501,-3.74 3.747,-5.613 2.148,-3.23 4.379,-6.461 7.133,-9.208 1.834,-1.829 3.585,-3.921 5.69,-5.438 0.931,-0.67 4.554,-4.038 5.592,-2.681 0.61,0.797 0.2,2.726 0.154,3.658 -0.054,1.072 -0.07,2.038 0.404,3.035 0.927,1.951 3.215,1.592 3.952,-0.247 0.021,2.884 0.275,5.739 0.447,8.614 0.074,1.254 0.466,2.548 -0.529,3.435 -1.255,1.119 -2.551,2.192 -3.802,3.316 -4.218,3.792 -8.419,7.873 -11.597,12.598 -3.215,4.78 -4.906,10.824 -5.692,16.484004 -0.802,5.779 -0.68,12.033 1.467,17.526 0.964,2.466 2.344,5.361 4.357,7.152 0.996,0.887 2.204,1.414 3.457,1.827 1.426,0.469 3.014,1.028 4.529,1.027 2.58,0 4.888,-1.832 6.581,-3.581 1.497,-1.547 1.843,-3.607 2.325,-5.614 0.728,-3.031 0.738,-5.918 0.841,-9.014 0.097,-2.937 0.422,-5.875 0.446,-8.812 0.042,-4.955 0.01,-9.862004 -0.274,-14.803004 -0.184,-3.213 -0.135,-6.432 -0.224,-9.644 -0.049,-1.766 0.016,-3.533 -0.044,-5.299 -0.033,-0.982 -0.494,-2.401 0.197,-3.19 0.417,-0.476 1.191,-0.859 1.705,-1.229 0.634,-0.458 1.268,-0.914 1.912,-1.358 1.634,-1.125 3.287,-2.224 4.939,-3.323 1.404,-0.935 2.835,-1.82 4.214,-2.793 0.418,-0.295 1.205,-0.588 1.488,-1.043 0.429,-0.689 -0.327,-1.541 -1.047,-1.106 -0.09,0.055 0.344,-0.208 0,0"></path></svg>