<svg xmlns="http://www.w3.org/2000/svg" width="62" height="62" viewBox="0 0 62 62"><defs><style>.a{fill:#311e61;}.b{fill:#fff;}</style></defs><g transform="translate(0 -0.021)"><g transform="translate(0 0.021)"><g transform="translate(0 0)"><circle class="a" cx="31" cy="31" r="31"/><g transform="translate(9.642 20.744)"><path class="b" d="M35.587,60.528h-.02l-.1.061h0c-.206.13-.4.271-.615.4-.138.1-.279.19-.4.283-.3.2-.6.4-.891.619l-.158.113-.085-.445c-.032-.457-.065-.931-.073-1.4a5.328,5.328,0,0,1,0-.668h0c0-.134.045-.381-.093-.5a.251.251,0,0,0-.251-.045c-.235.065-.2.332-.186.478v.1a2.485,2.485,0,0,1-.142.607.757.757,0,0,1-.081.178.947.947,0,0,1-.024-.344v-.247a1.028,1.028,0,0,0-.093-.6.5.5,0,0,0-.627-.178,3.239,3.239,0,0,0-1.1.745,12.684,12.684,0,0,0-.963.959,15.834,15.834,0,0,0-1.352,1.834c.045-.239.1-.474.154-.708.069-.3.138-.6.194-.911.089-.494.211-.988.328-1.47.077-.316.158-.64.227-.963s.178-.737.271-1.093c.077-.287.154-.583.223-.878.146-.623.316-1.251.478-1.858l.04-.146c.089-.332.154-.672.215-1s.113-.611.19-.911v-.057a.315.315,0,0,1,0-.073h.178a3.106,3.106,0,0,0,.332,0,8.521,8.521,0,0,0,1.214-.263c.13-.04.263-.073.4-.105a5.352,5.352,0,0,0,.579-.162l.376-.134.445-.162c.32-.109.648-.2.968-.3.219-.061.441-.125.656-.194.737-.231,1.4-.4,2.048-.571.34-.081.68-.15,1.012-.206l.19-.032.4-.069h.1c.158,0,.4,0,.474-.227a.219.219,0,0,0-.057-.206c-.138-.134-.466-.1-.947,0h-.081c-.5.085-.9.166-1.283.255-.445.105-.891.231-1.32.356-.332.1-.676.194-1.016.283-.263.065-.526.15-.781.227l-.364.113-.259.093L33.7,51.2l-.154.04a2.176,2.176,0,0,0-.3.1,5.589,5.589,0,0,1-.915.283l-.125.032a7.077,7.077,0,0,1-1.182.231H30.96a1.437,1.437,0,0,1-.231,0,2.2,2.2,0,0,1,.04-.291c0-.045,0-.081,0-.1a.494.494,0,0,0-.186-.526.372.372,0,0,0-.312-.04.51.51,0,0,0-.283.275.887.887,0,0,0,0,.587.733.733,0,0,0,.105.227.336.336,0,0,1,.069.154,1.182,1.182,0,0,1-.053.271.7.7,0,0,1-.04.158l-.049.255c-.024.1-.045.206-.065.308a23.3,23.3,0,0,1-.526,2.356,11.309,11.309,0,0,0-.275,1.121c-.081.372-.162.757-.275,1.121-.077.251-.13.51-.182.761-.028.146-.057.291-.093.437l-.028.113c-.053.239-.109.474-.17.708-.142.563-.267,1.133-.4,1.688l-.134.607a1.147,1.147,0,0,1-.032.162,4.164,4.164,0,0,0-.02-.5c-.036-.555-.045-1.1-.049-1.619,0-.919.024-1.911.113-3.214.049-.781.077-1.575.105-2.344l.024-.688v-.623c0-.32.02-.656.036-.984v-.2c0-.17.02-.336.024-.5v-.049a.636.636,0,0,1,0-.13.215.215,0,0,1,0-.049.34.34,0,0,0,.028-.182.247.247,0,0,0-.13-.178.381.381,0,0,0-.312,0,1.437,1.437,0,0,0-.4.352l-.053.061q-.17.182-.328.376l-.154.174c-.186.211-.368.429-.547.648l-.3.352c-.583.684-1.166,1.437-1.741,2.227-.158.219-.3.453-.437.676s-.255.4-.4.619a3.02,3.02,0,0,1-.324.4,6.562,6.562,0,0,0-.514.717.324.324,0,0,1-.036.057c-.085.13-.219.328-.166.5a.267.267,0,0,0,.158.166c.251.105.385-.186.449-.328a.677.677,0,0,1,.045-.093c.121-.19.267-.376.4-.559s.2-.263.3-.4c.174-.247.336-.506.494-.757s.32-.522.5-.769c.328-.461.6-.81.854-1.15.336-.425.692-.842,1.036-1.247l.162-.19c.109-.134.219-.267.328-.4.166-.211.336-.433.522-.627v.109c-.032.579-.065,1.182-.053,1.777a3.882,3.882,0,0,1-.04.684,3.225,3.225,0,0,0-.04.522c-.008.174,0,.368,0,.555v.587c0,.332-.036.668-.061,1s-.053.749-.069,1.125v.433c0,.433-.036.874-.036,1.316v.235c0,.579,0,1.182.04,1.777,0,.146.02.3.028.441a6.882,6.882,0,0,0,.146,1.312.425.425,0,0,0,.227.3.3.3,0,0,0,.279-.04,1.117,1.117,0,0,0,.279-.376l.081-.146.656-.98a10.2,10.2,0,0,1,1.214-1.587c.089-.085.174-.174.259-.267a5.841,5.841,0,0,1,.717-.668l.121-.093a1.95,1.95,0,0,1,.688-.4.846.846,0,0,1,0,.4c0,.049,0,.1,0,.138a1.178,1.178,0,0,0,.081.587.478.478,0,0,0,.449.3.5.5,0,0,0,.239-.073c0,.267.024.534.045.81l.024.4v.13c0,.178.024.291-.065.372l-.312.271-.352.3a12.33,12.33,0,0,0-2.024,2.222,7.016,7.016,0,0,0-1.012,2.923,6.206,6.206,0,0,0,.263,3.117,3.328,3.328,0,0,0,.81,1.3,1.777,1.777,0,0,0,.644.34h.049a2.518,2.518,0,0,0,.781.17h0a1.777,1.777,0,0,0,1.235-.66,1.842,1.842,0,0,0,.4-.927l.028-.109a6.805,6.805,0,0,0,.142-1.425v-.17c0-.219.02-.437.036-.66,0-.287.036-.587.04-.878,0-.757,0-1.656-.049-2.591,0-.348-.024-.708-.028-1.053v-1.7c0-.121-.036-.255,0-.316a.85.85,0,0,1,.17-.13l.105-.069.332-.235.81-.555.036-.024.263-.17c.158-.1.32-.206.474-.316l.073-.045a.587.587,0,0,0,.223-.174.267.267,0,0,0-.036-.324A.259.259,0,0,0,35.587,60.528ZM31.62,72.616a2.4,2.4,0,0,1-.68-.154,1.328,1.328,0,0,1-.591-.344,3.619,3.619,0,0,1-.733-1.583,6.526,6.526,0,0,1-.113-1.684v-.024a6.477,6.477,0,0,1,1.214-3.643,16.1,16.1,0,0,1,2.146-2.154c0,.376,0,.757,0,1.129,0,.591,0,1.214.045,1.81a26.119,26.119,0,0,1,.024,2.648,6.833,6.833,0,0,1-.028.761,8.291,8.291,0,0,1-.308,2.429,1.312,1.312,0,0,1-1.008.781Z" transform="translate(-22.241 -49.705)"/><path class="b" d="M92.144,59.735c-.178-.077-.445.077-.81.352-.032,0-.053.04-.065.045a11.46,11.46,0,0,0-1.028.717l-.81.607a8.2,8.2,0,0,0-.708.632l-.263.251a4.537,4.537,0,0,1-1.8,1.255,2.429,2.429,0,0,1-2.146-.449,1.7,1.7,0,0,1-.5-.919,2.232,2.232,0,0,1-.053-.559.5.5,0,0,0-.121-.372.332.332,0,0,0-.263-.085.846.846,0,0,0-.32.1,1.019,1.019,0,0,1-.138.061,3.472,3.472,0,0,0-.547.235c-.3.158-.6.344-.874.526l-.227.146a24.779,24.779,0,0,1-2.166,1.271,3.152,3.152,0,0,1-2.105.478,1.332,1.332,0,0,1-.368-.19H76.8l-.142-.085a1.174,1.174,0,0,1-.376-.3,2.447,2.447,0,0,1-.215-.368l-.04-.069a.336.336,0,0,1-.061-.17.373.373,0,0,1,.04-.081.07.07,0,0,1,.028-.057,2.708,2.708,0,0,0,.283-1.441.51.51,0,0,0-.4-.518.482.482,0,0,0-.376.13,3.056,3.056,0,0,1,.028-.51v-.332a1.512,1.512,0,0,1,.02-.3,1.044,1.044,0,0,1,.138-.4l.032-.065a14.736,14.736,0,0,0,.765-1.915c.049-.154.105-.3.158-.457a9.361,9.361,0,0,0,.449-1.571c.049-.3.1-.644.13-.992V54.3a1.842,1.842,0,0,0-.1-.98.648.648,0,0,0-.433-.344.534.534,0,0,0-.445.093,1.461,1.461,0,0,0-.526.757,4,4,0,0,0-.13.769v.182a3.428,3.428,0,0,1-.045.356c-.028.219-.057.437-.089.656s-.045.368-.061.551-.032.332-.057.5c-.053.356-.1.7-.13,1.065a3.961,3.961,0,0,1-.036.4c0,.206-.04.4-.053.632v.036a1.186,1.186,0,0,1-.182.7l-.138.211a10.15,10.15,0,0,1-1.061,1.389l-.024.024a6.194,6.194,0,0,1-1.275,1.105A1.385,1.385,0,0,1,71,62.492a1.328,1.328,0,0,1-.4-.672,3.2,3.2,0,0,1-.1-.433V61.3c0-.154,0-.385-.215-.441a.231.231,0,0,0-.2,0,.328.328,0,0,0-.13.243v.032a1.784,1.784,0,0,1-.077.4.975.975,0,0,1-.142.283v-.032a1.215,1.215,0,0,1-.024-.466.355.355,0,0,1,0-.081c.02-.138.057-.352-.1-.457a.215.215,0,0,0-.2-.036c-.162.045-.255.251-.324.4l-.036.085A6.563,6.563,0,0,1,67.83,62.7a6.884,6.884,0,0,1-.81.6,1.085,1.085,0,0,1-.461.2.753.753,0,0,1-.668-.235,1.668,1.668,0,0,1-.279-.486,2.581,2.581,0,0,0-.134-.287.312.312,0,0,0-.312-.178.231.231,0,0,0-.186.215.887.887,0,0,0,.138.449l.049.105a1.7,1.7,0,0,0,.563.721,1.239,1.239,0,0,0,.874.2,1.931,1.931,0,0,0,.9-.4A7.8,7.8,0,0,0,68.9,62.3a3.524,3.524,0,0,0,.316-.4.551.551,0,0,0,.429.466.51.51,0,0,0,.506-.255,3.413,3.413,0,0,0,.158.324,1.36,1.36,0,0,0,.636.668,1.9,1.9,0,0,0,1.737-.211,7,7,0,0,0,1.478-1.271,9.105,9.105,0,0,0,.862-1.134l.053-.081v.113c0,.211-.032.429-.032.648v.372a6.881,6.881,0,0,1,0,.765c-.02.263-.024.522-.028.773v.4a4.277,4.277,0,0,1-.024.534c0,.243-.032.494-.032.741,0,.356,0,.717-.028,1.069S74.9,66.54,74.9,66.9a.4.4,0,0,0,.134.344.2.2,0,0,0,.113.032.235.235,0,0,0,.109-.024c.19-.085.17-.368.154-.575V65.552c0-.4,0-.81.036-1.239v-.162c0-.2.024-.4.028-.6V63.5a.475.475,0,0,1,0-.162.519.519,0,0,1,.1-.061v.028a2.43,2.43,0,0,0,.235.4,2.089,2.089,0,0,0,.619.5l.117.073a2.21,2.21,0,0,0,1.8.19,6.145,6.145,0,0,0,1.619-.712h.032c.526-.308,1.069-.623,1.591-.955l.15-.093c.336-.211.68-.429,1.036-.619a.951.951,0,0,0,.1.887.461.461,0,0,0,.615.073.567.567,0,0,0,.186-.194,2.21,2.21,0,0,0,1.154,1.048,2.931,2.931,0,0,0,2.393-.028,6.23,6.23,0,0,0,1.478-1.113,20.058,20.058,0,0,1,1.567-1.34l.243-.186c.243-.186.494-.376.753-.542a3.709,3.709,0,0,1,.332-.186L91.8,60.4l.053-.028c.166-.085.441-.231.4-.453A.206.206,0,0,0,92.144,59.735Zm-8.7,2.113a.182.182,0,0,1,0,.045v.032a1.712,1.712,0,0,1-.061.328,1.619,1.619,0,0,1-.125.291.587.587,0,0,1,.073-.494,1.032,1.032,0,0,1,.113-.2Zm-6.667-7.594v.13a7.478,7.478,0,0,1-.182,1.251c-.053.2-.121.4-.19.611-.032.093-.065.186-.093.279-.17.53-.364,1.117-.6,1.7.032-.32.073-.64.113-.951s.089-.729.125-1.1a3.7,3.7,0,0,1,.077-.579c.028-.174.057-.4.077-.6v-.166a3.493,3.493,0,0,1,.146-.858c.085-.223.239-.478.356-.51h.024a.089.089,0,0,1,.057.024C76.841,53.606,76.8,54.011,76.777,54.254Zm-1.263,8.109v-.239a1.648,1.648,0,0,1,.04-.4.81.81,0,0,1,.142-.291,1.171,1.171,0,0,1,.117-.13,1.8,1.8,0,0,1-.178,1.121A.514.514,0,0,0,75.514,62.362Z" transform="translate(-47.678 -51.645)"/><path class="b" d="M51.033,56.571a3.158,3.158,0,0,0-.231.235l-.073.077c-.348.372-.668.769-.968,1.146a14.574,14.574,0,0,0-1.648,2.591l-.045.081a2.272,2.272,0,0,0-.4,1.15.206.206,0,0,0,.125.134.186.186,0,0,0,.081,0,.186.186,0,0,0,.085,0,.51.51,0,0,0,.243-.32h0a6.019,6.019,0,0,1,.283-.64l.036-.073a13.46,13.46,0,0,1,1.389-2.312,15.642,15.642,0,0,1,1.125-1.376l.138-.142c.142-.146.283-.291.4-.441a.887.887,0,0,1,.089-.081.846.846,0,0,0,.2-.219.279.279,0,0,0-.065-.34.231.231,0,0,0-.279,0h0l-.1.077h0a2.638,2.638,0,0,0-.2.223C51.142,56.433,51.082,56.506,51.033,56.571Z" transform="translate(-37.366 -53.448)"/><path class="b" d="M61.38,64.67a.243.243,0,0,0,.117.032.291.291,0,0,0,.146-.045.287.287,0,0,0,.073-.4.247.247,0,0,0-.328-.134h0a.3.3,0,0,0-.15.263A.308.308,0,0,0,61.38,64.67Z" transform="translate(-45.45 -58.272)"/><path class="b" d="M61.139,61.209h0l.069.126.032-.02a.194.194,0,0,0,.105.028h.065a.312.312,0,0,0,.223-.3.275.275,0,0,0-.166-.267.279.279,0,0,0-.3.085.263.263,0,0,0-.057.227h0Z" transform="translate(-45.372 -56.288)"/><path class="b" d="M61.19,59.5a.3.3,0,0,0,.2.243.23.23,0,0,0,.073,0,.247.247,0,0,0,.182-.085.3.3,0,0,0,0-.4.243.243,0,0,0-.332-.049A.279.279,0,0,0,61.19,59.5Z" transform="translate(-45.418 -55.332)"/><path class="b" d="M61.694,56.408a.267.267,0,0,0,.239.4.274.274,0,0,0,.267-.287h0a.259.259,0,0,0-.506-.093Z" transform="translate(-45.699 -53.6)"/><path class="b" d="M62.19,67.919h0a.239.239,0,0,0,.231-.174.17.17,0,0,0,0-.049h0v-.146h0a.259.259,0,0,0-.113-.134.291.291,0,0,0-.3,0,.263.263,0,0,0-.105.267A.283.283,0,0,0,62.19,67.919Z" transform="translate(-45.843 -60.222)"/><path class="b" d="M64.7,75.255a.2.2,0,0,0,.146-.065h.028l.036-.117h0a.34.34,0,0,0-.146-.34.227.227,0,0,0-.291.032.283.283,0,0,0-.073.324.316.316,0,0,0,.279.19Z" transform="translate(-47.317 -64.578)"/><path class="b" d="M64.207,73.733a.211.211,0,0,0,.146-.057h.028l.045-.113h0v-.02h0a.3.3,0,0,0-.121-.316.227.227,0,0,0-.3,0,.279.279,0,0,0-.081.312.3.3,0,0,0,.259.2Z" transform="translate(-47.039 -63.671)"/><path class="b" d="M58.663,73.127l-.121-.028h-.024a.255.255,0,0,0-.259.085.291.291,0,0,0-.049.3.259.259,0,0,0,.227.154h.02a.279.279,0,0,0,.275-.239.247.247,0,0,0-.073-.223Z" transform="translate(-43.637 -63.624)"/><path class="b" d="M61.042,62.829a.251.251,0,0,0,.247.178.255.255,0,0,0,.247-.174.316.316,0,0,0-.081-.34.235.235,0,0,0-.291-.028A.348.348,0,0,0,61.042,62.829Z" transform="translate(-45.327 -57.276)"/><path class="b" d="M63.795,72.212l.235-.077V72.1a.279.279,0,0,0,.057-.162.316.316,0,0,0-.17-.3.247.247,0,0,0-.291.057.348.348,0,0,0,0,.4.243.243,0,0,0,.178.109Z" transform="translate(-46.833 -62.741)"/><path class="b" d="M62.905,69.253a.271.271,0,0,0,.219-.283h0a.279.279,0,0,0-.462-.19.259.259,0,0,0-.065.275.283.283,0,0,0,.267.206Z" transform="translate(-46.251 -61.017)"/><path class="b" d="M61.581,69.274h-.036l-.125-.024v.028a.239.239,0,0,0-.146.113.336.336,0,0,0,.045.376.219.219,0,0,0,.166.073.271.271,0,0,0,.121-.032.287.287,0,0,0,.154-.3A.263.263,0,0,0,61.581,69.274Z" transform="translate(-45.449 -61.338)"/><path class="b" d="M59.633,71.99H59.6a.239.239,0,0,0-.231.069.32.32,0,0,0-.077.32.247.247,0,0,0,.2.17h.045a.275.275,0,0,0,.267-.223.271.271,0,0,0-.166-.336Z" transform="translate(-44.282 -62.964)"/><path class="b" d="M57.273,74.31h-.04a.263.263,0,0,0-.206.3.267.267,0,0,0,.263.255h0a.247.247,0,0,0,.219-.142.32.32,0,0,0-.028-.308A.243.243,0,0,0,57.273,74.31Z" transform="translate(-42.942 -64.349)"/><path class="b" d="M61.415,57.861a.292.292,0,0,0,.125.324h0l.113.053v-.024a.223.223,0,0,0,.15-.061.312.312,0,0,0,.073-.328.251.251,0,0,0-.235-.174A.255.255,0,0,0,61.415,57.861Z" transform="translate(-45.55 -54.434)"/><path class="b" d="M63.376,70.645a.211.211,0,0,0,.19-.125.3.3,0,0,0,0-.324.287.287,0,0,0-.3-.077.227.227,0,0,0-.186.223.336.336,0,0,0,.251.3Z" transform="translate(-46.547 -61.846)"/><path class="b" d="M63.512,54.246a.259.259,0,0,0,.235-.142.291.291,0,0,0,0-.3.243.243,0,0,0-.243-.1.271.271,0,0,0-.227.3A.247.247,0,0,0,63.512,54.246Z" transform="translate(-46.664 -52.082)"/><path class="b" d="M62.308,54.745a.267.267,0,0,0-.154.506.279.279,0,0,0,.146.045.255.255,0,0,0,.134-.036.223.223,0,0,0,.1-.109h.028V54.9H62.53A.255.255,0,0,0,62.308,54.745Z" transform="translate(-45.904 -52.703)"/><path class="b" d="M65.549,59.729a.3.3,0,0,0-.158-.279.2.2,0,0,0-.227.061.312.312,0,0,0-.02.4.215.215,0,0,0,.182.1.263.263,0,0,0,.117-.028A.243.243,0,0,0,65.549,59.729Z" transform="translate(-47.737 -55.497)"/><path class="b" d="M64.089,64.923a.279.279,0,0,0,.077-.344.247.247,0,0,0-.243-.15.279.279,0,0,0-.239.2.255.255,0,0,0,.024.2h0l.2.15.02-.024A.227.227,0,0,0,64.089,64.923Z" transform="translate(-46.9 -58.468)"/><path class="b" d="M61.726,66.307a.211.211,0,0,0,.117-.036.34.34,0,0,0,.109-.376.235.235,0,0,0-.138-.146V65.72h-.251v.036a.271.271,0,0,0-.081.125.3.3,0,0,0,.073.32A.251.251,0,0,0,61.726,66.307Z" transform="translate(-45.586 -59.237)"/><path class="b" d="M60.658,70.811a.235.235,0,0,0-.174-.081.259.259,0,0,0-.2.437.287.287,0,0,0,.211.093.271.271,0,0,0,.138-.036.231.231,0,0,0,.113-.182h.024l-.089-.227Z" transform="translate(-44.842 -62.218)"/><path class="b" d="M64.771,62.926a.251.251,0,0,0-.263-.227h0a.255.255,0,0,0-.231.154.3.3,0,0,0,0,.312.239.239,0,0,0,.182.085l.085-.024A.283.283,0,0,0,64.771,62.926Z" transform="translate(-47.234 -57.439)"/><path class="b" d="M63.24,66.608a.3.3,0,0,0,.219-.093.247.247,0,0,0,0-.308.239.239,0,0,0-.267-.117.267.267,0,0,0-.158.1H63v.121h0v.028h0a.231.231,0,0,0,.142.243A.227.227,0,0,0,63.24,66.608Z" transform="translate(-46.497 -59.453)"/><path class="b" d="M56.169,75.39H56.12a.239.239,0,0,0-.219.142.291.291,0,0,0,.049.316.235.235,0,0,0,.178.077.251.251,0,0,0,.093,0,.263.263,0,0,0,.17-.291A.267.267,0,0,0,56.169,75.39Z" transform="translate(-42.259 -64.992)"/><path class="b" d="M64.7,54.463a.259.259,0,0,0-.2.3.247.247,0,0,0,.247.235.259.259,0,0,0,.243-.138.283.283,0,0,0-.032-.291A.263.263,0,0,0,64.7,54.463Z" transform="translate(-47.393 -52.534)"/><path class="b" d="M65.429,57.6h-.174v.036a.263.263,0,0,0-.089.239.255.255,0,0,0,.251.235h.036a.267.267,0,0,0-.028-.526Z" transform="translate(-47.787 -54.392)"/><path class="b" d="M65.211,56.1a.243.243,0,0,0-.231.239.255.255,0,0,0,.243.243h0a.242.242,0,1,0-.028-.482ZM65.211,56.458ZM65.211,56.219Z" transform="translate(-47.678 -53.509)"/><path class="b" d="M65.291,61.55a.283.283,0,0,0-.045-.283.231.231,0,0,0-.235-.077.263.263,0,0,0-.2.3.247.247,0,0,0,.243.223h.024a.263.263,0,0,0,.21-.166Z" transform="translate(-47.576 -56.536)"/></g></g></g></g></svg>