<svg version="1.1" xmlns="http://www.w3.org/2000/svg" xmlns:xlink="http://www.w3.org/1999/xlink" viewBox="0 0 283.5 283.5"><g><path d="M138,59.5c-3.2,1-3.9,8-4.4,12.4c2.5-3,5.1-7.3,5.7-9.8C139.8,60.1,138.7,59.3,138,59.5z"></path><path d="M118.7,92.3c1.9-0.8,3-6.5,3.4-8.9c0.7-4.1,0.5-7.2,0.1-12.4c-0.1-1.4-1.8-3.8-3.7-3.1
		C113,69.8,116.3,93.4,118.7,92.3z"></path><path d="M128.4,164.8c2.2-1,4.2-2.2,6.3-3.4c1.5-1,2.8-2.1,3.9-3.5c1.2-1.5,1-3.8-0.6-5c-0.4-0.3-0.9-0.6-1.4-0.7
		c-0.5-0.2-1.1-0.2-1.6-0.2c-2.7,0-4.9,1.1-7.5,2.7C127.9,158.1,128.2,161.1,128.4,164.8z"></path><path d="M63.1,138.4c0,2.6,0.7,5.2,2,7.5c1.2,2.3,3.2,4,5.7,4.8c2.6,1,5.5,0.1,7.2-2.1c0.7-0.8,1.3-1.8,1.7-2.8
		c1.1-2.9,1.4-6.1,0.9-9.2c-0.6-3.7-1.7-7.2-3.3-10.6c-2-4.2-4.3-8.1-7.1-11.8c-0.2,0.4-3.8,8.8-5.2,13.1
		C63.6,131,63,134.7,63.1,138.4z"></path><path d="M205.9,88.1c2.9,1.4,13.8-16.8,9.5-18.8C212.6,68,203.3,86.9,205.9,88.1z"></path><path d="M132.8,145.2c-1.5-0.1-3.1,0.2-4.5,0.7c-0.5,0.2-1,0.4-1.5,0.6c0.2,1.9,0.4,3.9,0.7,5.9c1.8-1.1,3.4-2.4,5-3.8
		c0.6-0.5,1-1.1,1.4-1.8C134.2,146,133.9,145.3,132.8,145.2z"></path><path d="M202,45.4c-3.2,0-7.4,10.3-8.1,12.8C199.8,57.9,207.1,45.4,202,45.4z"></path><path d="M174.7,82.8c-2.1,2.8-3.8,6-4.9,9.4c-1.3,4.5-0.6,9.2,2.6,9.2c2.7,0,3.6-4.3,3.5-8.7
		C175.7,89.4,175.3,86,174.7,82.8z"></path><path d="M201.1,63.8c-3.8-0.3-9.7,4.1-10.6,4.8c-0.1,0.1-0.1,0.2-0.2,0.2c-0.6,2-2,7.1-2,7.1
		C198,75.2,204.2,64,201.1,63.8z"></path><path d="M167.1,80.3c1.9,0.8,6.7-9.5,6.7-9.5s-0.4-9.6,5.4-9.7c4.2-0.1,3.2,7.9,1.9,7.8c-1-0.1,0.6-5.2-1.2-5.3
		c-1.6-0.1-3,2.8-3.1,6.6c-0.1,2.8,0.1,5.6,0.4,8.3l9.4-9.3l3.3-9.9c-4.6-0.8-15.5-6.3-19.7-7.2C170.2,52.1,162.7,78.5,167.1,80.3z"></path><path d="M106.7,250.3c6.3-1.1,6-21.3,6-21.3S99.8,251.5,106.7,250.3z"></path><path d="M199.1,215.9c-0.6,3.2-0.8,6.5-0.6,9.8c0.4,3.2,3.2,4.5,4.4,3.5C206,226.6,199.5,216,199.1,215.9z"></path><path d="M197.8,156.1c-4.2,1.2,5,26.7,5,26.7S203.3,154.5,197.8,156.1z"></path><path d="M210.8,176c-3.3,1.9-6.4,10.5-6.3,10.8c0.5,1.5,1.5,4,1.9,5.3c0.2,0.6,1.6,0.1,2.3-0.5
		C214,187.6,215.2,173.6,210.8,176z"></path><path d="M134.6,176c-3.5,0-5,16.9-5.2,23.4C129.9,199.2,141,176,134.6,176z"></path><path d="M150.1,206.8c-3.7,0-3.7,8-3.7,8S152.4,206.8,150.1,206.8z"></path><path d="M228.9,165.9c-0.1-0.3-0.1-0.6-0.4-0.7c-0.6-0.2-0.8-0.7-1-1.2c-0.2-0.5-0.4-0.9-0.7-1.3c-0.7-1-1.4-0.9-2,0.1
		c-3.5,5.8,3.3,20.5,6,19.2c2.9-1.4,0.3-9.8-0.4-11.6C230,168.8,229.6,167.7,228.9,165.9z"></path><path d="M263.7,100.6C256,70,234.8,9.4,158.1,6.6C69.3,3.3,14.6,76.1,15.6,144.2c1,63.4,31.6,109.2,84.4,125.1
		c38,11.4,110.5-1.3,145.1-53.2C267.5,182.4,272.5,135.4,263.7,100.6z M222.6,63.3c0.2-0.2,6.5-4.9,6.7-5.1c0.5-0.3,1-0.5,1.3,0
		s0,1-0.4,1.3s-5.5,4-6.7,4.9c-0.3,0.3-0.8,0.2-1-0.1c0,0,0,0,0-0.1C222.2,63.9,222.3,63.5,222.6,63.3z M48.7,76.6
		c-0.3-2.9,0.1-5.9,1.1-8.6c2.1-5.4,7.2-7.3,12.3-4.5c1.7,0.9,3.1,2.1,4.3,3.6c2.9,3.7,4.8,8,5.7,12.5C72.8,83,73,86.5,72.8,90
		c0,0.8,0,2.1-0.6,2.1c-0.3,0-0.3-1-0.3-1.6c0-4.1-0.6-8.2-1.8-12.2c-1.1-3.6-2.9-7-5.4-9.8c-1.3-1.5-2.9-2.6-4.7-3.3
		c-2.8-1.2-6,0.1-7.1,2.9c-1.2,2.5-1.5,5.3-1,8c0.6,3.6,1.8,7,3.6,10.1c2.7,4.6,5.9,9,9.4,13.1c2.1,2.5,4.2,5,6.3,7.5l0.5,0.6
		c2.2-6.6,4-13.2,5.5-20C79.8,75.7,81,67.2,81,67.2s-3.3,3.5-4.3,4.5c-0.3,0.3-0.6,0.6-1,0.8c-0.3,0.2-0.7,0.1-0.9-0.1
		c-0.3-0.2-0.3-0.6-0.2-0.9c0.2-0.4,0.4-0.7,0.7-1c1.5-1.8,6.2-7,6.2-7s-0.2-8.1-0.4-13.1C81,48.3,81,47,82.5,46.6
		c0.6-0.1,0.9,0,1.1,0.8c0.1,0.5,1.1,8.6,1.2,12.1c0,0.3,0.1,1,0.1,1.3c0.3-0.3,0.6-0.5,0.8-0.8l7.2-6.8c0.3-0.4,0.7-0.7,1.2-0.9
		c0.3-0.1,0.7-0.1,0.9,0.2c0.2,0.2,0.2,0.6,0,0.8c-0.3,0.5-0.6,0.9-1,1.2c-2.7,2.6-9,8.8-9,8.8s4,53.5,8.3,52.7
		c2.4-0.4,3.3-14.4,3.3-14.4c-1.3-4.7-2.3-9.5-2.8-14.3c-0.3-4.1-0.3-7,1.2-7.4c1-0.2,1.2,0.1,1.3,0.5c0.6,1.7,4,25.5,6.1,24
		c2.3-1.6,2.8-10,2.6-11.3c-0.8-4.1-1.3-8.4-1.4-12.6c0-1.3,0.2-3.6,1.7-4s1.5,0.9,1.6,1.9c0.5,3.7,3.1,20.2,3.6,19.8
		c1.2-0.7,2.4-5.5,2.7-7.4c0.1-0.5,0-0.9-0.1-1.3c-1.1-4.2-4-20.9,4.4-23.8c2.1-0.7,4,1.8,4.4,2.2c-0.1-0.9-1-23.4-0.8-27.9
		c0-0.6,0.1-2.7,1.2-2.9c0.7-0.1,1.2,0,1.3,1c0.1,1.7,2.2,51.9,5.7,49.6c1.8-1.2,2-7.7,2-7.7s-5.1-18.1,5.9-22.7
		c3.7-1.5,7.3,3.5-3.3,15.3c-0.3,0.2-0.4,0.5-0.4,0.8c-0.2,2.8,1.7,11.2,3.4,10.6c2.7-1,5.5-8,6.5-10.3c0.3-0.6,0.7-14.5,0.7-15.9
		c0-1,0.1-2.2,1.4-2.3c1-0.1,1.5,0.5,1.5,0.9c0,3,0,10.7,0,10.7s4.2-10.8,8.5-10.9c5.6-0.1,1.5,23,2.9,22.6c0.9-0.3,3.2-4.8,4.2-8.3
		c0.2-0.8,4.8-19.3,4.8-19.3s-7.7-2.4-13.7-0.2c-0.3,0.1-0.7,0.3-0.8,0s0.1-0.4,0.4-0.6C158.7,47.7,168,50,168,50s2.5-9.2,3.5-12.3
		c0.3-1,0.8-2.2,2.1-2c0.5,0.1,0.5,0.5,0.4,1c-0.2,0.9-3.4,14.1-3.4,14.1c4,1.2,14.5,5.8,20,6.8c0,0,4.5-14.6,11.8-14.2
		c9.7,0.6-1.9,16.2-9,16.3c-1.1,2.9-2.3,7-2.3,7s4.9-4.6,10.1-4.4c8.8,0.3,0.1,15.5-11.7,16.1c-0.2,0.4,3.1,10.2,5.1,10.2
		c3.8,0,8.4-5.7,8.4-5.7s5.8-18,12.8-16.3c4,1,3,3.2,3.2,3.2c1-0.1,1.7,0.4,1.6,1.4c-0.1,0.6-7.7,19.2-5.1,20.3
		c3.4,1.5,11.4-13.8,11.7-14.4c0.2-0.4,0.6-0.5,1-0.4c0.4,0.2,0.3,0.6,0.2,1s-8.1,17.1-13.6,15.4c-4.3-1.3-2.5-6.8-2.4-8.1
		c-0.5,0.2-4.8,6.7-7.7,5.4c-1.8-0.7-1.8-3.6-1.9-4.3c-0.4,0.2-5.4,5.2-9.1,4.3c-3.9-0.9-6.8-9.6-6.8-9.6s-1.7,5.4-1.9,5.9
		c-0.6,1.2-1.2,1.8-2.5,1.4c-0.8-0.4-1.1-1.3-0.8-2.1c0.2-0.8,4.3-14.7,4.3-14.7l-8.3,8.7c0.7,3.4,1.3,6.8,1.6,10.2
		c0.6,6.9-0.3,13.5-5.1,13.7c-6.2,0.2-7.2-6.1-5.9-11.3c1.6-6.2,6.3-11.8,6.3-11.8s-0.7-6.1-0.6-8.3c-0.5,0.3-3.9,10.5-7.4,9.6
		c-4.4-1.2-3.6-7.9-3.6-7.9s-1.8,6.6-4.6,7c-5.4,0.7-1.8-23.5-2.8-23.5c-2.7,0-6.9,9.4-7.9,12.2c-0.4,1.5-0.6,3-0.6,4.5
		c-0.1,2.4-0.5,8.1-0.5,8.6c-0.1,0.8-0.8,1-1.8,1.2c-0.7,0.2-1.2-0.1-1.2-1.1c0-0.4,0.3-6.7,0.3-6.7s-3.1,8.1-6.3,9.3
		c-2.9,1.2-4.9-3.4-4.9-3.4s-0.6,6.9-2.8,7.7c-4.3,1.6-5.9-8-6.2-10c-0.1,1.2-1,12.7-4.6,14.3c-2.5,1.2-3.6-1.3-4.5-2.6
		c-0.2,1.4-1.4,8.6-4,9.5c-3,1.1-3.4-2.4-4-3.9c-0.2,1.7,0.2,8-3.4,9.8c-3.1,1.5-5.1-3.1-5.1-3.1s-0.4,14.3-4.2,14.9
		c-10,1.6-11.8-47.2-11.8-47.2s-0.8,5.3-1.3,7.4c-2.7,11.8-3.8,18-7.2,27.4c-0.2,0.5-0.5,1.3-0.7,1.7c0.4,0.5,0.6,0.7,0.9,1.1
		c3,3.8,5.8,7.8,8.1,12c2.1,3.8,3.6,8,4.5,12.3c0.7,3.5,0.7,7.1-0.1,10.6c-0.7,2.6-2,5.1-3.9,7c-3.6,3.8-9.4,4.4-13.7,1.4
		c-3.6-2.4-5.9-6.3-6.4-10.5c-0.5-4.5,0-9,1.4-13.3c0.9-3.1,2-6.1,3.3-9.1c0.4-1,2.3-5.3,2.7-6.3c-0.4-0.6-0.4-0.6-0.7-1
		c-2.2-2.9-4.5-5.8-6.8-8.6c-3.6-4.3-6.7-9-9.2-14C50.4,85.6,49.1,81.2,48.7,76.6z M225.4,152.6c0,0.7-0.2,1.2-0.7,1.2
		s-0.7-0.3-0.7-1.4c0-0.3,0-6.9,0-7.4s0.3-1.1,0.8-1.1c0.4,0,0.6,0.4,0.6,1.2C225.4,145.6,225.4,151.6,225.4,152.6L225.4,152.6z
		 M170.3,156.5c0.1,0.5-0.1,0.8-0.6,0.9c-0.4,0.1-0.8,0-1-0.4c0,0,0-0.1,0-0.1c-0.1-0.2-1.3-7.8-1.4-8.4c-0.4,0.1-3.9,1-5.5,1.4
		c-1.2,0.2-1.8-0.4-1.8-1.6c0.1-2.9,0.4-10.6,0.6-11.6c0-0.3,0.1-0.6,0.3-0.9c0.1-0.3,0.5-0.5,0.8-0.4c0.2,0.1,0.3,0.2,0.4,0.4
		c0.2,0.3,0.2,0.7,0.2,1.1c0,2.6-0.1,10.1-0.2,11.5c1.8-0.4,3.4-0.8,5-1.2c-0.1-0.8-0.5-3.6-0.6-4.3c-0.1-0.4,0.2-0.9,0.6-1
		c0,0,0.1,0,0.1,0c0.7-0.1,0.8,0.3,0.9,0.7c0.2,0.9,0.5,3.4,0.6,4.1c1-0.2,3.2-0.8,3.5-0.8c0.3-0.1,0.7,0,0.9,0.4c0,0,0,0,0,0.1
		c0.2,0.5-0.2,0.8-0.6,0.9c-0.7,0.2-2.5,0.6-3.6,0.9C169.3,150.6,170.2,156.3,170.3,156.5L170.3,156.5z M148.8,136.5
		c0.2,1.6,3.3,27.6,3.4,28.6s-0.1,1.5-1,1.6c-0.7,0.1-1.1-0.4-1.2-1.2c-0.4-3.5-3.4-27.7-3.5-28.4c-0.8,0.2-35.1,8.6-36,8.8
		c-0.4,0.1-0.9-0.1-1-0.5c-0.1-0.6,0.3-0.9,0.8-1.1s35.3-9.7,35.8-9.9c-0.1-0.9-3.3-29.5-3.4-31.9c0-0.7-0.3-2,0.5-2.1
		s0.9,0.6,1.1,1.4c0.2,1.5,4.1,31,4.3,32.1l33-8.3c1-0.2,1.4,0,1.5,0.5s-0.2,1.2-1.1,1.5S149.5,136.3,148.8,136.5L148.8,136.5z
		 M135.4,150.4c2-0.1,4,0.9,5,2.7c1.1,1.7,1,4-0.2,5.6c-1,1.4-2.2,2.6-3.6,3.6c-2.2,1.5-4.4,2.8-6.8,3.9c-0.5,0.3-1,0.4-1.6,0.4
		c-0.9-0.1-1.7-0.8-1.7-1.7c-0.4-2-1.3-16.9-1.3-17.8c0-0.6,0.3-1.1,0.9-1.4c1.8-1,3.9-1.6,6-1.7c0.5-0.1,1.1,0,1.6,0.1
		c1.2,0.2,2,1.4,1.7,2.6c0,0.1,0,0.1,0,0.2c-0.3,1.1-0.9,2.1-1.7,2.9c-0.2,0.3-0.5,0.5-0.9,1C133.6,150.5,134.5,150.4,135.4,150.4
		L135.4,150.4z M128.1,113.2c-0.1-0.6-0.1-1.4,0.5-1.5s0.9,0.6,1,1.3c0.2,1.7,1,5.7,1.5,9.5c0.5,3.3,1,7.5,1.1,8s0,1-0.5,1.1
		c-0.9,0.2-1-0.4-1.1-0.7s-0.7-4.5-1.1-6.7c-1.9,1-4.3,2.4-6.2,3.4l1.1,6.8c0.2,1-0.2,1.3-0.7,1.4s-1-0.2-1.2-1.1
		c-0.8-2.9-3.3-20.3-3.3-20.9s0-1,0.6-1.2s0.9,0.5,1,0.9c0.1,0.7,2.1,11.7,2.2,12.3c1.9-1,4.4-2.5,6.3-3.3
		C129.3,121.3,128.4,115.3,128.1,113.2L128.1,113.2z M161.2,122.2c0.1,0.5-0.1,0.9-0.7,1s-0.8-0.3-0.8-0.7c-0.1-0.7-1.5-9.5-1.5-9.5
		s-5.9-7.1-6.3-7.6c-0.2-0.3-0.4-0.7,0-1.1c0.3-0.2,0.7-0.2,1,0.1c0,0,0,0,0,0c0.4,0.4,5.9,6.5,6.1,6.7c0.4-0.5,3.1-5,4.4-7.1
		c0.3-0.4,0.6-1,1.2-0.8s0.1,1-0.1,1.4c-1.4,2.3-4.5,8.1-4.5,8.1S161.2,122,161.2,122.2z M239.1,175.6c-2,1.9-4.8-0.5-5.4-0.9
		c0.2,1.9,2,8.8-1.9,10.5c-4.5,2-8.3-4.7-8.6-5.1c0,0,0,15.7-4.5,18.4c-2.5,1.5-10.1-2.5-10.7-2.6c0,0,3.3,9.1,3.6,10.1
		c0.4,1.6-0.2,2.5-1,2.8c-1.4,0.6-2.1,0.2-2.8-1.3s-4.6-11.1-4.6-11.1c-0.5,3.6-2.5,13.3-2.5,13.3c1.2,1.6,12.4,16.1,5.3,21.6
		c-4.7,3.6-9-0.2-9.4-5.2c-0.3-4,0.1-8.1,1.2-12c-0.1-0.4-3.4-5.2-4.7-7.5c-0.3,0.5-1.1,13-5.6,14c-5,1.1-4.6-19.1-6.2-18.7
		c-2.5,0.7-4.9,10.2-5,11.7c0,0.8,0,1.5,0,2.3c0.4,3.9,0.7,7.5,0.8,8.8c0,0.7-0.6,1.3-1.6,1.4s-1.5-0.8-1.6-1.5
		c-0.1-1.4-0.5-5.7-0.6-7.3c0,0-3.2,12.6-6.2,12.6c-6.1-0.1-4.6-13.7-4.6-14.1c-1-0.3-1.8-0.8-2.5-1.5c-0.4,0.1-5.3,20-10,20.1
		c-7.7,0.2-8-13-7.9-13.6c-1.4,0.6-2.9,0.9-4.4,0.9c0,0-1,13.3-6.5,13.5c-7.8,0.3-7.2-21.5-7.2-21.5l-6,8.4c0,0,0.8,29.8-9.9,30.7
		c-13.5,1.1,4.4-26,4.4-26l0.2-10.6c0,0-2.8,13.8-8.3,14.5c-7.6,0.9-4.3-32.5-4.5-33.2c-2.3,0.8-6.5,2.3-6.5,2.3s-1.8,32.6-1.9,33.1
		c0,0.9-0.8,1.6-1.7,1.5c0,0,0,0,0,0c-1-0.1-2.6-0.1-2.5-2.1c0-0.3,1.2-31.2,1.2-31.2l-17.6,4.9c0,0,0.3,21.5,0.3,23.5
		c0,1.3-0.9,1.3-2.2,1.4s-1.5-0.4-1.7-1.6s-0.8-23-0.8-23s-3.1,0.7-4.5,0.9c-0.6,0.1-1.2,0.1-1.2-0.4s0.5-0.5,1-0.6
		c1.5-0.4,4.7-1.2,4.7-1.2s-0.1-35.1-0.1-36.4c0-0.9-0.1-2.1,2.3-2.2c0.8,0,1,0.4,1.1,1.2c0.1,1.5,1.1,36.7,1.1,36.7l17.6-5.2
		c0,0,1.5-28.1,1.7-30.1c0.1-1.3,0.2-2.4,2.8-2.4c1.2,0,1.4,0.6,1.4,1.5c-0.2,5.7-1,29.6-1,29.6s4.5-1.5,6.4-2.5s3.8-0.6,3.8,1.5
		c0,1.1-0.5,30.8,1.4,30.6c4.3-0.5,7.9-17.9,8-24.8c0.1-2.1,1-3.7,2.3-3.8c1-0.1,1.5,0.5,1.6,1.5c0.2,1.6,0.8,19.7,0.8,19.7l6-8.6
		c0,0-1.5-37.1,11-37.3c9.4-0.1-1.9,21.1-5.6,27.5c-0.2,0.4-0.9,30.7,2.6,30.4c3.9-0.4,4.3-10.6,4.3-10.6c-5.6-0.6-6.2-12.1-0.6-13
		c4.5-0.8,2.2,11.8,2.2,11.8c1.4,0,4.1-0.5,4.1-1.3c0.1-2.6-0.7-13.6,7.9-14.1c6.9-0.4-3.5,11.5-3.5,11.5c-0.3,4.1,1.2,15.2,4,15.3
		c3.2,0.1,8.2-15.9,8.8-18.5c0,0-2.2-6.3-1.1-8.8c0.3-0.8,1.1-1.3,2-1.2c0.8,0,1.1,0.8,1.3,1.4c0.4,1.3,0.4,6.3,2.3,8.1
		c2.1,0.1,2.4,0.5,2.3,2.6c-0.2,3.4-0.4,12,1.6,11.9c2.9-0.1,5.4-13.1,5.4-13.1c-0.2-3.2-0.6-6.7-0.8-9.8c-0.1-1,0.5-1.9,1.5-2.2
		c1.1-0.2,1.4-0.1,1.5,0.9c0.2,2.1,0.4,4.5,0.7,6.8c0.1-0.4,2.8-8.9,6.1-9.9c6-1.7,4.9,18.5,6.4,18.1c2.9-0.8,4-12.5,4-12.5
		s-3.9-8.4,0.6-10.5c3.4-1.5,6.7,5.6,5.6,6.2s-2.9-5.6-4.6-4.5c-1.4,0.9,3.1,9.8,5.3,11.8c0,0,2.7-10.6,2.9-14.6
		c0,0-15.1-33.6-6.9-39.5c10-7.2,9.4,26.1,9.4,26.1s2.6-5.5,6.4-6.8c5.4-1.9,6.5,3.6,6.6,5.6c0.1,3.8-1,6.5-2.2,9.4
		c-0.9,2.4-2.5,4.6-4.6,6.1c0,0,6.6,3.5,7.8,2.2c3.6-3.9,3.2-18.6,3.2-18.6s-5.7-14.6,1.8-19c2.5-1.5,3.7,0.3,3.7,0.3
		c0.2-0.6-0.4-2.7,1.3-3.2c0.8-0.2,1.3-0.3,1.9,0.8c1.2,2.6,6.1,16.2,7.4,15.6s-1.7-20.4-1.8-20.9c-0.1-0.3,0.1-0.6,0.4-0.7
		c0.3-0.1,0.6,0,0.7,0.3c0,0.1,0,0.1,0,0.2C237.5,152,241.6,173.3,239.1,175.6L239.1,175.6z"></path><path d="M135.9,210.4c-1.9,0-2.7,8.5,0.6,9.6C136.6,220.1,138,210.4,135.9,210.4z"></path></g></svg>