<svg xmlns="http://www.w3.org/2000/svg" viewBox="0 0 1489.000000 518.000000"><g transform="translate(0.000000,518.000000) scale(0.100000,-0.100000)"><path d="M5864 5159 c-16 -13 -33 -25 -37 -29 -9 -8 179 -255 194 -255 9 0
198 234 199 246 0 4 -16 18 -34 33 l-35 26 -65 -80 -65 -80 -57 72 c-31 40
-60 77 -64 81 -4 4 -20 -2 -36 -14z"></path><path d="M8205 5064 c-88 -63 -161 -119 -163 -122 -1 -4 10 -23 26 -41 l28
-33 162 117 c89 64 162 120 162 124 0 3 -13 21 -28 38 l-27 32 -160 -115z"></path><path d="M11390 4803 c-260 -33 -480 -190 -586 -418 -50 -108 -67 -185 -67
-310 0 -180 48 -325 153 -457 144 -181 347 -278 580 -278 210 0 364 64 516
215 76 76 97 105 137 185 57 115 77 202 77 336 0 192 -66 357 -199 496 -106
111 -217 178 -352 211 -69 17 -203 28 -259 20z m290 -128 c214 -79 370 -258
416 -475 58 -277 -83 -571 -337 -698 -256 -129 -540 -82 -744 122 -128 129
-185 267 -185 450 0 105 19 184 67 286 50 106 177 232 284 283 112 54 175 67
309 63 96 -3 128 -8 190 -31z"></path><path d="M2898 4793 l-68 -4 0 -721 0 -720 173 4 c155 4 180 7 252 32 111 38
180 83 263 170 51 54 82 98 111 158 62 130 75 191 76 358 0 171 -13 229 -81
368 -82 167 -234 290 -416 336 -64 17 -209 25 -310 19z m286 -113 c107 -27
169 -63 252 -145 218 -216 245 -600 59 -861 -106 -149 -249 -220 -462 -231
l-113 -6 0 632 0 631 93 0 c61 0 121 -7 171 -20z"></path><path d="M6047 4789 c-149 -19 -266 -77 -373 -183 -196 -197 -263 -519 -165
-803 39 -114 83 -185 167 -268 131 -131 281 -185 513 -185 l131 0 0 48 0 47
-143 0 c-128 1 -150 3 -220 28 -151 53 -259 148 -328 291 -55 113 -73 203 -67
339 13 298 178 515 443 582 38 9 106 15 187 15 l128 0 0 44 0 43 -67 6 c-81 8
-116 7 -206 -4z"></path><path d="M14058 4793 l-68 -4 0 -719 0 -720 143 0 c172 0 252 16 367 71 159
76 294 246 345 434 9 33 19 112 22 176 11 236 -58 430 -209 581 -74 73 -186
136 -288 162 -64 16 -213 25 -312 19z m286 -113 c108 -27 170 -63 253 -146
122 -122 177 -266 177 -464 0 -156 -30 -258 -111 -382 -103 -157 -250 -234
-470 -245 l-113 -6 0 632 0 631 93 0 c61 0 121 -7 171 -20z"></path><path d="M10 4070 l0 -720 45 0 45 0 2 594 3 593 350 -588 c347 -583 350 -588
383 -589 l32 0 0 715 0 715 -45 0 -45 0 -2 -594 -3 -594 -355 594 c-333 558
-356 594 -382 594 l-28 0 0 -720z"></path><path d="M1802 4773 c-4 -10 -124 -328 -268 -708 l-261 -690 40 -18 c22 -10
43 -15 47 -10 5 4 40 91 78 193 l69 185 324 3 324 2 69 -184 c37 -101 71 -189
75 -195 8 -13 86 10 86 25 0 5 -119 325 -264 712 -248 660 -265 702 -288 702
-13 0 -27 -8 -31 -17z m308 -940 c0 -10 -63 -13 -280 -13 -180 0 -280 4 -280
10 0 8 189 516 270 725 11 28 19 10 151 -340 76 -203 139 -376 139 -382z"></path><path d="M4301 4093 c-145 -384 -264 -704 -265 -712 -1 -18 75 -46 85 -30 4 6
38 94 75 195 l69 184 323 -2 324 -3 70 -185 c38 -102 73 -189 77 -193 12 -12
81 19 80 35 0 7 -118 326 -262 708 -247 656 -263 695 -287 698 -25 3 -31 -12
-289 -695z m432 106 c76 -201 137 -369 137 -372 0 -4 -129 -7 -286 -7 -169 0
-284 4 -282 9 93 257 284 748 289 743 3 -4 67 -172 142 -373z"></path><path d="M6790 4071 l0 -721 45 0 45 0 2 595 3 596 353 -591 352 -590 35 0 35
0 0 715 0 715 -50 0 -50 0 -2 -592 -3 -592 -352 589 c-335 562 -353 590 -382
593 l-31 3 0 -720z"></path><path d="M8150 4070 l0 -720 45 0 45 0 0 720 0 720 -45 0 -45 0 0 -720z"></path><path d="M9660 4070 l0 -720 45 0 45 0 0 380 0 380 300 0 300 0 0 45 0 45
-300 0 -300 0 0 250 0 250 365 0 365 0 0 45 0 45 -410 0 -410 0 0 -720z"></path><path d="M12590 4070 l0 -720 45 0 45 0 2 594 3 594 350 -586 c339 -568 352
-587 383 -590 l32 -3 0 715 0 716 -45 0 -45 0 -2 -594 -3 -593 -354 593 c-336
565 -355 594 -382 594 l-29 0 0 -720z"></path><path d="M12685 2700 c-144 -105 -139 -99 -110 -134 l23 -29 121 88 c67 48
123 91 126 95 5 8 -32 60 -43 60 -4 0 -56 -36 -117 -80z"></path><path d="M11700 2233 l-295 -277 -3 268 -2 267 -38 -3 -37 -3 -3 -547 -2 -548
40 0 40 0 0 229 0 229 38 30 37 29 260 -268 c238 -245 262 -267 279 -255 52
34 52 35 -149 238 -105 106 -223 227 -263 268 l-72 76 257 239 c142 131 259
241 261 245 3 8 -37 60 -46 59 -4 0 -140 -124 -302 -276z"></path><path d="M1376 2484 c-178 -43 -342 -197 -396 -373 -96 -310 83 -634 396 -716
75 -19 200 -19 278 1 187 48 353 212 402 398 19 71 18 229 -2 297 -29 97 -74
171 -148 245 -78 78 -177 133 -274 153 -71 15 -184 13 -256 -5z m276 -84 c176
-54 299 -194 336 -382 14 -70 14 -86 0 -156 -22 -111 -61 -186 -133 -258 -95
-96 -210 -144 -339 -144 -136 1 -232 39 -332 132 -315 295 -105 824 327 827
50 1 100 -6 141 -19z"></path><path d="M4900 2483 c-14 -9 -26 -17 -28 -18 -1 -1 72 -122 163 -268 l165
-266 0 -271 0 -270 40 0 40 0 0 269 0 269 165 268 c124 200 163 269 153 276
-44 30 -51 31 -67 11 -9 -10 -77 -119 -151 -241 -74 -122 -137 -221 -140 -221
-3 0 -70 106 -150 236 -80 130 -150 238 -155 240 -6 2 -22 -4 -35 -14z"></path><path d="M6986 2484 c-180 -43 -342 -198 -399 -379 -30 -97 -30 -233 1 -332
44 -141 151 -267 284 -334 116 -59 269 -76 391 -44 194 50 361 221 407 414 16
69 16 193 0 262 -47 199 -230 377 -428 418 -71 15 -184 13 -256 -5z m265 -80
c88 -26 150 -63 214 -128 72 -72 111 -147 133 -258 14 -71 14 -86 -1 -159 -21
-110 -59 -182 -132 -255 -95 -96 -209 -144 -339 -144 -240 1 -438 170 -478
408 -47 282 182 549 473 551 42 1 99 -6 130 -15z"></path><path d="M12358 2482 l-28 -18 165 -266 165 -266 0 -271 0 -271 40 0 40 0 0
268 0 268 166 268 c126 205 162 271 152 278 -32 21 -49 29 -56 24 -5 -3 -73
-111 -153 -240 -133 -217 -145 -234 -159 -217 -8 9 -76 117 -150 239 -74 122
-139 221 -145 222 -5 0 -22 -8 -37 -18z"></path><path d="M0 1940 l0 -550 40 0 40 0 0 179 0 178 103 6 c56 3 111 9 122 12 17
5 45 -27 169 -190 82 -108 152 -197 155 -199 3 -2 19 6 35 19 22 18 27 27 19
37 -92 118 -274 360 -271 362 2 2 27 16 57 32 69 37 132 100 163 161 34 70 33
197 -1 268 -35 70 -100 131 -184 171 -97 46 -189 64 -329 64 l-118 0 0 -550z
m299 455 c175 -42 280 -144 281 -274 0 -94 -59 -179 -160 -231 -64 -33 -186
-60 -267 -60 l-73 0 0 290 0 290 78 0 c42 0 106 -7 141 -15z"></path><path d="M2420 1940 l0 -550 118 0 c189 0 291 37 397 144 109 110 155 231 155
407 0 173 -48 299 -155 405 -106 107 -208 144 -397 144 l-118 0 0 -550z m290
450 c183 -53 304 -233 304 -450 0 -276 -183 -470 -445 -470 l-79 0 0 469 0
470 33 3 c50 6 116 -2 187 -22z"></path><path d="M3447 2483 c-4 -3 -7 -251 -7 -550 l0 -543 40 0 40 0 0 550 0 550
-33 0 c-19 0 -37 -3 -40 -7z"></path><path d="M3910 1941 l0 -551 35 0 35 0 0 448 c1 353 3 444 13 431 7 -9 126
-208 266 -443 240 -401 256 -426 283 -426 l28 0 0 546 0 545 -37 -3 -38 -3 -5
-439 -5 -440 -261 440 c-230 386 -265 439 -288 442 l-26 3 0 -550z"></path><path d="M8030 1940 l0 -550 35 0 35 0 0 179 0 178 108 6 c59 4 116 9 127 12
16 4 47 -30 170 -194 157 -208 152 -203 198 -167 17 13 9 26 -120 195 -76 100
-139 185 -140 189 -2 4 22 20 52 35 62 33 132 104 166 168 20 36 24 59 24 129
0 72 -4 92 -27 135 -55 105 -179 189 -324 220 -38 8 -122 15 -186 15 l-118 0
0 -550z m298 455 c170 -40 282 -150 282 -276 0 -57 -39 -137 -88 -180 -74 -66
-212 -108 -349 -109 l-73 0 0 290 0 290 83 0 c45 0 110 -7 145 -15z"></path><path d="M9040 1941 l0 -551 295 0 295 0 0 40 0 40 -255 0 -255 0 -2 508 -3
507 -37 3 -38 3 0 -550z"></path><path d="M9940 1940 l0 -550 35 0 35 0 0 550 0 550 -35 0 -35 0 0 -550z"></path><path d="M10737 2475 c-182 -50 -321 -203 -362 -400 -66 -315 105 -616 383
-674 29 -6 100 -11 157 -11 l105 0 0 39 0 39 -128 3 c-125 4 -130 5 -204 42
-122 60 -194 153 -233 302 -54 210 40 451 212 542 83 44 134 55 251 55 l102
-1 0 39 0 40 -117 -1 c-65 0 -140 -7 -166 -14z"></path><path d="M13655 2476 c-162 -39 -299 -173 -356 -348 -33 -102 -33 -281 0 -378
49 -142 131 -242 249 -303 85 -44 147 -57 277 -57 l105 0 0 39 0 39 -127 4
c-119 3 -133 5 -194 34 -113 54 -185 135 -231 260 -17 48 -21 81 -21 174 0 93
4 126 21 174 43 116 114 201 209 250 75 37 130 48 241 48 l102 -1 0 39 0 40
-112 -1 c-62 0 -135 -6 -163 -13z"></path><path d="M14237 2483 c-4 -3 -7 -251 -7 -550 l0 -543 40 0 40 0 0 285 0 285
250 0 250 0 0 -285 0 -285 35 0 35 0 0 550 0 550 -35 0 -35 0 0 -225 0 -225
-250 0 -250 0 0 225 0 225 -33 0 c-19 0 -37 -3 -40 -7z"></path><path d="M20 265 l0 -265 1070 0 1070 0 0 265 0 265 -1070 0 -1070 0 0 -265z"></path><path d="M3200 265 l0 -265 1070 0 1070 0 0 265 0 265 -1070 0 -1070 0 0 -265z"></path><path d="M6380 265 l0 -265 1070 0 1070 0 0 265 0 265 -1070 0 -1070 0 0 -265z"></path><path d="M9570 265 l0 -265 1070 0 1070 0 0 265 0 265 -1070 0 -1070 0 0 -265z"></path><path d="M12750 265 l0 -265 1070 0 1070 0 0 265 0 265 -1070 0 -1070 0 0
-265z"></path></g></svg>