<svg xmlns="http://www.w3.org/2000/svg" viewBox="0 0 411 100"><rect height="23" width="23" y="76" x="0"></rect><rect height="23" width="23" y="51" x="0"></rect><rect height="23" width="23" y="26" x="0"></rect><rect height="23" width="23" y="1" x="0"></rect><rect height="23" width="23" y="1" x="25"></rect><rect height="23" width="23" y="26" x="50"></rect><path d="m50 1 23 23h-23z"></path><rect height="23" width="23" y="51" x="50"></rect><rect height="23" width="23" y="76" x="50"></rect><path d="m87 76h23v23z"></path><rect height="23" width="23" y="51" x="87"></rect><rect height="23" width="23" y="26" x="87"></rect><path d="m110 1v23h-23z"></path><rect height="23" width="23" y="1" x="112"></rect><rect height="23" width="23" y="26" x="137"></rect><path d="m137 1 23 23h-23z"></path><path d="m137 76h23l-23 23z"></path><rect height="23" width="23" y="76" x="112"></rect><rect height="23" width="23" y="26" x="112"></rect><g stroke-width="3" stroke-linecap="square" fill="none"><path d="m176 2.5h21v46.5l-21 21.4z"></path><path d="m196 78.6v18.9h-18.9z"></path><path d="m214 1.5h21v93.7l-21-22.5z"></path><path d="m338 1.5v96h23v-72.7h25v72.7h23v-72.7l-23-23.3z"></path><path d="m273 2.25-23 23.2v49.4l22.4 23.3h24.2l22.4-23.3h-46.7v-25.2h46.7v-24.2l-22.4-23.3zm0 22.3h24.2v1.94h-24.2z"></path></g></svg>