<svg xmlns="http://www.w3.org/2000/svg" viewBox="0 0 438 199"><path id="neziskovky_logo" d="M 36.00,12.09
           C 24.50,15.06 21.14,21.76 21.00,33.00
             21.00,33.00 21.00,134.00 21.00,134.00
             21.01,141.98 21.63,149.46 29.00,154.28
             34.63,157.95 45.30,157.00 52.00,157.00
             52.00,157.00 101.00,157.00 101.00,157.00
             101.00,157.00 366.00,157.00 366.00,157.00
             368.53,157.00 371.59,156.89 374.00,157.65
             383.13,160.51 393.97,179.94 402.00,185.30
             404.29,186.83 407.22,187.91 410.00,187.34
             417.82,185.72 417.99,176.28 418.00,170.00
             418.00,170.00 418.00,35.00 418.00,35.00
             417.99,27.31 417.22,19.38 409.98,14.85
             403.94,11.07 392.13,12.00 385.00,12.09
             385.00,12.09 331.00,12.09 331.00,12.09
             331.00,12.09 135.00,12.09 135.00,12.09
             135.00,12.09 71.00,12.09 71.00,12.09
             71.00,12.09 36.00,12.09 36.00,12.09 Z
           M 410.00,181.00
           C 402.76,179.45 398.60,172.33 394.00,167.00
             384.15,155.59 380.89,150.02 365.00,150.00
             365.00,150.00 240.00,150.00 240.00,150.00
             240.00,150.00 42.00,150.00 42.00,150.00
             39.13,150.00 35.63,150.21 33.04,148.83
             25.55,144.83 28.00,129.37 28.00,122.00
             28.00,122.00 28.00,33.00 28.00,33.00
             28.01,29.69 27.72,25.97 29.74,23.13
             32.49,19.26 36.70,19.06 41.00,19.00
             41.00,19.00 62.00,19.00 62.00,19.00
             62.00,19.00 174.00,19.00 174.00,19.00
             174.00,19.00 396.00,19.00 396.00,19.00
             400.00,19.01 404.52,18.73 407.77,21.51
             410.86,24.15 410.95,27.26 411.00,31.00
             411.00,31.00 411.00,55.00 411.00,55.00
             411.00,55.00 411.00,138.00 411.00,138.00
             411.00,147.50 411.86,173.35 410.00,181.00 Z
           M 189.00,50.51
           C 173.92,54.00 174.90,73.48 186.00,77.91
             188.76,79.12 193.21,79.40 195.85,77.91
             197.15,77.05 198.86,75.24 197.83,73.41
             196.60,71.68 193.09,73.40 191.00,73.41
             186.13,72.74 183.57,67.45 184.24,63.00
             184.81,59.24 187.13,56.60 191.00,56.23
             193.12,56.03 196.67,57.22 197.83,55.38
             200.54,51.09 191.07,50.37 189.00,50.51 Z
           M 64.00,79.00
           C 66.81,72.94 66.00,68.52 66.00,62.00
             66.00,62.00 75.66,73.98 75.66,73.98
             76.88,75.43 78.77,77.80 80.87,77.80
             84.02,77.80 83.96,73.13 84.00,71.00
             84.05,68.07 84.34,55.22 83.40,53.32
             82.35,51.18 78.16,49.36 78.00,58.00
             78.00,58.00 78.00,67.00 78.00,67.00
             78.00,67.00 68.00,55.06 68.00,55.06
             66.68,53.56 64.58,51.05 62.28,51.74
             59.88,52.47 60.04,56.04 60.00,58.00
             59.94,61.37 59.36,75.16 60.99,77.28
             61.90,78.46 62.79,78.51 64.00,79.00 Z
           M 94.00,79.00
           C 94.00,79.00 96.00,73.00 96.00,73.00
             96.00,73.00 108.00,73.00 108.00,73.00
             108.38,74.71 108.62,76.89 110.37,77.83
             113.58,79.56 113.80,74.91 113.47,73.00
             113.47,73.00 107.53,56.02 107.53,56.02
             106.56,53.87 105.45,51.85 102.91,51.37
             99.45,50.71 98.00,53.31 96.83,56.02
             96.83,56.02 91.70,70.00 91.70,70.00
             91.10,71.73 89.99,74.81 90.66,76.58
             91.31,78.27 92.57,78.42 94.00,79.00 Z
           M 122.60,52.02
           C 119.80,55.92 120.99,64.16 121.00,69.00
             121.00,70.99 120.77,74.81 122.02,76.40
             124.77,79.87 136.75,77.82 139.83,75.35
             145.69,70.54 145.32,59.25 139.83,54.28
             135.83,50.59 127.47,49.95 122.60,52.02 Z
           M 155.00,73.00
           C 155.00,73.00 167.00,73.00 167.00,73.00
             167.00,73.00 169.00,79.00 169.00,79.00
             170.43,78.42 171.69,78.27 172.34,76.58
             173.01,74.81 171.90,71.73 171.30,70.00
             171.30,70.00 166.29,56.02 166.29,56.02
             165.15,53.24 163.58,50.72 160.09,51.37
             157.55,51.85 156.44,53.87 155.47,56.02
             155.47,56.02 149.55,73.00 149.55,73.00
             149.19,74.92 149.43,79.55 152.63,77.83
             154.38,76.89 154.62,74.71 155.00,73.00 Z
           M 222.00,74.00
           C 222.00,74.00 212.00,73.00 212.00,73.00
             212.00,73.00 212.00,67.00 212.00,67.00
             213.70,66.99 217.20,67.13 218.67,66.41
             220.80,65.35 221.21,62.53 215.98,62.03
             215.98,62.03 212.00,62.03 212.00,62.03
             212.00,62.03 212.00,56.00 212.00,56.00
             214.13,56.00 219.57,56.45 220.83,54.46
             223.62,50.06 211.07,50.77 209.23,51.60
             205.65,53.20 206.02,57.72 206.00,61.00
             205.98,64.13 205.49,73.38 207.02,75.69
             208.90,78.51 217.84,78.94 220.41,76.98
             221.62,76.05 221.57,75.23 222.00,74.00 Z
           M 127.00,73.00
           C 127.00,73.00 127.00,56.00 127.00,56.00
             129.75,56.07 132.45,55.98 134.77,57.74
             138.49,60.55 139.26,68.12 135.57,71.26
             133.30,73.19 129.80,72.97 127.00,73.00 Z
           M 103.00,57.00
           C 103.00,57.00 106.00,68.00 106.00,68.00
             106.00,68.00 99.00,68.00 99.00,68.00
             99.42,63.38 99.91,60.59 103.00,57.00 Z
           M 161.00,57.00
           C 161.00,57.00 164.00,68.00 164.00,68.00
             164.00,68.00 158.00,68.00 158.00,68.00
             158.00,68.00 161.00,57.00 161.00,57.00 Z
           M 66.00,102.00
           C 68.84,105.10 77.31,117.37 80.89,117.37
             84.37,117.37 83.98,112.32 84.00,110.00
             84.02,106.97 84.34,95.24 83.40,93.16
             82.11,90.29 78.16,89.34 78.00,98.00
             78.00,98.00 78.00,107.00 78.00,107.00
             75.12,103.86 66.87,92.49 63.96,91.40
             59.99,89.91 60.05,94.50 60.16,97.00
             60.16,97.00 60.16,114.85 60.16,114.85
             61.04,117.35 63.26,118.34 64.83,116.41
             66.04,114.92 65.97,111.84 66.00,110.00
             66.00,110.00 66.00,102.00 66.00,102.00 Z
           M 140.00,118.00
           C 141.53,117.73 142.89,117.79 143.98,116.40
             145.63,114.30 145.05,100.38 145.00,97.00
             144.97,95.15 144.90,89.62 141.43,91.40
             138.61,92.85 139.00,99.29 139.00,102.00
             138.99,109.01 138.73,110.92 140.00,118.00 Z
           M 152.00,113.00
           C 155.76,122.79 171.42,119.46 171.60,110.00
             171.68,105.98 169.37,103.71 165.98,102.10
             164.41,101.36 160.20,100.26 160.20,98.04
             160.20,95.45 166.02,96.11 170.00,95.00
             164.42,84.57 149.53,92.33 153.60,101.79
             155.55,106.34 166.08,107.00 164.45,111.13
             163.30,114.04 157.80,111.48 152.00,113.00 Z
           M 184.00,118.00
           C 184.00,118.00 184.00,106.00 184.00,106.00
             184.00,106.00 195.01,116.38 195.01,116.38
             196.31,117.18 198.80,118.14 199.83,116.38
             201.73,113.15 194.10,108.10 192.91,105.00
             191.52,101.35 195.73,98.76 197.40,96.02
             198.15,94.75 199.20,92.38 197.40,91.40
             194.28,89.68 189.43,97.10 184.00,101.00
             184.00,99.34 184.82,88.92 180.52,91.40
             178.86,92.36 179.03,95.36 179.00,97.00
             178.95,100.38 178.37,114.30 180.02,116.40
             181.11,117.79 182.47,117.73 184.00,118.00 Z
           M 215.00,90.53
           C 197.75,96.07 204.11,122.14 221.00,118.45
             237.06,114.95 234.91,87.44 215.00,90.53 Z
           M 255.00,90.00
           C 255.00,90.00 248.00,108.00 248.00,108.00
             248.00,108.00 240.00,90.00 240.00,90.00
             238.55,90.59 237.31,90.74 236.61,92.42
             235.34,95.48 240.64,106.61 242.00,110.00
             242.82,112.06 244.30,116.65 246.37,117.60
             249.65,119.10 251.31,114.16 252.20,112.00
             253.58,108.65 259.42,95.25 258.34,92.42
             257.69,90.73 256.43,90.58 255.00,90.00 Z
           M 266.00,118.00
           C 266.00,118.00 271.00,118.00 271.00,118.00
             271.00,118.00 271.00,106.00 271.00,106.00
             276.56,110.58 280.20,118.59 288.00,117.00
             285.42,109.43 280.09,107.56 279.62,104.00
             279.19,100.71 283.74,98.02 284.83,95.02
             285.86,92.20 283.92,90.43 281.00,91.88
             281.00,91.88 271.00,101.00 271.00,101.00
             271.00,99.34 271.82,88.92 267.52,91.40
             265.86,92.36 266.03,95.36 266.00,97.00
             266.00,97.00 266.00,118.00 266.00,118.00 Z
           M 301.00,118.00
           C 301.00,118.00 306.00,118.00 306.00,118.00
             306.00,118.00 306.85,106.00 306.85,106.00
             306.85,106.00 315.00,92.00 315.00,92.00
             308.81,90.13 307.04,94.21 304.00,99.00
             302.33,97.03 297.65,89.71 294.61,91.40
             292.56,92.51 293.88,95.56 294.61,97.00
             296.32,100.12 299.07,102.61 300.28,106.00
             301.29,108.84 301.00,114.79 301.00,118.00 Z
           M 341.00,90.56
           C 327.78,95.28 328.11,113.23 340.00,117.85
             346.67,120.45 353.76,116.76 351.83,113.59
             350.51,111.43 346.48,113.06 344.00,112.60
             339.76,111.81 336.82,107.20 337.66,103.00
             339.50,93.85 348.31,96.49 349.78,96.08
             352.40,95.38 352.21,92.83 349.78,91.31
             347.15,89.70 343.85,90.08 341.00,90.56 Z
           M 97.00,113.00
           C 97.00,113.00 97.00,106.97 97.00,106.97
             97.00,106.97 100.99,106.97 100.99,106.97
             102.61,106.80 107.66,105.52 105.12,102.97
             102.51,100.36 98.40,104.34 97.00,96.00
             99.13,96.00 104.57,96.45 105.83,94.46
             108.21,90.70 99.53,90.96 98.00,91.02
             96.27,91.09 94.21,91.10 93.02,92.60
             91.38,94.67 91.94,107.73 92.00,111.00
             92.03,112.62 91.96,115.06 93.02,116.40
             94.21,117.90 96.27,117.91 98.00,117.98
             99.53,118.04 108.21,118.30 105.83,114.54
             104.57,112.55 99.13,113.00 97.00,113.00 Z
           M 125.00,96.00
           C 125.00,96.00 115.17,110.00 115.17,110.00
             114.15,111.52 112.53,113.74 113.30,115.69
             114.23,118.06 117.93,117.96 120.00,118.00
             120.00,118.00 133.00,118.00 133.00,118.00
             131.79,111.11 125.87,113.00 120.00,113.00
             120.00,113.00 129.60,99.99 129.60,99.99
             130.69,98.31 132.74,95.43 132.18,93.31
             131.22,89.67 115.46,90.50 114.17,92.54
             112.12,95.78 118.48,95.97 120.00,96.00
             120.00,96.00 125.00,96.00 125.00,96.00 Z
           M 359.00,91.00
           C 360.18,97.70 365.22,96.00 371.00,96.00
             371.00,96.00 361.39,109.00 361.39,109.00
             360.19,110.70 358.07,113.46 358.74,115.69
             359.73,118.98 371.05,118.21 373.98,117.94
             375.27,117.83 377.05,117.69 377.83,116.46
             379.88,113.22 373.52,113.03 372.00,113.00
             372.00,113.00 366.00,113.00 366.00,113.00
             366.00,113.00 375.78,99.00 375.78,99.00
             375.78,99.00 377.61,92.57 377.61,92.57
             377.61,92.57 371.00,91.00 371.00,91.00
             371.00,91.00 359.00,91.00 359.00,91.00 Z
           M 217.02,95.54
           C 228.82,95.85 226.74,112.29 218.99,113.38
             211.11,114.50 206.65,99.38 217.02,95.54 Z
           M 319.64,114.07
           C 317.76,117.60 320.98,118.55 322.43,117.68
             323.95,116.78 324.12,112.86 319.64,114.07 Z"></path></svg>