<svg xmlns="http://www.w3.org/2000/svg" viewBox="0 0 287.4995 72.390305"><path d="m11.9 36.2c-7.1 2.7-11.9 9.6-11.9 17.5 0 10.3 8.24 18.4 18.7 18.7 12.3 0.354 21.3-15.6 39.7-36.2-18.4-20.6-27.4-36.5-39.7-36.2-10.5 0.31-18.7 8.38-18.7 18.7 0 7.93 4.8 14.8 11.9 17.5"></path><path d="m97.8 3.21c0.102 0 0.206 0.001 0.309 0.005 4.28 0.122 8.24 1.78 11.1 4.66 2.89 2.87 4.48 6.71 4.48 10.8 0 6.52-4.1 11.6-9.82 14.5-1.26 0.63-3.26 1.27-3.26 3 0 1.61 2 2.37 3.26 3 5.72 2.86 9.82 7.98 9.82 14.5 0 4.12-1.59 7.96-4.48 10.8-2.9 2.88-6.86 4.54-11.1 4.66-0.104 0.002-0.206 0.004-0.309 0.004-7.51 0-14.3-8.2-24.6-20.6-3.11-3.76-6.57-7.94-10.5-12.4 3.88-4.42 7.34-8.6 10.5-12.4 10.3-12.4 17.1-20.6 24.6-20.6m0-3.21c-12.1 0-21.1 15.8-39.3 36.2 18.2 20.4 27.2 36.2 39.3 36.2 0.134 0 0.266-0.002 0.401-0.006 10.5-0.301 18.7-8.37 18.7-18.7 0-7.93-4.8-14.8-11.9-17.5 7.09-2.72 11.9-9.56 11.9-17.5 0-10.3-8.24-18.4-18.7-18.7-0.134-0.004-0.269-0.006-0.401-0.006"></path><path d="m139 17h2.12l8.71 10.2v-10.2h3.01v15.6h-2.12l-8.7-10.2v10.2h-3.01v-15.6z"></path><path d="m164 25.6c-0.604-0.804-1.56-1.34-2.68-1.34-1.7 0-2.79 1.41-2.79 2.97 0 1.7 1.23 2.95 2.86 2.95 1.09 0 2.05-0.536 2.61-1.34v-3.24zm2.9 7.03h-2.79v-0.871c-0.894 0.76-1.92 1.1-3.01 1.1-1.61 0-3.12-0.715-4.08-1.83-0.848-0.981-1.38-2.32-1.38-3.79 0-3.19 2.37-5.65 5.31-5.65 1.23 0 2.32 0.402 3.17 1.1v-0.871h2.79v10.8z"></path><path d="m178 25.6c-0.602-0.804-1.56-1.34-2.68-1.34-1.7 0-2.79 1.41-2.79 2.97 0 1.7 1.23 2.95 2.86 2.95 1.09 0 2.05-0.536 2.61-1.34v-3.24zm0.111 7.03v-0.871c-0.892 0.76-1.92 1.1-3.01 1.1-1.61 0-3.13-0.715-4.08-1.83-0.848-0.981-1.38-2.32-1.38-3.79 0-3.19 2.37-5.65 5.31-5.65 1.18 0 2.21 0.335 3.06 1v-5.8h2.9v15.8h-2.79z"></path><path d="m192 25.6c-0.604-0.804-1.56-1.34-2.68-1.34-1.7 0-2.79 1.41-2.79 2.97 0 1.7 1.23 2.95 2.86 2.95 1.09 0 2.05-0.536 2.61-1.34v-3.24zm2.9 7.03h-2.79v-0.871c-0.892 0.76-1.92 1.1-3.01 1.1-1.61 0-3.13-0.715-4.08-1.83-0.848-0.981-1.38-2.32-1.38-3.79 0-3.19 2.37-5.65 5.31-5.65 1.23 0 2.32 0.402 3.17 1.1v-0.871h2.79v10.8z"></path><path d="m208 30.4c-1.27 1.7-2.88 2.43-4.91 2.43-3.35 0-5.8-2.5-5.8-5.63 0-3.15 2.52-5.65 5.82-5.65 1.88 0 3.55 0.871 4.55 2.17l-2.05 1.81c-0.58-0.759-1.45-1.3-2.5-1.3-1.67 0-2.92 1.32-2.92 2.97 0 1.7 1.23 2.95 2.99 2.95 1.18 0 2.12-0.714 2.59-1.43l2.23 1.67z"></path><path d="m217 25.8c-0.0888-0.96-0.96-1.9-2.14-1.9-1.2 0-2.19 0.914-2.32 1.9h4.46zm2.7 5.09c-1.05 1.25-2.77 1.94-4.44 1.94-3.24 0-5.67-2.23-5.67-5.62 0-3.01 2.05-5.65 5.27-5.65 2.99 0 5.11 2.52 5.11 5.53 0 0.291-0.0213 0.581-0.0662 0.826h-7.5c0.156 1.52 1.38 2.57 2.92 2.57 1.23 0 2.21-0.692 2.72-1.25l1.65 1.65z"></path><path d="m142 51.7v7.68h-3.01v-15.6h3.01v6.25l5.92-6.25h3.97l-6.88 7.14 7.7 8.48h-3.86l-6.85-7.68z"></path><path d="m162 52.4c-0.604-0.804-1.56-1.34-2.68-1.34-1.7 0-2.79 1.41-2.79 2.97 0 1.7 1.23 2.95 2.86 2.95 1.09 0 2.05-0.536 2.61-1.34v-3.24zm2.9 7.03h-2.79v-0.871c-0.892 0.76-1.92 1.1-3.01 1.1-1.61 0-3.13-0.715-4.08-1.83-0.848-0.981-1.38-2.32-1.38-3.79 0-3.19 2.37-5.65 5.31-5.65 1.23 0 2.32 0.402 3.17 1.1v-0.871h2.79v10.8z"></path><path d="m175 51.2c-0.201-0.0675-0.625-0.111-1.05-0.111-1.27 0-2.28 0.916-2.63 1.56v6.81h-2.9v-10.8h2.79v1.09c0.648-0.804 1.83-1.32 3.15-1.32 0.424 0 0.67 0.0438 0.981 0.0888l-0.334 2.7z"></path><path d="m180 59.4h-2.9v-15.8h2.9v15.8z"></path><path d="m191 52.4c-0.602-0.804-1.56-1.34-2.68-1.34-1.7 0-2.79 1.41-2.79 2.97 0 1.7 1.23 2.95 2.86 2.95 1.09 0 2.05-0.536 2.61-1.34v-3.24zm2.9 7.03h-2.79v-0.871c-0.894 0.76-1.92 1.1-3.01 1.1-1.61 0-3.13-0.715-4.08-1.83-0.848-0.981-1.38-2.32-1.38-3.79 0-3.19 2.37-5.65 5.31-5.65 1.23 0 2.32 0.402 3.17 1.1v-0.871h2.79v10.8z"></path><path d="m209 54.5c0 1.25-0.134 2.1-0.49 2.77-0.805 1.5-2.46 2.37-4.26 2.37-2.03 0-3.68-1.07-4.4-2.74l2.59-1.3c0.245 0.625 0.804 1.36 1.83 1.36 0.558 0 1.05-0.222 1.36-0.624 0.222-0.291 0.356-0.671 0.356-1.5v-11h3.01v10.7z"></path><path d="m220 52.4c-0.604-0.804-1.56-1.34-2.68-1.34-1.7 0-2.79 1.41-2.79 2.97 0 1.7 1.23 2.95 2.86 2.95 1.09 0 2.05-0.536 2.61-1.34v-3.24zm2.9 7.03h-2.79v-0.871c-0.894 0.76-1.92 1.1-3.01 1.1-1.61 0-3.13-0.715-4.08-1.83-0.848-0.981-1.38-2.32-1.38-3.79 0-3.19 2.37-5.65 5.31-5.65 1.23 0 2.32 0.402 3.17 1.1v-0.871h2.79v10.8z"></path><path d="m226 59.4v-10.8h2.79v0.871c0.826-0.67 1.85-1.1 3.06-1.1 1.5 0 2.86 0.67 3.75 1.74 0.714 0.849 1.12 1.94 1.12 3.8v5.51h-2.9v-5.74c0-1.07-0.245-1.63-0.648-2.03-0.379-0.38-0.96-0.602-1.63-0.602-1.23 0-2.23 0.781-2.63 1.34v7.03h-2.9z"></path><path d="m247 52.6c-0.0888-0.96-0.96-1.9-2.14-1.9-1.2 0-2.19 0.915-2.32 1.9h4.46zm2.7 5.09c-1.05 1.25-2.77 1.94-4.44 1.94-3.24 0-5.67-2.23-5.67-5.62 0-3.01 2.05-5.65 5.27-5.65 2.99 0 5.11 2.52 5.11 5.53 0 0.291-0.0213 0.581-0.065 0.826h-7.5c0.156 1.52 1.38 2.57 2.92 2.57 1.23 0 2.21-0.692 2.72-1.25l1.65 1.65z"></path><path d="m256 46.9-2.23-3.57h2.01l1.78 2.01 1.79-2.01h2.01l-2.23 3.57h-3.12zm6.58 10.3c-1.27 1.7-2.88 2.43-4.91 2.43-3.35 0-5.8-2.5-5.8-5.62 0-3.15 2.52-5.65 5.83-5.65 1.88 0 3.55 0.871 4.55 2.17l-2.05 1.81c-0.58-0.759-1.45-1.3-2.5-1.3-1.67 0-2.92 1.32-2.92 2.97 0 1.7 1.23 2.95 2.99 2.95 1.18 0 2.12-0.714 2.59-1.43l2.23 1.67z"></path><path d="m270 53.5 5.96 5.96h-3.91l-4.58-4.69v4.69h-2.9v-15.8h2.9v8.53l3.73-3.5h4.08l-5.29 4.87z"></path><path d="m285 52.4c-0.604-0.804-1.56-1.34-2.68-1.34-1.7 0-2.79 1.41-2.79 2.97 0 1.7 1.23 2.95 2.86 2.95 1.09 0 2.05-0.536 2.61-1.34v-3.24zm2.9 7.03h-2.79v-0.871c-0.892 0.76-1.92 1.1-3.01 1.1-1.61 0-3.13-0.715-4.08-1.83-0.848-0.981-1.38-2.32-1.38-3.79 0-3.19 2.37-5.65 5.31-5.65 1.23 0 2.32 0.402 3.17 1.1v-0.871h2.79v10.8z"></path></svg>