<svg xmlns="http://www.w3.org/2000/svg" viewBox="0 0 690 290"><path d="m546 164c0 9-2 14-13 14s-13-4.6-13-14 2-12 13-12 13 2.7 13 12zm0 30v89c9 3 18 6 28 6v-89c13-5 32-9 48-9 29 0 42 12 42 48v14c16-18 25-42 25-68-1-58-48-105-106-105s-106 47-106 106c0 35 17 66 43 85v-77zm53 23v72c15-2 28-7 40-14v-32c0-23-4-29-22-29-6 0-12 2-18 3zm-152-102v112c0 42-26 52-68 52s-68-10-68-52v-112h31v108c0 22 12 28 37 28 26 0 37-6 37-29v-108zm-272 26v110h28c36 0 46-9 46-54 0-47-11-55-46-55zm31-25c51 0 76 18 76 80s-25 81-76 81h-61v-161zm-88 0v26h-86v37h62v26h-62v45h86v26h-117v-161z"></path></svg>