<svg xmlns="http://www.w3.org/2000/svg" viewBox="0 0 1e3 310"><path d="m847 131c-30.1 0-54.4 24.3-54.4 54.4v69.7c0 30.1 24.3 54.4 54.4 54.4h98.6c30.1 0 54.4-24.3 54.4-54.4v-69.7c0-30.1-24.3-54.4-54.4-54.4h-98.6zm4.59 23.9h89.5c18.1 0 32.6 14.6 32.6 32.6v65.4c0 18.1-14.6 32.6-32.6 32.6h-89.5c-18.1 0-32.6-14.6-32.6-32.6v-65.4c0-18.1 14.6-32.6 32.6-32.6zm-125-23.9h27v179h-27zm-494-131h77.8v77.8h-77.8zm-206 76.5c-15.1 0-27.2 12.2-27.2 27.5v179c0 15.1 12.1 27.2 27.2 27.2h179c15.1 0 27.2-12.1 27.2-27.2v-179c0-15.1-12.1-27.2-27.2-27.2h-179zm104 25.9h76.2v76.2h-76.2v-76.2zm445 28.6c-30.1 0-54.4 24.3-54.4 54.4v69.7c0 30.1 24.3 54.4 54.4 54.4h98.6c3.31 0 6.53 0.561 9.68 0.00003v-26.2h-17.5c-1.08 0.0891-2.15 0.003-3.26 0.003h-76.4c-21.1 0-38.1-16.3-38.1-36.6v-53c0-20.3 17-36.6 38.1-36.6h76.4c1.11 0 2.18-0.091 3.26-0.002l17.5-0.00002-0.262-26.2c-3.14-0.561-6.1-0.001-9.41-0.001zm-229 0.001c-21.1 0-38.1 17.2-38.1 38.5v24.2c0 20.5 15.8 37.2 35.8 38.4v0.0533h1.18c0.364 0.0103 0.717 0.0533 1.08 0.0533h104c11.8 0.287 21.2 8.82 21.2 19.4v13.4c0 10.8-9.7 19.5-21.8 19.5h-135v25.1h142c24.1 0 43.5-19.8 43.5-44.4v-14.9c0-24.6-19.4-44.4-43.5-44.4h-108c-5.82-2.51-9.89-8.34-9.89-15.2v-16.8c0-9.14 7.28-16.5 16.3-16.5h127v-26.5h-135z"></path></svg>