<svg xmlns="http://www.w3.org/2000/svg" viewBox="0 0 1236 290"><path d="m643 279c47 0 79-35 79-82s-32-79-79-79c-48 0-79 32-79 79s32 82 79 82zm0-18c-36 0-59-27-59-64s23-61 59-61 59 24 59 61-23 64-59 64zm-192-55h83v-18h-83v-52h85v-18h-105v161h20zm-47 11v-99h-46v99c0 13-7 22-21 22s-21-8-21-22v-99h-46v99c0 40 27 62 67 62s67-22 67-62zm-149-19c0-41-27-80-75-80h-61v161h61c49 0 75-39 75-81zm-91 40v-81h16c19 0 29 14 29 41s-10 40-29 40zm-63 2h-56v-22h54v-40h-54v-20h56v-40h-101v161h101zm510-172h62v16h-62zm625 211v-161h-29l-50 121-50-121h-29v161h20v-132l54 132h8l55-132v132zm-199-161h-20v95c0 29-15 48-45 48s-46-19-46-48v-95h-20v96c0 40 21 65 65 65s66-25 66-65zm-169 49c0-25-21-48-50-49h-64v161h20v-64h32l41 64h24l-43-66c22 0 40-21 40-46zm-95 30v-61h42c20 0 35 12 35 31 0 19-15 30-35 30z"></path></svg>