<svg xmlns="http://www.w3.org/2000/svg" viewBox="0 0 295 295"><path id="MHMP" d="M 0.00,0.00
           C 0.00,0.00 0.00,295.00 0.00,295.00
             0.00,295.00 145.00,295.00 145.00,295.00
             145.00,295.00 145.00,0.00 145.00,0.00
             145.00,0.00 0.00,0.00 0.00,0.00 Z
           M 150.00,0.00
           C 150.00,0.00 150.00,295.00 150.00,295.00
             150.00,295.00 295.00,295.00 295.00,295.00
             295.00,295.00 295.00,0.00 295.00,0.00
             295.00,0.00 150.00,0.00 150.00,0.00 Z
           M 35.00,52.00
           C 35.00,52.00 35.00,65.00 35.00,65.00
             35.00,65.00 28.00,65.00 28.00,65.00
             28.00,65.00 28.00,29.00 28.00,29.00
             34.00,27.92 42.66,26.73 47.87,30.70
             53.84,35.24 52.95,45.11 46.95,49.28
             43.50,51.67 39.04,51.91 35.00,52.00 Z
           M 82.00,47.00
           C 86.38,52.55 87.47,58.20 89.00,65.00
             87.09,64.98 84.16,65.16 82.56,63.98
             80.48,62.44 80.24,58.50 79.15,56.02
             77.32,51.86 75.20,50.90 71.00,50.00
             71.00,50.00 71.00,65.00 71.00,65.00
             71.00,65.00 64.00,65.00 64.00,65.00
             64.00,65.00 64.00,29.00 64.00,29.00
             69.65,27.99 77.78,26.83 82.89,30.09
             89.57,34.33 88.86,43.34 82.00,47.00 Z
           M 131.00,65.00
           C 128.56,64.97 125.70,65.25 123.81,63.40
             120.83,60.48 121.62,54.11 114.99,54.11
             107.99,54.11 108.82,60.70 106.16,63.40
             104.33,65.26 101.39,64.97 99.00,65.00
             99.00,65.00 111.00,28.00 111.00,28.00
             111.00,28.00 118.30,29.60 118.30,29.60
             118.30,29.60 122.67,40.00 122.67,40.00
             122.67,40.00 131.00,65.00 131.00,65.00 Z
           M 173.00,28.00
           C 173.00,28.00 173.00,43.00 173.00,43.00
             173.00,43.00 188.00,43.00 188.00,43.00
             188.00,43.00 188.00,28.00 188.00,28.00
             188.00,28.00 193.98,29.60 193.98,29.60
             193.98,29.60 195.00,40.00 195.00,40.00
             195.00,40.00 195.00,65.00 195.00,65.00
             195.00,65.00 188.00,65.00 188.00,65.00
             188.00,65.00 188.00,49.00 188.00,49.00
             188.00,49.00 173.00,49.00 173.00,49.00
             173.00,49.00 173.00,65.00 173.00,65.00
             173.00,65.00 166.00,65.00 166.00,65.00
             166.00,65.00 166.00,37.00 166.00,37.00
             166.00,37.00 167.02,29.60 167.02,29.60
             167.02,29.60 173.00,28.00 173.00,28.00 Z
           M 239.00,65.00
           C 236.61,64.97 233.67,65.26 231.84,63.40
             229.18,60.69 230.02,54.11 223.00,54.11
             215.98,54.11 216.82,60.69 214.16,63.40
             212.33,65.26 209.39,64.97 207.00,65.00
             207.00,65.00 216.42,37.00 216.42,37.00
             217.54,34.01 218.67,29.19 222.12,28.33
             227.37,27.02 228.42,32.27 229.67,36.00
             229.67,36.00 239.00,65.00 239.00,65.00 Z
           M 35.00,34.00
           C 35.00,34.00 35.00,46.00 35.00,46.00
             48.36,45.33 45.30,37.06 41.85,35.02
             39.93,33.88 37.17,34.03 35.00,34.00 Z
           M 71.00,34.00
           C 71.00,34.00 71.00,45.00 71.00,45.00
             73.52,44.77 76.49,44.56 78.57,42.91
             81.79,40.35 80.40,36.05 76.89,34.60
             75.28,33.93 72.75,34.02 71.00,34.00 Z
           M 114.00,39.00
           C 114.00,39.00 111.00,49.00 111.00,49.00
             111.00,49.00 118.00,49.00 118.00,49.00
             117.33,44.70 116.90,42.36 114.00,39.00 Z
           M 223.00,39.00
           C 223.00,39.00 220.00,49.00 220.00,49.00
             220.00,49.00 227.00,49.00 227.00,49.00
             227.00,49.00 223.00,39.00 223.00,39.00 Z
           M 35.00,116.00
           C 35.00,116.00 35.00,130.00 35.00,130.00
             35.00,130.00 28.00,130.00 28.00,130.00
             28.00,130.00 28.00,100.00 28.00,100.00
             28.03,98.41 27.93,96.05 28.99,94.74
             30.48,92.90 33.85,93.03 36.00,93.00
             41.74,92.93 47.76,93.25 50.83,99.04
             56.37,109.50 44.75,118.32 35.00,116.00 Z
           M 82.00,112.00
           C 86.38,117.55 87.47,123.20 89.00,130.00
             87.09,129.98 84.16,130.16 82.56,128.98
             77.70,125.39 82.76,116.38 71.00,115.00
             71.00,115.00 71.00,130.00 71.00,130.00
             71.00,130.00 64.00,130.00 64.00,130.00
             64.00,130.00 64.00,101.00 64.00,101.00
             64.01,98.86 63.71,95.64 65.57,94.17
             67.12,92.96 70.11,93.03 72.00,93.00
             76.15,92.95 80.38,92.84 83.78,95.65
             89.56,100.43 88.49,108.54 82.00,112.00 Z
           M 119.00,93.00
           C 119.00,93.00 131.00,130.00 131.00,130.00
             131.00,130.00 123.84,128.40 123.84,128.40
             123.84,128.40 118.73,120.02 118.73,120.02
             118.73,120.02 109.00,119.00 109.00,119.00
             107.73,127.24 107.36,129.90 99.00,130.00
             99.00,130.00 111.00,93.00 111.00,93.00
             111.00,93.00 119.00,93.00 119.00,93.00 Z
           M 194.00,94.00
           C 194.00,94.00 193.00,101.00 193.00,101.00
             189.66,99.92 186.59,98.80 183.00,99.20
             173.18,100.30 167.88,112.02 174.43,119.89
             178.25,124.49 182.60,124.27 188.00,124.00
             188.00,124.00 188.00,116.00 188.00,116.00
             182.53,115.81 181.47,115.67 181.00,110.00
             181.00,110.00 195.00,110.00 195.00,110.00
             195.00,110.00 195.00,129.00 195.00,129.00
             187.64,130.32 178.86,131.95 172.04,127.77
             161.89,121.55 161.83,103.87 171.09,96.80
             177.69,91.76 186.33,92.63 194.00,94.00 Z
           M 216.00,93.00
           C 216.00,98.47 215.58,112.48 216.68,117.00
             217.48,120.26 219.17,123.95 223.01,124.23
             227.32,124.54 229.44,120.57 230.32,117.00
             231.42,112.49 231.00,98.46 231.00,93.00
             231.00,93.00 237.00,93.00 237.00,93.00
             237.00,93.00 237.00,114.00 237.00,114.00
             236.99,118.34 237.23,122.19 234.35,125.85
             229.20,132.29 217.79,132.59 212.65,125.85
             210.00,122.44 210.02,119.11 210.00,115.00
             210.00,115.00 210.00,93.00 210.00,93.00
             210.00,93.00 216.00,93.00 216.00,93.00 Z
           M 274.00,93.00
           C 274.00,93.00 274.00,99.00 274.00,99.00
             274.00,99.00 260.00,99.00 260.00,99.00
             260.00,99.00 260.00,108.00 260.00,108.00
             260.00,108.00 274.00,108.00 274.00,108.00
             274.00,108.00 274.00,114.00 274.00,114.00
             274.00,114.00 260.00,114.00 260.00,114.00
             260.00,114.00 260.00,124.00 260.00,124.00
             260.00,124.00 275.00,124.00 275.00,124.00
             275.00,124.00 275.00,130.00 275.00,130.00
             275.00,130.00 253.00,130.00 253.00,130.00
             253.00,130.00 253.00,93.00 253.00,93.00
             253.00,93.00 274.00,93.00 274.00,93.00 Z
           M 35.00,99.00
           C 35.00,99.00 35.00,111.00 35.00,111.00
             47.93,110.36 45.26,102.03 42.57,100.17
             40.64,98.85 37.27,99.02 35.00,99.00 Z
           M 71.00,99.00
           C 71.00,99.00 71.00,109.00 71.00,109.00
             73.12,108.97 75.91,109.12 77.77,107.98
             81.20,105.87 81.24,101.34 76.94,99.60
             75.31,98.94 72.77,99.02 71.00,99.00 Z
           M 114.00,104.00
           C 114.00,104.00 112.00,113.00 112.00,113.00
             112.00,113.00 118.00,113.00 118.00,113.00
             118.00,113.00 114.00,104.00 114.00,104.00 Z
           M 35.00,181.00
           C 35.00,181.00 35.00,195.00 35.00,195.00
             35.00,195.00 28.00,195.00 28.00,195.00
             28.00,195.00 28.00,166.00 28.00,166.00
             28.01,164.18 27.85,161.08 29.02,159.60
             30.65,157.54 35.57,157.98 38.00,158.00
             53.33,158.18 54.47,170.51 49.35,176.79
             47.93,178.53 46.13,179.67 44.00,180.35
             41.46,181.16 37.71,181.00 35.00,181.00 Z
           M 82.00,177.00
           C 86.38,182.55 87.47,188.20 89.00,195.00
             87.12,194.98 84.26,195.18 82.70,194.01
             77.73,190.26 82.66,181.36 71.00,180.00
             71.00,180.00 71.00,195.00 71.00,195.00
             71.00,195.00 64.00,195.00 64.00,195.00
             64.00,195.00 64.00,167.00 64.00,167.00
             64.00,165.01 63.77,161.19 65.02,159.60
             66.36,157.90 69.05,158.04 71.00,158.00
             74.80,157.94 79.65,157.72 82.94,159.85
             89.83,164.32 88.70,172.94 82.00,177.00 Z
           M 119.00,158.00
           C 119.00,158.00 131.00,195.00 131.00,195.00
             131.00,195.00 123.84,193.40 123.84,193.40
             123.84,193.40 118.73,185.02 118.73,185.02
             118.73,185.02 109.00,184.00 109.00,184.00
             107.73,192.24 107.36,194.90 99.00,195.00
             99.00,195.00 107.33,169.00 107.33,169.00
             107.33,169.00 111.70,158.99 111.70,158.99
             111.70,158.99 119.00,158.00 119.00,158.00 Z
           M 194.00,159.00
           C 194.00,159.00 193.00,165.00 193.00,165.00
             187.75,164.31 181.88,162.85 177.10,166.01
             170.15,170.60 169.67,181.17 176.19,186.35
             179.82,189.24 183.66,188.99 188.00,189.00
             188.00,189.00 188.00,180.00 188.00,180.00
             188.00,180.00 181.00,180.00 181.00,180.00
             181.60,172.83 183.88,174.00 195.00,174.00
             195.00,174.00 195.00,185.00 195.00,185.00
             195.00,187.12 195.23,190.74 193.98,192.49
             191.46,196.02 178.68,195.48 175.00,193.99
             162.78,189.04 160.68,170.90 170.18,162.39
             172.89,159.96 176.39,158.46 180.00,158.10
             184.72,157.64 189.37,158.17 194.00,159.00 Z
           M 239.00,195.00
           C 236.61,194.97 233.67,195.26 231.84,193.40
             229.18,190.69 230.02,184.11 223.00,184.11
             215.98,184.11 216.82,190.69 214.16,193.40
             212.33,195.26 209.39,194.97 207.00,195.00
             207.00,195.00 219.00,158.00 219.00,158.00
             219.00,158.00 226.30,158.99 226.30,158.99
             226.30,158.99 230.67,169.00 230.67,169.00
             230.67,169.00 239.00,195.00 239.00,195.00 Z
           M 35.00,164.00
           C 35.00,164.00 35.00,175.00 35.00,175.00
             37.27,174.98 40.64,175.15 42.63,173.83
             45.37,171.90 45.60,167.12 42.63,165.17
             40.72,163.86 37.30,164.02 35.00,164.00 Z
           M 71.00,164.00
           C 71.00,164.00 71.00,174.00 71.00,174.00
             82.85,173.85 81.20,167.02 78.57,165.17
             76.68,163.85 73.24,164.02 71.00,164.00 Z
           M 114.00,169.00
           C 114.00,169.00 112.00,178.00 112.00,178.00
             112.00,178.00 118.00,178.00 118.00,178.00
             118.00,178.00 114.00,169.00 114.00,169.00 Z
           M 222.00,169.00
           C 222.00,169.00 220.00,178.00 220.00,178.00
             220.00,178.00 226.00,178.00 226.00,178.00
             225.41,174.20 225.19,171.44 222.00,169.00 Z
           M 193.17,230.00
           C 187.70,229.30 181.93,227.85 177.09,231.01
             170.00,235.63 169.72,245.92 176.21,251.20
             179.96,254.24 183.50,253.99 188.00,254.00
             188.00,254.00 188.00,245.00 188.00,245.00
             188.00,245.00 181.00,245.00 181.00,245.00
             181.60,237.83 183.88,239.00 195.00,239.00
             195.00,242.80 195.97,255.75 193.40,258.07
             191.55,259.73 187.39,259.93 185.00,259.99
             173.37,260.25 165.24,255.54 164.19,243.00
             163.41,233.70 168.96,225.60 178.00,223.25
             181.32,222.39 191.75,221.40 193.17,225.43
             193.91,226.89 193.31,228.56 193.17,230.00 Z
           M 35.00,246.00
           C 35.00,246.00 35.00,260.00 35.00,260.00
             35.00,260.00 28.00,260.00 28.00,260.00
             28.00,260.00 28.00,231.00 28.00,231.00
             28.01,229.18 27.85,226.08 29.02,224.60
             30.49,222.75 33.87,223.01 36.00,223.00
             39.11,222.98 43.19,222.73 45.98,224.17
             52.37,227.47 53.93,236.28 49.35,241.66
             47.94,243.32 46.04,244.45 44.00,245.15
             41.14,246.13 37.98,245.99 35.00,246.00 Z
           M 89.00,260.00
           C 89.00,260.00 82.70,259.01 82.70,259.01
             82.70,259.01 75.87,246.02 75.87,246.02
             75.87,246.02 71.00,245.00 71.00,245.00
             71.00,245.00 71.00,260.00 71.00,260.00
             71.00,260.00 64.00,260.00 64.00,260.00
             64.00,260.00 64.00,223.00 64.00,223.00
             69.48,223.00 79.63,221.85 83.86,225.43
             91.66,232.05 84.53,239.35 84.53,243.00
             84.53,243.00 89.00,260.00 89.00,260.00 Z
           M 119.00,223.00
           C 119.00,223.00 131.00,260.00 131.00,260.00
             131.00,260.00 123.84,258.40 123.84,258.40
             123.84,258.40 118.73,250.02 118.73,250.02
             118.73,250.02 109.00,249.00 109.00,249.00
             107.73,257.24 107.36,259.90 99.00,260.00
             99.00,260.00 107.33,234.00 107.33,234.00
             107.33,234.00 111.70,223.99 111.70,223.99
             111.70,223.99 119.00,223.00 119.00,223.00 Z
           M 35.00,239.84
           C 36.40,239.98 38.67,240.03 39.98,239.84
             41.02,239.41 41.85,239.11 42.69,238.40
             49.45,232.69 38.45,224.60 35.60,230.32
             34.77,231.99 35.00,237.88 35.00,239.84 Z
           M 71.00,228.00
           C 71.00,228.00 71.00,239.00 71.00,239.00
             83.13,238.69 81.39,231.48 77.77,229.31
             75.77,228.11 73.26,228.11 71.00,228.00 Z
           M 114.00,233.00
           C 114.00,233.00 111.00,243.00 111.00,243.00
             111.00,243.00 118.00,243.00 118.00,243.00
             118.00,243.00 114.00,233.00 114.00,233.00 Z"></path></svg>