<svg xmlns="http://www.w3.org/2000/svg" viewBox="0 0 1030 895"><g transform="translate(0 895) scale(0.1 -0.1)"><path d="m4705 8939c-1455-109-2756-912-3513-2166-74-123-202-362-202-377 0-3 71-6 159-6h159l67 120c637 1143 1792 1934 3080 2109 1433 195 2830-341 3774-1448 160-188 359-478 476-693l47-88h159c87 0 159 2 159 5 0 11-100 204-155 301-85 149-272 424-378 556-866 1085-2160 1706-3532 1697-104-1-239-6-300-10z"></path><path d="m9153 5770c-485-41-762-225-837-557-21-94-21-289 0-391 8-42 33-113 54-158 82-170 209-264 438-326 67-18 121-21 432-28 275-7 369-12 415-25 166-44 255-129 289-275 41-173 0-347-107-454-65-66-148-109-265-139-78-20-112-22-322-22-296 0-507 29-741 101-46 14-92 28-101 31-17 5-18-7-18-150v-156l42-12c87-23 287-58 428-75 179-22 597-25 710-6 206 34 390 105 490 188 107 89 182 211 217 349 24 98 24 342 0 440-54 214-200 370-412 439-131 42-184 48-540 56-376 8-406 12-505 66-64 35-115 90-149 163-24 52-26 66-26 186 0 157 19 215 95 299 125 136 353 195 705 183 245-9 441-41 653-107 55-16 102-30 106-30 3 0 6 69 6 154v154l-112 26c-297 68-680 98-945 76z"></path><path d="m0 4445v-1315h170 170v1315 1315h-170-170v-1315z"></path><path d="m1020 4446v-1316h170 170v1176 1176l438-4c383-4 444-7 492-22 150-48 224-143 237-306 20-242-140-438-436-539-79-27-258-71-288-71-23 0-23-2-23-118v-117l416-588 416-587h225 225l-24 33c-14 17-213 291-443 607s-422 580-426 586c-6 7 28 25 101 54 257 100 452 248 545 414 70 126 93 301 60 470-38 200-168 346-363 410-148 48-153 49-839 53l-653 4v-1315z"></path><path d="m3440 4445v-1315h875 876l-3 138-3 137-702 3-703 2v455 455h655 655v140 140h-655-655v440 440h690 690v140 140h-860-860v-1315z"></path><path d="m6055 4464c-302-713-553-1305-557-1315-7-18 0-19 170-19h177l464 1138c256 625 467 1141 469 1146 3 6 492-1165 492-1180 0-2-149-5-332-6l-331-3-39-115-44-132c-5-17 20-18 424-18 332 0 432-3 439-12 5-7 84-194 174-415l164-403h188c103 0 187 3 186 8 0 4-251 594-557 1312l-558 1305-189 3-190 2-550-1296z"></path><path d="m1091 2353c583-1087 1630-1906 2825-2211 1718-439 3513 165 4621 1556 153 192 360 508 453 691l30 61h-164-163l-48-82c-316-546-795-1048-1337-1402-1422-927-3284-896-4668 77-495 348-936 825-1225 1327l-47 80h-165-165l53-97z"></path></g></svg>