<svg xmlns="http://www.w3.org/2000/svg" viewBox="0 0 187 90"><path id="ucitel_nazivo_logo" d="M 53.00,8.00
           C 53.00,8.00 51.00,8.00 51.00,8.00
             48.99,4.08 48.32,3.71 44.00,3.00
             44.69,5.07 44.99,6.11 46.25,7.98
             52.76,17.66 58.30,9.06 61.00,2.00
             55.89,2.40 55.06,3.33 53.00,8.00 Z
           M 153.00,2.00
           C 153.00,2.00 153.00,7.00 153.00,7.00
             153.00,7.00 161.00,7.00 161.00,7.00
             161.00,7.00 161.00,34.00 161.00,34.00
             161.01,38.38 160.84,44.24 164.42,47.44
             167.70,50.38 172.07,49.48 176.00,49.00
             176.00,49.00 176.00,45.00 176.00,45.00
             172.84,44.89 169.86,44.96 168.02,41.85
             166.59,39.44 167.00,32.98 167.00,30.00
             167.00,30.00 167.00,2.00 167.00,2.00
             167.00,2.00 153.00,2.00 153.00,2.00 Z
           M 3.00,16.00
           C 3.00,22.81 1.56,39.87 5.51,44.89
             10.25,50.92 22.37,51.61 27.43,45.78
             30.04,42.77 29.98,39.73 30.00,36.00
             30.00,36.00 30.00,16.00 30.00,16.00
             30.00,16.00 25.00,16.00 25.00,16.00
             25.00,16.00 25.00,33.00 25.00,33.00
             24.81,46.65 14.43,46.74 10.60,41.77
             8.01,38.43 9.08,27.49 9.00,23.00
             8.89,17.52 8.56,16.46 3.00,16.00 Z
           M 66.00,38.00
           C 66.00,38.00 60.00,38.00 60.00,38.00
             57.97,44.73 51.38,47.35 46.43,41.77
             42.69,37.57 41.99,22.70 51.00,20.98
             59.41,19.38 56.95,27.25 66.00,28.00
             64.55,12.58 47.59,14.34 42.23,19.39
             38.02,23.35 38.97,29.72 39.00,35.00
             39.02,39.30 38.99,43.23 42.39,46.43
             48.07,51.78 64.35,52.57 66.00,38.00 Z
           M 70.00,16.00
           C 70.00,16.00 70.00,21.00 70.00,21.00
             70.00,21.00 78.00,21.00 78.00,21.00
             78.00,29.22 74.97,48.11 86.00,49.57
             87.93,49.82 90.09,49.32 92.00,49.00
             92.00,49.00 92.00,45.00 92.00,45.00
             88.89,44.75 86.76,44.62 84.74,41.85
             81.88,37.95 83.00,21.49 83.00,16.00
             83.00,16.00 70.00,16.00 70.00,16.00 Z
           M 93.00,16.00
           C 93.00,16.00 93.00,21.00 93.00,21.00
             93.00,21.00 102.00,21.00 102.00,21.00
             102.00,26.21 101.14,41.97 103.45,45.78
             105.05,48.40 108.08,49.39 111.00,49.61
             113.13,49.77 114.93,49.35 117.00,49.00
             117.00,49.00 117.00,45.00 117.00,45.00
             104.72,44.68 107.00,39.19 107.00,21.00
             107.00,21.00 117.00,21.00 117.00,21.00
             117.00,21.00 117.00,16.00 117.00,16.00
             117.00,16.00 93.00,16.00 93.00,16.00 Z
           M 151.00,39.00
           C 142.21,39.73 141.51,47.75 134.04,43.82
             132.03,42.77 130.57,41.09 129.74,38.98
             129.10,37.37 129.10,35.69 129.00,34.00
             129.00,34.00 151.00,34.00 151.00,34.00
             151.00,29.95 151.45,24.59 149.15,21.10
             144.77,14.48 131.58,14.16 126.65,20.21
             123.29,24.34 123.93,30.94 124.00,36.00
             124.06,40.10 124.35,43.41 127.53,46.43
             132.18,50.84 148.23,53.51 151.00,39.00 Z
           M 146.00,30.00
           C 146.00,30.00 129.00,30.00 129.00,30.00
             129.19,28.02 129.28,25.99 130.31,24.22
             132.95,19.72 144.58,16.78 146.00,30.00 Z
           M 2.00,87.00
           C 2.00,87.00 11.21,87.00 11.21,87.00
             11.21,87.00 11.21,67.04 11.21,67.04
             12.25,64.22 14.75,61.78 17.90,62.71
             20.73,63.54 21.60,66.39 21.95,69.00
             21.95,69.00 21.95,87.00 21.95,87.00
             21.95,87.00 31.00,87.00 31.00,87.00
             31.00,87.00 31.00,67.00 31.00,67.00
             30.76,49.56 10.37,51.19 4.65,58.21
             0.51,63.29 2.00,80.10 2.00,87.00 Z
           M 35.00,64.86
           C 35.00,64.86 42.83,64.86 42.83,64.86
             46.62,63.87 52.12,58.18 53.00,69.00
             50.24,67.72 49.13,67.16 46.00,67.06
             29.25,66.49 29.99,89.35 47.00,87.89
             50.79,87.57 52.37,86.59 55.00,84.00
             57.63,86.45 64.95,90.67 67.40,85.69
             68.08,84.31 67.98,81.55 68.00,80.00
             58.87,75.31 65.55,67.22 61.83,60.02
             57.83,52.27 45.11,51.18 39.22,56.43
             36.54,58.81 35.79,61.68 35.00,64.86 Z
           M 168.00,53.47
           C 164.79,54.25 161.98,54.97 159.54,57.53
             154.84,62.81 154.66,78.42 159.54,83.78
             163.05,87.85 169.90,88.59 175.00,87.67
             189.48,85.07 187.32,64.75 183.30,59.04
             179.65,53.87 173.90,52.77 168.00,53.47 Z
           M 70.00,54.00
           C 70.00,54.00 70.00,62.00 70.00,62.00
             70.00,62.00 85.00,62.00 85.00,62.00
             85.00,62.00 70.60,79.00 70.60,79.00
             70.60,79.00 70.00,87.00 70.00,87.00
             70.00,87.00 97.00,87.00 97.00,87.00
             97.00,87.00 97.00,79.00 97.00,79.00
             97.00,79.00 82.00,79.00 82.00,79.00
             82.00,79.00 96.40,62.00 96.40,62.00
             96.40,62.00 97.00,54.00 97.00,54.00
             90.29,54.01 88.42,53.32 84.00,59.00
             78.12,53.59 77.67,54.01 70.00,54.00 Z
           M 100.00,54.00
           C 100.00,54.00 100.00,62.00 100.00,62.00
             100.00,62.00 107.00,62.00 107.00,62.00
             107.00,70.01 104.85,83.55 114.00,87.11
             116.79,88.19 120.99,88.00 124.00,88.00
             124.00,88.00 124.00,79.00 124.00,79.00
             124.00,79.00 118.60,77.53 118.60,77.53
             118.60,77.53 117.00,71.00 117.00,71.00
             117.00,71.00 117.00,54.00 117.00,54.00
             117.00,54.00 100.00,54.00 100.00,54.00 Z
           M 123.00,54.00
           C 123.00,54.00 133.00,87.00 133.00,87.00
             133.00,87.00 144.49,85.98 144.49,85.98
             144.49,85.98 148.42,78.00 148.42,78.00
             148.42,78.00 156.00,54.00 156.00,54.00
             153.69,54.00 149.39,53.70 147.51,55.02
             144.73,56.97 141.13,71.14 140.00,75.00
             140.00,75.00 135.42,62.00 135.42,62.00
             135.42,62.00 132.30,54.99 132.30,54.99
             132.30,54.99 123.00,54.00 123.00,54.00 Z
           M 169.14,62.62
           C 179.60,61.08 176.62,77.69 172.78,79.22
             164.63,82.45 165.10,67.20 167.02,64.31
             167.95,62.92 168.63,62.97 169.14,62.62 Z
           M 53.00,75.00
           C 51.87,81.55 45.13,81.55 44.00,75.00
             44.00,75.00 53.00,75.00 53.00,75.00 Z"></path></svg>