<svg xmlns="http://www.w3.org/2000/svg" viewBox="0 0 567 87"><path id="otevreno_logo" d="M 375.00,11.00
           C 375.00,11.00 369.00,5.06 369.00,5.06
             362.11,-1.19 359.16,3.52 359.58,7.00
             360.13,11.64 368.34,20.06 373.00,20.76
             379.42,21.73 383.37,16.48 386.90,12.00
             388.43,10.06 390.45,7.73 389.87,5.06
             389.61,3.87 388.73,2.65 387.65,2.08
             383.25,-0.26 377.15,7.99 375.00,11.00 Z
           M 19.00,84.00
           C 19.00,84.00 46.00,82.01 46.00,82.01
             50.95,81.90 56.06,81.47 59.00,86.00
             59.00,86.00 69.00,86.00 69.00,86.00
             71.79,81.56 75.16,82.00 80.00,82.00
             80.00,82.00 109.00,84.00 109.00,84.00
             109.00,84.00 116.41,38.00 116.41,38.00
             116.98,34.60 119.65,24.20 117.99,21.61
             116.57,19.38 111.44,17.07 109.00,16.00
             99.75,11.96 95.26,10.02 85.00,10.00
             81.57,9.99 76.20,9.79 73.00,10.53
             69.39,11.36 65.83,13.75 63.42,13.58
             60.53,13.38 58.36,10.13 48.00,10.00
             35.38,9.86 31.83,10.33 20.00,15.43
             17.44,16.53 11.49,19.34 10.00,21.61
             8.22,24.31 10.64,35.49 11.25,39.00
             11.25,39.00 19.00,84.00 19.00,84.00 Z
           M 220.00,37.00
           C 220.00,37.00 220.00,62.00 220.00,62.00
             220.01,66.90 220.03,72.62 223.65,76.44
             229.97,83.12 246.67,79.27 248.77,73.89
             249.71,71.47 247.94,68.25 247.00,66.00
             243.80,66.91 238.02,70.13 235.15,69.16
             231.98,68.10 232.06,64.74 232.00,62.00
             232.00,62.00 232.00,37.00 232.00,37.00
             234.55,37.00 243.79,37.32 245.57,36.43
             248.59,34.91 248.59,29.09 245.57,27.57
             243.79,26.68 234.55,27.00 232.00,27.00
             232.00,24.61 232.26,18.13 231.40,16.23
             230.06,13.25 226.05,12.48 223.74,14.74
             221.27,17.15 222.46,22.40 220.07,25.70
             217.89,28.70 213.29,28.47 213.29,32.99
             213.29,37.05 217.04,36.90 220.00,37.00 Z
           M 59.00,66.00
           C 47.15,62.57 39.52,64.23 28.00,68.00
             27.81,59.20 24.92,46.88 23.43,38.00
             22.99,35.37 21.56,27.57 22.58,25.42
             23.81,22.78 30.28,21.18 33.00,20.35
             39.03,18.49 53.76,16.60 58.01,22.64
             59.25,24.41 59.00,27.88 59.00,30.00
             59.00,30.00 59.00,66.00 59.00,66.00 Z
           M 106.00,24.00
           C 106.00,24.00 99.00,67.00 99.00,67.00
             99.00,67.00 82.00,64.09 82.00,64.09
             82.00,64.09 69.00,65.00 69.00,65.00
             69.00,65.00 69.00,28.00 69.00,28.00
             69.15,20.06 72.71,19.23 80.00,18.67
             90.64,17.85 96.41,21.42 106.00,24.00 Z
           M 175.00,26.52
           C 162.85,29.86 156.16,38.43 156.00,51.00
             155.97,54.14 155.85,59.05 156.53,62.00
             159.10,73.14 168.97,79.90 180.00,80.81
             205.50,82.92 217.31,48.82 200.67,32.47
             193.90,25.81 183.92,25.10 175.00,26.52 Z
           M 264.00,56.00
           C 272.59,58.28 284.53,59.71 291.93,53.61
             298.91,47.89 299.03,35.58 291.93,29.94
             286.72,25.84 282.23,25.93 276.00,26.00
             246.17,26.35 244.51,71.30 269.00,79.11
             277.16,81.71 282.97,81.17 291.00,78.24
             294.98,76.78 298.25,73.75 296.26,69.15
             293.79,63.45 287.87,68.73 283.00,69.66
             272.87,71.59 265.11,66.40 264.00,56.00 Z
           M 372.00,35.00
           C 370.22,31.26 368.47,26.01 363.14,27.33
             358.60,28.46 359.97,36.55 360.42,40.00
             360.42,40.00 361.00,79.00 361.00,79.00
             363.36,79.00 369.51,79.42 371.26,78.01
             373.25,76.40 372.99,72.33 373.00,70.00
             373.03,63.07 371.56,48.42 375.51,43.02
             380.47,36.23 384.82,38.83 387.88,38.29
             392.10,37.53 393.20,30.48 390.40,27.74
             387.76,25.15 375.96,23.42 372.00,35.00 Z
           M 406.00,56.00
           C 417.03,58.92 438.04,60.10 438.96,44.00
             439.66,31.77 432.79,26.14 421.00,26.00
             416.09,25.95 412.61,25.83 408.00,27.90
             397.19,32.76 393.59,43.85 394.04,55.00
             394.61,69.18 403.69,79.46 418.00,80.82
             423.53,81.35 438.42,79.06 438.75,71.99
             439.21,61.91 428.45,69.23 424.00,69.81
             413.95,71.13 406.97,66.29 406.00,56.00 Z
           M 462.00,35.00
           C 461.42,33.09 460.71,30.00 459.28,28.60
             457.25,26.61 451.51,26.00 450.84,30.13
             450.84,30.13 450.84,40.00 450.84,40.00
             450.84,40.00 450.84,69.00 450.84,69.00
             451.00,71.26 450.75,75.62 452.17,77.41
             453.88,79.59 460.28,79.54 461.98,77.41
             463.23,75.81 463.00,71.99 463.00,70.00
             463.02,62.14 461.71,49.61 465.99,43.04
             469.72,37.32 477.42,33.51 482.44,40.11
             486.34,45.23 484.99,63.07 485.00,70.00
             485.00,71.99 484.77,75.81 486.02,77.40
             487.73,79.56 494.27,79.56 495.98,77.40
             497.23,75.81 497.00,71.99 497.00,70.00
             497.02,60.87 498.11,42.80 494.64,35.00
             490.03,24.66 476.78,23.42 468.01,28.99
             465.24,30.76 463.96,32.47 462.00,35.00 Z
           M 527.00,26.47
           C 499.68,33.14 500.21,78.18 532.00,80.81
             535.16,81.08 537.98,80.43 541.00,79.57
             564.67,72.82 563.66,43.03 552.70,32.33
             545.93,25.72 535.85,25.23 527.00,26.47 Z
           M 328.00,69.00
           C 324.15,62.70 323.26,55.05 321.36,48.00
             321.36,48.00 318.28,38.00 318.28,38.00
             317.53,35.57 316.07,30.27 314.30,28.60
             312.16,26.57 304.94,26.05 303.69,29.31
             302.72,31.84 306.06,40.24 307.05,43.00
             307.05,43.00 316.97,73.00 316.97,73.00
             318.97,77.35 322.05,79.99 327.00,79.86
             333.82,79.69 337.62,74.61 340.36,69.00
             344.67,60.19 350.06,43.73 350.83,34.00
             351.22,29.04 350.26,27.04 345.00,27.04
             343.57,27.04 341.75,27.14 340.56,28.02
             338.19,29.77 338.01,35.23 337.58,38.00
             337.58,38.00 335.12,50.00 335.12,50.00
             332.62,59.52 332.05,60.30 328.00,69.00 Z
           M 179.00,36.40
           C 183.75,35.85 188.18,36.53 191.61,40.22
             197.85,46.94 198.12,66.26 186.00,69.57
             165.82,75.08 160.62,42.29 179.00,36.40 Z
           M 275.00,36.33
           C 278.00,36.07 281.06,35.94 283.57,38.01
             287.08,40.90 286.58,46.88 278.00,48.53
             275.04,49.11 267.94,49.32 266.07,46.44
             262.79,41.39 271.31,37.25 275.00,36.33 Z
           M 406.00,47.00
           C 407.05,44.07 407.82,41.59 410.22,39.42
             413.81,36.17 421.57,34.65 425.51,38.01
             428.65,40.68 428.73,46.41 421.00,48.32
             419.06,48.79 416.99,48.99 415.00,48.90
             411.92,48.75 408.94,47.85 406.00,47.00 Z
           M 531.00,36.40
           C 536.19,35.80 540.93,36.87 544.35,41.19
             549.51,47.69 549.60,66.40 538.00,69.57
             517.68,75.12 512.62,42.29 531.00,36.40 Z
           M 59.00,73.00
           C 59.00,73.00 47.00,73.00 47.00,73.00
             47.00,73.00 31.00,74.00 31.00,74.00
             38.31,69.72 51.32,69.42 59.00,73.00 Z
           M 98.00,74.00
           C 98.00,74.00 85.00,73.17 85.00,73.17
             85.00,73.17 69.00,74.00 69.00,74.00
             74.13,67.39 91.31,71.20 98.00,74.00 Z"></path></svg>