<svg xmlns="http://www.w3.org/2000/svg" viewBox="0 0 734 208"><path id="Nadace_Vodafone" d="M 87.00,2.21
           C 79.01,3.63 73.81,4.39 66.00,7.08
             35.54,17.56 13.31,42.11 4.74,73.00
             1.94,83.13 1.21,93.60 2.10,104.00
             2.10,104.00 2.10,112.00 2.10,112.00
             7.23,150.02 35.78,182.52 73.00,191.87
             79.53,193.51 86.24,194.92 93.00,195.00
             111.45,195.21 124.20,193.53 141.00,185.24
             153.14,179.26 163.65,171.57 172.20,161.00
             203.72,122.00 202.54,67.76 167.91,31.00
             159.48,22.06 149.92,16.12 139.00,10.76
             128.05,5.37 114.22,2.02 102.00,2.21
             102.00,2.21 87.00,2.21 87.00,2.21 Z
           M 517.00,2.00
           C 517.00,2.00 517.00,50.00 517.00,50.00
             517.00,50.00 527.00,50.00 527.00,50.00
             527.00,50.00 527.00,21.00 527.00,21.00
             527.00,21.00 538.81,40.00 538.81,40.00
             538.81,40.00 545.38,48.98 545.38,48.98
             545.38,48.98 554.00,50.00 554.00,50.00
             554.00,50.00 554.00,2.00 554.00,2.00
             554.00,2.00 544.00,2.00 544.00,2.00
             544.00,2.00 544.00,29.00 544.00,29.00
             544.00,29.00 533.40,12.00 533.40,12.00
             533.40,12.00 526.68,3.02 526.68,3.02
             526.68,3.02 517.00,2.00 517.00,2.00 Z
           M 617.00,2.00
           C 617.00,2.00 617.00,14.78 617.00,14.78
             613.56,14.02 610.54,13.63 607.00,14.78
             594.81,17.75 591.87,34.39 597.99,43.98
             602.19,50.56 610.82,53.69 617.00,48.00
             620.65,50.61 622.68,50.00 627.00,50.00
             627.00,50.00 627.00,2.00 627.00,2.00
             627.00,2.00 617.00,2.00 617.00,2.00 Z
           M 137.00,11.00
           C 137.00,11.00 126.00,17.10 126.00,17.10
             117.09,23.04 109.15,34.10 108.18,45.00
             107.44,53.24 112.90,52.81 119.00,55.20
             124.76,57.47 128.02,59.12 133.00,62.90
             146.68,73.27 150.03,85.68 150.00,102.00
             149.94,141.89 106.59,163.92 73.00,144.66
             39.62,125.53 38.88,81.59 57.69,52.00
             65.62,39.53 76.13,30.03 89.00,22.86
             103.95,14.54 120.04,11.00 137.00,11.00 Z
           M 565.00,25.00
           C 571.31,23.22 575.14,19.49 579.00,27.00
             574.09,27.23 567.99,28.14 564.11,31.42
             558.41,36.23 558.92,44.90 565.10,48.99
             570.35,52.46 574.65,50.24 580.00,49.97
             580.00,49.97 589.00,49.97 589.00,49.97
             589.00,42.34 590.96,22.63 585.61,17.42
             579.79,11.74 566.26,14.07 564.12,18.27
             563.02,20.44 564.25,22.94 565.00,25.00 Z
           M 635.00,18.00
           C 635.00,18.00 638.00,25.00 638.00,25.00
             644.31,23.22 648.14,19.49 652.00,27.00
             646.39,27.26 638.46,28.32 634.89,33.21
             627.56,43.25 641.05,57.30 652.00,48.00
             655.65,50.61 657.68,50.00 662.00,50.00
             662.00,50.00 662.00,31.00 662.00,31.00
             661.98,20.35 659.35,13.34 647.00,14.09
             642.16,14.39 639.17,15.72 635.00,18.00 Z
           M 695.00,39.00
           C 692.63,40.00 689.52,41.50 687.00,41.77
             678.56,42.69 676.13,33.10 678.44,28.02
             679.98,24.65 683.14,22.13 686.82,24.11
             688.19,24.85 688.98,25.92 690.00,27.00
             690.00,27.00 698.00,23.00 698.00,23.00
             692.33,12.54 679.00,10.56 671.42,20.04
             668.05,24.25 667.89,28.86 668.01,34.00
             668.19,41.17 670.93,47.09 678.00,49.85
             682.06,51.45 694.50,51.57 696.33,46.61
             697.07,44.61 695.64,40.98 695.00,39.00 Z
           M 731.00,48.00
           C 731.00,48.00 729.00,40.00 729.00,40.00
             720.04,42.02 715.31,44.76 710.00,35.00
             710.00,35.00 733.00,35.00 733.00,35.00
             732.74,31.81 732.00,25.89 730.86,23.00
             727.08,13.52 714.64,11.36 707.04,17.42
             697.70,24.86 698.07,41.52 708.02,48.30
             711.08,50.39 714.37,50.97 718.00,50.97
             723.13,50.98 726.32,49.80 731.00,48.00 Z
           M 617.00,23.00
           C 617.00,23.00 617.00,35.00 617.00,35.00
             616.83,45.02 608.72,42.09 606.74,39.69
             603.72,36.03 604.37,26.87 608.34,24.09
             611.13,22.14 613.88,22.59 617.00,23.00 Z
           M 722.00,28.00
           C 722.00,28.00 711.00,28.00 711.00,28.00
             713.24,20.81 720.19,19.98 722.00,28.00 Z
           M 580.00,34.00
           C 579.94,35.61 580.03,37.37 579.40,38.89
             575.61,48.05 563.77,38.10 575.02,34.72
             576.65,34.23 578.32,34.14 580.00,34.00 Z
           M 652.00,34.00
           C 651.98,35.62 652.08,38.26 651.40,39.72
             648.05,46.93 636.38,38.38 647.04,34.94
             647.04,34.94 652.00,34.00 652.00,34.00 Z
           M 605.00,86.00
           C 605.00,86.00 600.00,86.00 600.00,86.00
             600.00,86.00 600.00,94.00 600.00,94.00
             600.00,94.00 605.00,94.00 605.00,94.00
             605.00,94.00 605.00,122.00 605.00,122.00
             605.00,122.00 613.40,120.98 613.40,120.98
             613.40,120.98 615.00,115.00 615.00,115.00
             615.00,115.00 615.00,94.00 615.00,94.00
             615.00,94.00 622.00,94.00 622.00,94.00
             622.00,94.00 622.00,86.00 622.00,86.00
             622.00,86.00 614.00,86.00 614.00,86.00
             616.96,80.93 618.42,80.72 624.00,82.00
             624.00,82.00 625.00,73.00 625.00,73.00
             613.17,70.88 605.14,71.81 605.00,86.00 Z
           M 451.00,73.00
           C 451.00,73.00 464.19,110.00 464.19,110.00
             465.61,113.74 466.84,120.57 471.11,121.68
             477.97,123.47 479.66,116.97 481.33,112.00
             481.33,112.00 494.00,73.00 494.00,73.00
             494.00,73.00 485.51,74.02 485.51,74.02
             485.51,74.02 481.00,84.00 481.00,84.00
             481.00,84.00 473.00,107.00 473.00,107.00
             473.00,107.00 462.00,73.00 462.00,73.00
             462.00,73.00 451.00,73.00 451.00,73.00 Z
           M 551.00,73.00
           C 551.00,73.00 551.00,86.00 551.00,86.00
             545.82,85.09 541.91,84.76 537.04,87.44
             526.87,93.05 526.16,112.54 535.10,119.35
             540.35,123.35 546.34,122.12 552.00,120.00
             554.91,123.25 560.84,123.64 561.00,115.00
             561.00,115.00 561.00,73.00 561.00,73.00
             561.00,73.00 551.00,73.00 551.00,73.00 Z
           M 505.00,85.47
           C 484.48,90.52 487.67,121.00 506.00,121.96
             509.39,122.13 512.92,121.89 515.99,120.31
             530.76,112.73 527.18,82.86 505.00,85.47 Z
           M 569.00,89.00
           C 569.00,89.00 572.00,96.00 572.00,96.00
             578.33,94.30 581.77,91.25 586.00,98.00
             580.11,99.06 572.88,99.19 568.88,104.33
             564.59,109.82 566.45,118.25 573.02,120.99
             577.76,122.98 582.45,121.71 587.00,119.84
             589.14,122.38 593.81,122.94 595.40,119.84
             596.07,118.33 595.99,115.54 596.00,114.00
             596.07,103.02 598.90,87.17 584.00,85.50
             581.80,85.04 580.16,85.20 578.00,85.50
             574.87,86.38 571.95,87.76 569.00,89.00 Z
           M 637.00,85.53
           C 616.03,91.76 620.13,121.11 639.00,121.96
             664.69,123.11 662.08,81.98 637.00,85.53 Z
           M 672.00,87.86
           C 669.55,85.26 666.47,86.00 663.00,86.00
             663.00,86.00 663.00,122.00 663.00,122.00
             664.87,122.00 669.11,122.17 670.69,121.40
             673.15,120.19 672.95,117.35 673.00,115.00
             673.07,111.22 672.34,99.97 674.02,97.23
             676.61,92.99 684.82,92.38 685.00,105.00
             685.00,105.00 685.00,122.00 685.00,122.00
             687.45,122.00 692.33,122.48 693.98,120.40
             695.15,118.92 694.99,115.82 695.00,114.00
             695.05,106.54 696.33,92.71 689.79,87.86
             684.16,83.43 677.79,85.70 672.00,87.86 Z
           M 729.00,111.00
           C 719.72,113.50 716.48,116.78 710.00,107.00
             710.00,107.00 725.00,107.00 725.00,107.00
             726.99,106.99 730.62,107.26 731.94,105.40
             732.87,103.97 732.25,100.65 731.94,99.00
             730.56,90.10 723.38,83.60 714.00,85.54
             694.95,89.48 695.25,121.45 717.00,121.99
             726.43,122.22 732.48,121.87 729.00,111.00 Z
           M 722.00,99.00
           C 722.00,99.00 711.00,99.00 711.00,99.00
             713.29,91.67 719.71,91.67 722.00,99.00 Z
           M 506.09,94.45
           C 518.23,93.49 516.61,110.91 509.95,113.22
             500.84,116.37 496.76,98.61 506.09,94.45 Z
           M 551.00,94.00
           C 551.00,94.00 551.00,106.00 551.00,106.00
             550.90,111.37 547.96,116.59 542.14,112.40
             536.78,108.53 536.93,97.49 543.19,94.74
             545.19,93.85 548.77,94.01 551.00,94.00 Z
           M 638.04,94.61
           C 650.38,92.61 648.80,110.88 641.96,113.22
             633.44,116.13 628.63,100.05 638.04,94.61 Z
           M 586.00,106.11
           C 585.95,107.52 586.04,109.36 585.40,110.77
             582.46,117.30 572.21,111.35 579.15,107.17
             580.04,106.64 581.00,106.41 582.00,106.11
             582.00,106.11 586.00,106.11 586.00,106.11 Z
           M 292.00,133.13
           C 285.78,126.27 284.70,132.65 280.28,133.13
             277.13,133.69 274.99,128.67 271.16,130.32
             265.44,132.79 273.56,140.65 278.00,141.68
             284.33,143.15 288.18,136.91 292.00,133.13 Z
           M 410.00,150.00
           C 410.00,150.00 412.00,154.00 412.00,154.00
             418.28,152.82 423.70,149.45 429.00,146.00
             423.93,137.65 420.89,140.64 410.00,150.00 Z
           M 293.00,181.00
           C 288.52,182.26 284.84,184.43 280.00,183.86
             259.47,181.46 271.39,138.67 288.00,158.00
             289.48,157.37 290.60,156.98 291.94,155.99
             300.23,149.88 289.21,143.66 281.00,143.21
             255.44,141.79 252.60,180.91 269.00,191.00
             274.43,194.34 282.02,194.66 288.00,192.78
             290.13,192.11 293.50,190.90 294.33,188.61
             295.07,186.59 293.64,182.99 293.00,181.00 Z
           M 369.00,144.00
           C 369.00,144.00 369.00,193.00 369.00,193.00
             369.00,193.00 378.00,193.00 378.00,193.00
             378.00,193.00 378.00,178.00 378.00,178.00
             387.55,179.58 384.75,186.98 389.65,191.40
             392.00,193.53 396.94,193.00 400.00,193.00
             398.42,186.25 395.41,177.48 390.00,173.00
             393.72,168.34 395.90,163.88 397.00,158.00
             394.52,158.00 389.50,157.64 387.50,159.02
             383.30,161.91 386.15,166.53 378.00,169.00
             378.00,169.00 378.00,144.00 378.00,144.00
             378.00,144.00 369.00,144.00 369.00,144.00 Z
           M 600.00,157.00
           C 600.00,157.00 600.00,144.00 600.00,144.00
             591.34,144.01 590.06,143.60 590.00,152.00
             590.00,152.00 590.00,178.00 590.00,178.00
             590.00,180.80 589.57,187.39 591.02,189.58
             593.11,192.72 601.46,193.98 605.00,193.67
             624.65,191.95 625.41,169.82 616.79,161.21
             611.79,156.22 606.42,157.00 600.00,157.00 Z
           M 628.00,144.00
           C 628.00,144.00 628.00,182.00 628.00,182.00
             628.05,185.68 628.13,188.89 631.23,191.44
             634.85,194.43 642.06,194.31 643.94,191.44
             644.89,189.88 644.21,186.78 643.94,185.00
             643.94,185.00 638.00,185.00 638.00,185.00
             638.00,185.00 638.00,144.00 638.00,144.00
             638.00,144.00 628.00,144.00 628.00,144.00 Z
           M 653.06,144.78
           C 645.23,149.41 651.18,156.58 656.89,154.39
             661.95,152.45 661.81,143.54 653.06,144.78 Z
           M 668.00,144.00
           C 668.00,144.00 668.00,193.00 668.00,193.00
             668.00,193.00 677.00,193.00 677.00,193.00
             677.00,193.00 677.00,178.00 677.00,178.00
             686.55,179.58 683.75,186.98 688.65,191.40
             691.00,193.53 695.94,193.00 699.00,193.00
             697.42,186.25 694.41,177.48 689.00,173.00
             692.72,168.34 694.90,163.88 696.00,158.00
             693.52,158.00 688.50,157.64 686.50,159.02
             682.30,161.91 685.15,166.53 677.00,169.00
             677.00,169.00 677.00,144.00 677.00,144.00
             677.00,144.00 668.00,144.00 668.00,144.00 Z
           M 329.00,190.00
           C 329.00,190.00 326.00,182.00 326.00,182.00
             318.05,185.35 312.55,187.50 308.00,178.00
             308.00,178.00 330.00,178.00 330.00,178.00
             329.98,172.22 329.76,165.74 325.61,161.21
             319.06,154.06 305.86,156.14 300.84,164.02
             295.49,172.39 297.26,187.36 307.01,191.93
             314.23,195.31 322.24,193.44 329.00,190.00 Z
           M 354.00,181.00
           C 349.54,189.66 343.01,183.65 336.00,182.00
             336.00,182.00 333.00,189.00 333.00,189.00
             338.69,192.22 345.34,194.71 352.00,193.53
             359.67,192.17 365.45,186.16 362.26,178.02
             358.81,169.21 350.68,174.03 344.00,166.00
             346.67,165.06 348.07,164.40 351.00,164.78
             353.22,165.07 356.78,166.75 358.79,166.19
             361.21,165.48 363.10,161.00 358.79,158.57
             355.75,156.80 347.53,156.65 344.00,157.21
             334.04,158.78 333.19,169.91 337.57,174.44
             340.43,177.40 349.81,179.90 354.00,181.00 Z
           M 408.00,168.00
           C 414.42,165.30 417.82,162.84 422.00,170.00
             414.42,170.07 403.75,171.73 402.38,181.00
             401.06,189.96 412.50,197.80 421.00,191.00
             425.57,193.41 427.02,193.00 432.00,193.00
             432.00,184.05 434.11,165.32 426.89,159.43
             422.86,156.14 408.61,155.49 406.23,161.22
             405.26,163.56 406.95,166.02 408.00,168.00 Z
           M 463.00,160.00
           C 459.35,157.39 457.32,158.00 453.00,158.00
             453.00,158.00 453.00,193.00 453.00,193.00
             453.00,193.00 463.00,193.00 463.00,193.00
             463.00,193.00 463.00,176.00 463.00,176.00
             463.16,167.80 466.31,166.20 474.00,166.00
             474.00,166.00 475.00,157.00 475.00,157.00
             469.65,157.02 467.45,156.62 463.00,160.00 Z
           M 504.00,182.00
           C 496.54,185.14 489.45,187.87 486.00,178.00
             486.00,178.00 508.00,178.00 508.00,178.00
             507.94,171.69 507.06,164.07 501.79,159.80
             499.35,157.83 497.06,157.21 494.00,157.04
             482.51,156.40 476.29,162.61 476.01,174.00
             475.83,181.59 477.39,188.57 485.00,192.03
             489.19,193.93 503.27,195.03 505.33,189.58
             506.08,187.62 504.63,183.94 504.00,182.00 Z
           M 513.00,158.03
           C 513.00,158.03 513.00,206.00 513.00,206.00
             513.00,206.00 523.00,206.00 523.00,206.00
             523.00,206.00 523.00,193.00 523.00,193.00
             544.24,197.97 550.37,171.82 540.61,161.21
             534.75,154.84 528.91,157.67 522.00,158.03
             522.00,158.03 513.00,158.03 513.00,158.03 Z
           M 704.00,160.00
           C 704.00,160.00 706.00,168.00 706.00,168.00
             713.02,165.49 716.18,162.33 721.00,170.00
             716.14,170.01 712.55,170.03 708.02,172.19
             692.01,179.80 707.25,201.20 720.00,191.00
             723.65,193.61 725.68,193.00 730.00,193.00
             730.00,187.90 730.57,167.40 729.26,164.00
             727.87,160.40 724.77,157.91 721.00,157.20
             719.28,156.91 714.78,156.96 713.00,157.20
             709.71,157.59 707.05,158.79 704.00,160.00 Z
           M 551.00,158.00
           C 551.00,163.02 550.53,181.46 551.65,185.00
             554.46,193.92 564.82,195.74 572.00,191.00
             575.65,193.61 577.68,193.00 582.00,193.00
             582.00,193.00 582.00,158.00 582.00,158.00
             582.00,158.00 573.00,158.00 573.00,158.00
             573.00,161.87 573.41,177.38 572.40,179.96
             571.20,183.01 567.47,185.67 564.23,183.93
             561.06,182.24 561.05,178.09 561.00,175.00
             561.00,175.00 561.00,158.00 561.00,158.00
             561.00,158.00 551.00,158.00 551.00,158.00 Z
           M 650.00,158.00
           C 650.00,158.00 650.00,193.00 650.00,193.00
             650.00,193.00 660.00,193.00 660.00,193.00
             660.00,193.00 660.00,158.00 660.00,158.00
             660.00,158.00 650.00,158.00 650.00,158.00 Z
           M 320.00,171.00
           C 320.00,171.00 308.00,171.00 308.00,171.00
             310.73,163.28 317.59,163.09 320.00,171.00 Z
           M 498.00,171.00
           C 498.00,171.00 486.00,171.00 486.00,171.00
             488.41,163.09 495.27,163.28 498.00,171.00 Z
           M 527.05,165.57
           C 537.88,165.22 537.87,182.40 528.99,184.55
             519.28,186.90 523.64,168.07 523.99,167.57
             525.01,166.12 525.67,166.20 527.05,165.57 Z
           M 600.00,185.00
           C 600.00,185.00 600.00,172.00 600.00,172.00
             600.15,164.24 605.30,163.16 609.57,167.43
             613.79,171.64 612.78,181.89 606.96,184.26
             604.96,185.08 602.15,184.98 600.00,185.00 Z
           M 422.00,177.17
           C 421.95,178.55 422.03,180.40 421.40,181.85
             418.48,188.56 407.52,182.72 415.15,178.31
             416.01,177.81 417.03,177.55 418.00,177.17
             418.00,177.17 422.00,177.17 422.00,177.17 Z
           M 721.00,177.11
           C 720.95,178.52 721.04,180.36 720.40,181.77
             717.38,188.48 706.53,182.70 714.15,178.17
             715.05,177.64 715.99,177.41 717.00,177.11
             717.00,177.11 721.00,177.11 721.00,177.11 Z"></path></svg>