<svg xmlns="http://www.w3.org/2000/svg" viewBox="0 0 1816 768"><path d="M 769.00,5.42
           C 769.00,5.42 750.00,7.44 750.00,7.44
             722.16,11.92 692.66,22.29 669.00,37.69
             606.98,78.08 580.32,151.11 605.69,221.00
             623.77,270.76 664.37,294.19 688.58,333.00
             698.76,349.33 712.84,375.44 705.90,395.00
             704.22,399.73 700.21,405.30 696.83,408.99
             693.56,412.56 690.33,415.03 686.00,417.19
             681.46,419.46 674.08,421.18 669.00,420.82
             642.37,418.92 620.07,402.42 601.00,385.17
             555.84,344.31 526.90,278.79 510.43,221.00
             503.06,195.14 500.17,165.09 486.40,142.00
             478.96,129.53 468.27,118.66 453.00,117.52
             440.89,116.61 428.04,124.84 423.48,136.00
             421.41,141.07 421.01,146.59 421.00,152.00
             421.00,152.00 421.00,161.00 421.00,161.00
             421.03,180.39 429.79,210.36 436.00,229.00
             446.91,261.73 464.46,300.48 483.74,329.00
             503.08,357.59 529.42,387.06 555.00,410.17
             555.00,410.17 589.00,439.34 589.00,439.34
             649.20,486.50 719.03,518.60 794.00,533.60
             816.21,538.04 838.42,541.44 861.00,543.09
             861.00,543.09 871.00,544.00 871.00,544.00
             871.00,544.00 890.00,545.00 890.00,545.00
             890.00,545.00 932.00,545.00 932.00,545.00
             932.00,545.00 945.00,544.04 945.00,544.04
             966.45,543.10 987.84,540.39 1009.00,536.58
             1097.02,520.70 1174.59,482.82 1244.00,426.80
             1271.74,404.42 1290.71,387.20 1314.13,360.00
             1340.50,329.37 1361.63,297.56 1378.78,261.00
             1385.80,246.03 1395.81,220.44 1396.00,204.00
             1396.05,199.68 1396.09,196.19 1394.78,192.00
             1389.19,174.14 1366.20,177.05 1354.00,185.79
             1349.76,188.82 1346.07,192.89 1342.89,197.00
             1332.54,210.37 1322.43,230.65 1314.75,246.00
             1295.97,283.57 1278.62,321.55 1250.07,353.00
             1250.07,353.00 1241.99,361.72 1241.99,361.72
             1227.55,374.76 1208.70,388.91 1188.00,386.83
             1174.10,385.44 1158.01,374.54 1159.18,359.00
             1160.47,341.89 1177.39,318.27 1187.79,305.00
             1187.79,305.00 1212.64,274.00 1212.64,274.00
             1223.25,258.18 1230.91,236.16 1231.00,217.00
             1231.06,203.08 1229.24,192.07 1224.32,179.00
             1210.79,143.12 1168.75,118.06 1131.00,118.00
             1107.76,117.96 1089.34,121.35 1069.00,133.45
             1038.26,151.74 1019.42,185.30 1019.00,221.00
             1018.59,256.40 1031.62,279.09 1025.25,318.00
             1023.74,327.17 1021.28,336.01 1016.38,344.00
             1004.72,363.03 986.38,370.78 965.00,364.41
             954.65,361.32 946.16,355.60 939.53,347.00
             928.22,332.32 927.80,312.64 928.00,295.00
             928.22,276.59 935.56,244.11 940.71,226.00
             945.15,210.37 951.81,189.14 952.00,173.00
             952.00,173.00 952.00,155.00 952.00,155.00
             951.96,132.53 943.21,106.38 932.13,87.00
             906.06,41.41 857.00,13.95 806.00,6.87
             795.51,5.41 779.40,4.16 769.00,5.42 Z
           M 521.15,617.74
           C 515.65,621.62 520.49,626.08 523.60,630.00
             530.38,638.54 534.16,646.84 546.00,647.00
             548.82,647.03 553.40,647.17 556.00,646.35
             562.22,644.40 567.49,636.07 571.42,631.00
             573.43,628.41 579.44,622.07 576.36,618.74
             573.11,615.23 564.38,618.05 561.00,620.14
             558.44,621.72 556.31,623.83 554.00,625.72
             552.45,626.99 550.13,629.07 548.00,629.00
             545.31,628.91 540.26,623.87 538.00,622.12
             532.98,618.24 527.44,616.18 521.15,617.74 Z
           M 329.00,675.00
           C 314.20,660.20 310.08,656.76 289.00,657.00
             265.01,657.29 246.27,682.24 246.00,705.00
             245.94,710.66 245.62,718.67 246.90,724.00
             252.21,746.18 269.95,764.90 294.00,763.96
             309.43,763.36 319.24,756.23 329.00,745.00
             329.00,749.68 328.36,755.89 331.01,759.90
             335.55,766.77 346.39,766.63 350.23,758.96
             352.08,755.28 351.99,751.00 352.00,747.00
             352.00,747.00 352.00,718.00 352.00,718.00
             352.00,718.00 352.00,635.00 352.00,635.00
             351.99,630.16 352.10,625.06 348.58,621.23
             343.87,616.09 334.55,617.22 330.85,623.04
             328.92,626.09 329.02,629.54 329.00,633.00
             329.00,633.00 329.00,675.00 329.00,675.00 Z
           M 749.00,618.74
           C 742.72,622.05 739.42,628.32 735.42,634.00
             734.00,636.03 731.46,639.55 731.08,641.98
             729.98,648.87 741.29,647.32 745.00,645.77
             750.07,643.66 756.89,636.97 760.98,633.17
             762.81,631.47 765.43,629.42 766.21,626.97
             768.81,618.64 753.99,617.53 749.00,618.74 Z
           M 833.00,660.00
           C 829.65,660.01 826.00,659.72 823.11,661.74
             818.28,665.10 817.42,673.51 822.23,677.28
             825.08,679.52 829.51,679.84 833.00,680.00
             833.00,680.00 833.00,751.00 833.00,751.00
             833.11,758.83 836.18,764.96 845.00,764.91
             854.19,764.87 856.90,756.71 857.00,749.00
             857.00,749.00 857.00,680.00 857.00,680.00
             862.81,680.00 875.09,680.76 879.93,678.23
             886.45,674.79 886.68,664.80 879.93,661.31
             875.93,659.22 861.25,660.00 856.00,660.00
             856.01,652.76 856.13,644.37 863.04,640.01
             870.21,635.48 879.32,641.42 883.83,632.96
             884.87,631.00 885.15,628.18 884.72,626.01
             883.24,618.51 875.16,618.03 869.00,618.00
             859.68,617.96 853.25,617.53 845.00,622.96
             832.43,631.24 833.00,646.80 833.00,660.00 Z
           M 1213.00,675.00
           C 1213.00,675.00 1203.00,665.90 1203.00,665.90
             1192.42,657.80 1185.81,656.85 1173.00,657.00
             1146.57,657.31 1129.12,683.41 1129.00,708.00
             1129.00,708.00 1129.00,714.00 1129.00,714.00
             1129.27,736.82 1145.20,758.66 1168.00,763.19
             1174.65,764.51 1180.45,764.21 1187.00,762.52
             1200.57,759.04 1203.46,753.32 1213.00,745.00
             1213.00,749.65 1212.29,756.95 1215.01,760.79
             1218.78,766.13 1229.30,767.21 1233.55,758.98
             1235.50,755.20 1235.00,749.27 1235.00,745.00
             1235.00,745.00 1235.00,718.00 1235.00,718.00
             1235.00,718.00 1235.00,634.00 1235.00,634.00
             1234.99,629.79 1235.26,625.62 1232.49,622.11
             1228.33,616.83 1218.74,616.36 1214.74,622.11
             1212.73,625.00 1213.01,628.66 1213.00,632.00
             1213.00,632.00 1213.00,675.00 1213.00,675.00 Z
           M 1756.00,659.00
           C 1753.01,659.00 1748.74,658.71 1746.08,660.17
             1739.44,663.87 1740.08,673.27 1746.08,677.26
             1749.06,679.27 1752.56,678.99 1756.00,679.00
             1756.00,679.00 1756.00,734.00 1756.00,734.00
             1756.08,740.50 1757.51,749.55 1761.25,754.96
             1768.31,765.18 1783.75,766.42 1795.00,764.38
             1800.87,763.32 1807.82,761.00 1808.55,754.00
             1808.77,751.91 1808.14,749.84 1806.99,748.11
             1802.24,740.91 1795.61,745.07 1789.00,743.47
             1780.67,741.46 1779.04,735.58 1779.00,728.00
             1779.00,728.00 1779.00,679.00 1779.00,679.00
             1784.55,679.00 1798.68,679.97 1802.89,677.15
             1809.27,672.89 1810.29,659.21 1795.00,659.00
             1795.00,659.00 1779.00,659.00 1779.00,659.00
             1779.00,653.76 1779.66,641.32 1777.77,637.04
             1774.01,628.49 1762.67,627.99 1757.93,636.02
             1755.16,640.72 1756.00,653.19 1756.00,659.00 Z
           M 30.00,674.00
           C 30.00,669.91 30.62,663.49 28.26,660.11
             24.26,654.36 14.67,654.83 10.51,660.11
             7.74,663.62 8.01,667.79 8.00,672.00
             8.00,672.00 8.00,749.00 8.00,749.00
             8.01,752.91 7.79,756.50 10.01,759.95
             14.04,766.22 23.89,766.59 27.99,760.79
             30.23,757.62 29.99,753.68 30.00,750.00
             30.00,750.00 30.00,710.00 30.00,710.00
             30.08,703.59 31.25,694.38 34.85,689.00
             42.98,676.86 60.56,673.67 70.79,685.04
             76.06,690.90 76.99,696.49 77.00,704.00
             77.00,704.00 77.00,747.00 77.00,747.00
             77.01,752.01 76.91,756.81 80.42,760.87
             85.30,766.53 94.81,766.22 98.99,759.90
             101.22,756.53 100.99,752.84 101.00,749.00
             101.00,749.00 101.00,709.00 101.00,709.00
             101.00,700.38 101.68,691.40 99.52,683.00
             94.98,665.33 80.07,655.34 62.00,656.51
             57.19,656.82 52.46,657.59 48.00,659.46
             38.65,663.40 36.91,668.30 30.00,674.00 Z
           M 203.00,675.00
           C 197.43,668.60 193.79,664.71 186.00,660.81
             180.70,658.16 175.89,657.07 170.00,657.00
             162.35,656.91 158.32,656.50 151.00,659.45
             120.09,671.94 111.27,714.00 128.06,741.00
             141.72,762.95 168.86,771.56 191.00,756.64
             195.81,753.40 199.49,750.31 202.00,745.00
             203.57,750.53 202.47,757.00 206.65,761.61
             211.28,766.72 220.29,765.71 223.99,759.95
             226.21,756.50 225.99,752.91 226.00,749.00
             226.00,749.00 226.00,672.00 226.00,672.00
             225.99,668.29 226.22,664.31 224.15,661.04
             220.48,655.26 211.09,654.06 206.43,659.23
             202.79,663.26 203.00,669.92 203.00,675.00 Z
           M 454.00,675.00
           C 454.00,675.00 444.00,665.53 444.00,665.53
             433.96,657.78 426.06,656.86 414.00,657.00
             392.62,657.26 376.70,675.32 371.90,695.00
             364.37,725.80 381.16,762.61 416.00,763.96
             433.26,764.63 442.60,756.40 454.00,745.00
             454.00,749.96 453.12,756.91 456.43,760.87
             461.16,766.53 470.13,766.23 474.26,759.96
             476.27,756.92 475.99,753.47 476.00,750.00
             476.00,750.00 476.00,669.00 476.00,669.00
             475.78,652.67 461.16,654.87 457.39,658.43
             453.11,662.47 454.00,669.61 454.00,675.00 Z
           M 631.00,674.00
           C 631.00,669.16 631.67,663.18 628.35,659.23
             624.30,654.39 614.59,655.14 611.01,660.21
             608.77,663.38 609.01,667.32 609.00,671.00
             609.00,671.00 609.00,750.00 609.00,750.00
             609.01,754.05 608.68,757.53 611.43,760.89
             616.45,767.03 626.17,766.07 629.83,758.98
             631.21,756.31 631.00,752.94 631.00,750.00
             631.00,750.00 631.00,707.00 631.00,707.00
             631.07,701.08 632.19,693.93 635.65,689.00
             644.11,676.91 661.28,673.52 671.67,685.09
             677.06,691.09 677.99,698.30 678.00,706.00
             678.00,706.00 678.00,748.00 678.00,748.00
             678.01,752.50 677.81,756.95 680.85,760.66
             685.56,766.41 695.65,766.22 699.77,759.89
             702.17,756.21 701.99,752.19 702.00,748.00
             702.00,748.00 702.00,709.00 702.00,709.00
             702.00,700.22 702.54,691.57 700.24,683.00
             695.55,665.50 681.08,655.34 663.00,656.51
             658.19,656.82 653.46,657.59 649.00,659.46
             640.27,663.14 637.60,668.25 631.00,674.00 Z
           M 732.02,656.74
           C 722.77,661.82 725.00,671.99 725.00,681.00
             725.00,681.00 725.00,749.00 725.00,749.00
             725.01,753.26 724.77,757.25 727.65,760.79
             732.45,766.68 742.58,766.06 746.77,759.81
             749.19,756.21 748.99,752.13 749.00,748.00
             749.00,748.00 749.00,673.00 749.00,673.00
             748.98,661.38 745.39,653.49 732.02,656.74 Z
           M 1036.00,674.00
           C 1036.00,669.91 1036.62,663.49 1034.26,660.11
             1030.26,654.36 1020.67,654.83 1016.51,660.11
             1013.74,663.62 1014.01,667.79 1014.00,672.00
             1014.00,672.00 1014.00,749.00 1014.00,749.00
             1014.01,753.80 1013.83,758.00 1017.39,761.77
             1021.72,766.37 1030.34,765.93 1034.11,760.79
             1036.25,757.87 1035.99,754.42 1036.00,751.00
             1036.00,751.00 1036.00,710.00 1036.00,710.00
             1036.07,704.55 1037.15,695.80 1039.67,691.00
             1048.20,674.73 1071.33,673.15 1080.18,690.00
             1083.89,697.07 1083.00,703.32 1083.00,711.00
             1083.00,711.00 1083.00,747.00 1083.00,747.00
             1083.01,752.01 1082.91,756.81 1086.42,760.87
             1091.30,766.53 1100.81,766.22 1104.99,759.90
             1107.22,756.53 1106.99,752.84 1107.00,749.00
             1107.00,749.00 1107.00,726.00 1107.00,726.00
             1107.00,726.00 1107.00,705.00 1107.00,705.00
             1107.00,705.00 1107.00,694.00 1107.00,694.00
             1106.81,678.36 1099.36,664.12 1084.00,658.70
             1079.70,657.18 1076.48,656.96 1072.00,656.66
             1066.30,656.29 1059.27,657.24 1054.00,659.46
             1044.65,663.40 1042.91,668.30 1036.00,674.00 Z
           M 1385.00,675.00
           C 1385.00,675.00 1375.00,665.90 1375.00,665.90
             1363.97,657.45 1357.28,656.84 1344.00,657.00
             1325.12,657.23 1308.91,673.71 1303.72,691.00
             1294.47,721.78 1309.55,762.53 1346.00,763.96
             1357.35,764.41 1368.53,760.34 1377.00,752.82
             1377.00,752.82 1385.00,745.00 1385.00,745.00
             1385.00,750.05 1384.13,757.66 1387.65,761.61
             1392.40,766.94 1406.78,767.53 1407.00,751.00
             1407.00,751.00 1407.00,671.00 1407.00,671.00
             1406.99,667.53 1407.27,664.08 1405.26,661.04
             1401.55,655.41 1392.13,653.93 1387.43,659.23
             1384.12,662.95 1385.00,670.21 1385.00,675.00 Z
           M 1472.00,735.00
           C 1467.88,728.46 1459.83,705.62 1456.58,697.00
             1456.58,697.00 1448.95,677.00 1448.95,677.00
             1447.00,671.76 1444.09,661.84 1439.89,658.43
             1434.17,653.78 1423.65,656.07 1422.23,664.00
             1421.01,670.81 1426.64,682.43 1429.19,689.00
             1429.19,689.00 1450.81,746.00 1450.81,746.00
             1454.59,755.75 1458.03,764.07 1470.00,764.90
             1479.90,765.59 1485.75,760.64 1489.69,752.00
             1489.69,752.00 1498.42,729.00 1498.42,729.00
             1498.42,729.00 1511.05,696.00 1511.05,696.00
             1513.16,690.34 1520.52,672.64 1520.89,668.00
             1521.89,655.60 1509.41,654.21 1504.04,657.74
             1498.88,661.14 1495.79,672.19 1493.58,678.00
             1493.58,678.00 1485.19,700.00 1485.19,700.00
             1485.19,700.00 1472.00,735.00 1472.00,735.00 Z
           M 1610.00,675.00
           C 1595.54,660.54 1590.52,656.76 1570.00,657.00
             1549.29,657.25 1533.16,674.95 1528.16,694.00
             1520.07,724.80 1536.92,762.60 1572.00,763.96
             1589.26,764.63 1598.60,756.40 1610.00,745.00
             1610.00,749.98 1609.25,756.81 1612.51,760.87
             1617.12,766.60 1626.18,766.15 1630.26,759.96
             1632.27,756.92 1631.99,753.47 1632.00,750.00
             1632.00,750.00 1632.00,668.00 1632.00,668.00
             1631.80,653.50 1618.21,654.36 1613.39,658.65
             1609.06,662.50 1610.00,669.72 1610.00,675.00 Z
           M 1681.00,656.46
           C 1673.55,658.12 1666.61,660.40 1661.18,666.09
             1649.82,678.01 1649.62,699.02 1663.00,709.47
             1670.02,714.96 1680.50,718.09 1689.00,720.58
             1695.16,722.38 1702.31,724.15 1706.77,729.10
             1713.74,736.83 1705.95,746.33 1691.00,745.99
             1684.07,745.83 1676.17,743.28 1670.00,740.19
             1664.77,737.58 1659.26,733.22 1653.03,735.74
             1646.72,738.30 1645.82,747.83 1653.03,753.21
             1661.92,759.87 1678.86,764.87 1690.00,765.00
             1697.36,765.08 1704.03,764.58 1711.00,761.94
             1723.05,757.37 1730.84,748.17 1731.00,735.00
             1731.10,726.65 1731.43,721.84 1725.67,715.01
             1718.01,705.92 1704.89,702.30 1694.00,698.67
             1687.73,696.58 1674.27,692.78 1675.33,684.00
             1676.05,678.13 1682.76,675.02 1688.00,674.53
             1694.30,673.93 1703.26,676.77 1709.00,679.31
             1714.04,681.54 1719.57,684.70 1724.89,681.15
             1729.20,678.27 1730.31,671.39 1727.26,667.21
             1725.92,665.38 1723.95,664.30 1722.00,663.26
             1709.68,656.70 1694.78,654.56 1681.00,656.46 Z
           M 539.00,657.46
           C 530.02,659.40 522.18,662.39 515.00,668.33
             491.16,688.05 489.14,726.96 511.09,748.91
             520.65,758.47 534.57,763.68 548.00,763.99
             560.98,764.28 576.85,759.65 585.86,749.91
             593.96,741.15 586.71,730.94 578.00,732.24
             573.80,732.87 569.17,737.44 565.00,739.68
             554.49,745.31 542.84,744.81 533.00,737.95
             515.68,725.87 514.60,700.74 529.04,686.02
             535.46,679.46 541.79,676.64 551.00,677.04
             556.31,677.27 561.53,679.29 566.00,682.09
             570.49,684.91 574.21,688.66 580.00,687.64
             588.46,686.16 594.43,675.03 580.99,665.75
             568.80,657.34 553.42,655.47 539.00,657.46 Z
           M 929.00,657.22
           C 917.39,659.61 906.70,664.69 898.44,673.29
             879.19,693.32 878.83,727.37 897.44,747.91
             902.29,753.27 908.50,757.17 915.00,760.22
             921.28,763.16 929.06,764.92 936.00,765.00
             950.57,765.17 963.53,762.25 975.00,752.68
             998.35,733.20 1001.13,695.21 979.83,673.09
             969.86,662.74 955.23,657.02 941.00,657.22
             941.00,657.22 929.00,657.22 929.00,657.22 Z
           M 167.00,677.33
           C 173.03,676.66 179.42,676.72 185.00,679.40
             212.15,692.45 208.51,738.81 176.00,743.56
             156.87,746.35 142.18,727.81 142.18,710.00
             142.18,694.58 151.88,680.95 167.00,677.33 Z
           M 293.00,677.32
           C 300.14,676.54 306.60,676.87 313.00,680.53
             336.09,693.73 333.53,733.02 308.00,741.90
             304.86,742.99 300.31,743.96 297.00,743.67
             261.07,740.56 257.47,685.30 293.00,677.32 Z
           M 418.00,677.16
           C 418.00,677.16 425.00,677.16 425.00,677.16
             438.45,677.34 449.39,688.24 452.32,701.00
             453.15,704.61 453.02,708.32 453.00,712.00
             452.92,728.52 442.54,741.14 426.00,743.56
             410.24,745.86 396.64,732.63 393.52,718.00
             392.90,715.13 392.97,711.94 393.00,709.00
             393.18,693.65 402.54,680.32 418.00,677.16 Z
           M 935.00,677.29
           C 972.14,673.80 982.47,722.63 956.99,739.45
             952.19,742.62 946.68,744.14 941.00,744.70
             937.34,745.06 933.52,744.25 930.00,743.25
             906.49,736.63 900.21,706.11 914.53,688.01
             920.11,680.96 926.50,678.70 935.00,677.29 Z
           M 1177.00,677.30
           C 1182.41,676.76 1187.91,676.79 1193.00,678.95
             1220.87,690.77 1218.37,738.69 1185.00,743.56
             1165.69,746.38 1151.34,727.87 1151.34,710.00
             1151.34,694.11 1161.15,680.40 1177.00,677.30 Z
           M 1349.00,677.30
           C 1354.95,676.71 1360.45,676.82 1366.00,679.35
             1392.49,691.43 1390.29,738.70 1357.00,743.56
             1338.28,746.29 1324.69,729.11 1323.32,712.00
             1322.02,695.57 1332.83,680.46 1349.00,677.30 Z
           M 1574.00,677.30
           C 1583.32,676.37 1590.44,677.44 1597.96,683.53
             1617.36,699.23 1611.70,735.77 1587.00,742.51
             1584.16,743.29 1580.95,743.91 1578.00,743.68
             1541.15,740.75 1538.76,684.20 1574.00,677.30 Z"></path></svg>