<svg id="Layer_1" data-name="Layer 1" xmlns="http://www.w3.org/2000/svg" viewBox="0 0 425.2 396.85"><defs><style>.cls-1{fill:#231f20;}</style></defs><title>ctverec</title><path class="cls-1" d="M33.27,238.56l.15.06.36.15a9.15,9.15,0,0,0,3,.72c1.3,0,2.25-.67,3.73-2.2a2.63,2.63,0,0,0,.61-.79c.21-.43.4-.86.55-1.17l.34-.75L42,234c0-.31-.05-.59-.07-.85a7.64,7.64,0,0,0-.32-2A26,26,0,0,0,39.82,227a4,4,0,0,0-5.19-1.82l-.56.23c-1.2.5-2.44,1-3.65,1.64a4,4,0,0,0-1.83,2.31,7.85,7.85,0,0,0,.5,6.08A6.47,6.47,0,0,0,33.27,238.56Z"/><path class="cls-1" d="M28.4,165.41A8.36,8.36,0,0,0,33.82,170a5.33,5.33,0,0,0,1.45.21,3.75,3.75,0,0,0,3.45-2l.24-.45a16.55,16.55,0,0,0,1.62-3.83,7.53,7.53,0,0,0-2.12-6.73,5.39,5.39,0,0,0-4.77-1.72c-2.43.06-3.07.47-4.36,2.67l-.15.22a6.79,6.79,0,0,0-.4.66A7.3,7.3,0,0,0,28.4,165.41Z"/><path class="cls-1" d="M124.83,21.61l0-.83c0-.22,0-.45,0-.67a10.35,10.35,0,0,0-.06-2c-.48-3.12-2.72-4.82-6-4.54A5.65,5.65,0,0,0,114.15,17a11.19,11.19,0,0,0-1.29,5.12,4.43,4.43,0,0,0,1.79,3,7.36,7.36,0,0,1,.56.55,3.72,3.72,0,0,0,.28.29c1.79,2.12,4.34,2.25,5.72,2.32h.27a3.61,3.61,0,0,0,2.75-1.1,3.86,3.86,0,0,0,.91-3.24Q125,22.81,124.83,21.61Z"/><path class="cls-1" d="M29.54,60.82c.7.37,1.43.78,2.15,1.22a4,4,0,0,0,2.08.61,5,5,0,0,0,2.79-1c2.82-1.93,3.25-4.83,3.3-7.13v-.12l-.05-.58c0-.46-.08-1-.14-1.46a6.75,6.75,0,0,0-.19-1,4.11,4.11,0,0,0-5.27-3,5.36,5.36,0,0,0-1.82.84l-.3.23a3.5,3.5,0,0,1-1.61.88,3.71,3.71,0,0,0-2.76,2.31,13.11,13.11,0,0,0-.79,3.13A4.76,4.76,0,0,0,29.54,60.82Z"/><path class="cls-1" d="M34.8,344.9H35a4.75,4.75,0,0,0,1.91-.49c3.63-1.58,3.63-5.1,3.63-6.43l0-.32c-.05-.31-.09-.63-.13-.95a16.54,16.54,0,0,0-.47-2.52,4.23,4.23,0,0,0-5-3,1.61,1.61,0,0,1-.38,0,6.09,6.09,0,0,0-4.82,1.26,6,6,0,0,0-2,4.48A7.88,7.88,0,0,0,34.8,344.9Z"/><path class="cls-1" d="M39,369.94a5.27,5.27,0,0,0-6.19.29c-3,2.27-3.29,4.68-3,6.3a8.47,8.47,0,0,0,4.74,6.65,6.1,6.1,0,0,0,2.57.6,4.92,4.92,0,0,0,2.29-.55A5.05,5.05,0,0,0,42,379.58c.06-.37.11-.74.15-1.12l.05-.43,0-.25a12.81,12.81,0,0,0-1.91-6.59A3.71,3.71,0,0,0,39,369.94Z"/><path class="cls-1" d="M285,376a12.76,12.76,0,0,0-1.39-3,5.41,5.41,0,0,0-3.84-1.92c-.77-.09-3.39-.27-4.92,1.15a8.68,8.68,0,0,0-2.87,5.08,5,5,0,0,0,1.23,4.45,7.23,7.23,0,0,1,.53.65c.23.31.47.61.73.89a4.38,4.38,0,0,0,3.23,1.61h.06a4.21,4.21,0,0,0,3.14-1.64,1,1,0,0,1,.69-.42c1.75-.37,3.85-1.58,3.87-5.24v-.4l-.15-.37C285.16,376.57,285.07,376.3,285,376Z"/><path class="cls-1" d="M359.52,13.36h0a4.67,4.67,0,0,0-4.57,1.92,9.91,9.91,0,0,0-1.65,7.18,5.32,5.32,0,0,0,2.43,3.66,6.09,6.09,0,0,0,3.31,1,5.2,5.2,0,0,0,1.4-.19c3-.85,5-3.34,5.28-6.82a6.23,6.23,0,0,0-1.35-5A6.29,6.29,0,0,0,359.52,13.36Z"/><path class="cls-1" d="M200.25,14a3.4,3.4,0,0,0-1.37.13l-.76.22c-1.45.39-3.64,1-4.54,3.46a8,8,0,0,0,.28,6.16,6.39,6.39,0,0,0,4,3.31,7.29,7.29,0,0,0,2.13.33,5.46,5.46,0,0,0,5.27-3.67,10.15,10.15,0,0,0-.6-7.9C204.26,15.24,203.15,13.54,200.25,14Z"/><path class="cls-1" d="M393.13,235l-.63-.06-.55.32-.53.28a7.8,7.8,0,0,0-1.72,1.08,18.05,18.05,0,0,0-1.7,1.79l-.57.65a5.2,5.2,0,0,0-1.13,5,7,7,0,0,0,4.53,4.91,5.94,5.94,0,0,0,2.26.47,4.51,4.51,0,0,0,4.41-3.31,21.71,21.71,0,0,0,1-4.93A5.64,5.64,0,0,0,393.13,235Z"/><path class="cls-1" d="M42.05,264.12a6.52,6.52,0,0,0-3.23-4.8,5.43,5.43,0,0,0-4.92-.08,6,6,0,0,0-3.28,4.19,2.61,2.61,0,0,1-.09.3,5.14,5.14,0,0,0-.27,1.15l0,.43c-.14,1.25-.35,3.14,1,4.64a9.63,9.63,0,0,0,4.59,3,4.89,4.89,0,0,0,1.27.18,4,4,0,0,0,2.78-1.15,6.5,6.5,0,0,0,2.21-5.59c0-.22,0-.41,0-.59A6.7,6.7,0,0,0,42.05,264.12Z"/><path class="cls-1" d="M392.53,114.91h0a4.34,4.34,0,0,0,4.42-3c.08-.22.17-.44.26-.65a6.86,6.86,0,0,0,.69-2.57c0-1.74-.1-4.24-1.76-5.88a6.62,6.62,0,0,0-5.14-1.61c-2.09.07-4.68,1-5.16,4.79a11.26,11.26,0,0,0,.18,3.28A6.57,6.57,0,0,0,392.53,114.91Z"/><path class="cls-1" d="M396.54,202.9a4.33,4.33,0,0,0-5.67-1.42,7.65,7.65,0,0,0-4.24,6.11l0,.31c0,3.71,1.35,5.72,4.84,7.16a6.57,6.57,0,0,0,2.47.56c1.78,0,3.1-1.07,4-3.23C399.8,207.94,397.35,204.15,396.54,202.9Z"/><path class="cls-1" d="M30.19,308.49a5.45,5.45,0,0,0,4.41,2.37H35a5.29,5.29,0,0,0,4.3-2.91,16.07,16.07,0,0,0,1.15-3.19c.12-.41.23-.83.37-1.24l.2-.61-.2-.62c-.11-.34-.21-.68-.3-1a16.36,16.36,0,0,0-.93-2.63,4,4,0,0,0-3.08-2.05,5.78,5.78,0,0,0-5.64,2.63,2.38,2.38,0,0,1-.41.52,5.24,5.24,0,0,0-1.7,5.72A10.43,10.43,0,0,0,30.19,308.49Z"/><path class="cls-1" d="M35.06,190.87c-2.55.41-4.2,1.69-4.91,3.79a2.66,2.66,0,0,1-.44.81,4,4,0,0,0,0,5.33l.18.22a7.59,7.59,0,0,0,1.59,1.62c.89.62,1.8,1.17,2.68,1.7l1,.63,1,.64,1-.63c2.24-1.36,3.27-2,3.56-3.88.39-2.49.55-5.41-1.22-8.12A4.43,4.43,0,0,0,35.06,190.87Z"/><path class="cls-1" d="M35.49,28.64l.3,0,.37,0A5.55,5.55,0,0,0,40,27a8.8,8.8,0,0,0,2-4.53l.09-.46L42,21.51c-.12-.47-.24-.95-.35-1.42a32.11,32.11,0,0,0-1-3.5,4.39,4.39,0,0,0-3.1-2.76,4.78,4.78,0,0,0-4.35,1,8.62,8.62,0,0,0-2.45,4.64l-.11.39c-1.07,3.89,1.44,6.51,2.78,7.91A2.89,2.89,0,0,0,35.49,28.64Z"/><path class="cls-1" d="M390.07,27.48a5.59,5.59,0,0,0,2.36.52,6.2,6.2,0,0,0,2.43-.52c2.55-1.08,3-3.38,3.32-4.75,0-.2.08-.39.13-.57l.06-.24v-.25a7.35,7.35,0,0,0-2.67-5.84,6.46,6.46,0,0,0-5.54-1.17,4.52,4.52,0,0,0-3.38,3,8.49,8.49,0,0,0-.38,5.38A7.15,7.15,0,0,0,390.07,27.48Z"/><path class="cls-1" d="M235.64,370.78a4.05,4.05,0,0,0-3.89-.46c-1,.34-1.9.76-2.79,1.17l-.23.1a3.32,3.32,0,0,0-1.67,1.53l-.43.89a22.32,22.32,0,0,0-1.48,3.58c-.69,2.4.83,5.25,3.46,6.49a3.94,3.94,0,0,0,1.69.39,5.57,5.57,0,0,0,3.43-1.5,4.77,4.77,0,0,0,1.09-1.4c.06-.11.13-.23.2-.33l.42-.57c1.12-1.53,2.64-3.6,1.8-6.2A4.38,4.38,0,0,0,235.64,370.78Z"/><path class="cls-1" d="M390.77,75.44a5.61,5.61,0,0,0,1.64.26A4.89,4.89,0,0,0,396,74.13a7.37,7.37,0,0,0,1.82-5.44V68.5l0-.19c0-.14,0-.3-.07-.48a14.71,14.71,0,0,0-.41-2.09,5.65,5.65,0,0,0-3-3.49,5.11,5.11,0,0,0-4.15-.2,7.41,7.41,0,0,0-4.37,7.29C385.87,71.73,388.31,74.69,390.77,75.44Z"/><path class="cls-1" d="M246.25,13.52c-.18-.08-.37-.15-.54-.24l-.5-.26-.56,0a5.53,5.53,0,0,0-5,3.19c-.12.27-.26.55-.41.82-.75,1.45-1.88,3.63-.36,6.15a7.45,7.45,0,0,0,6.38,3.59h.13a3.49,3.49,0,0,0,2.35-.94c2.06-2,3.05-3.94,3-5.91a7.45,7.45,0,0,0-2.63-5.29A6,6,0,0,0,246.25,13.52Z"/><path class="cls-1" d="M31.71,104.3l.57,0,.23,0,.22-.07c.2-.07.43-.12.64-.17a5.43,5.43,0,0,0,2.52-1.12c2.08-1.86,2.14-4.55,2.17-6a6.26,6.26,0,0,0-2.56-5.4,5.32,5.32,0,0,0-4.33-1.17A5.06,5.06,0,0,0,27.8,93a8.36,8.36,0,0,0-.6,1.46,4.06,4.06,0,0,1-.34.84c-1.62,2.21-.6,4.24,0,5.33L27,101A5,5,0,0,0,31.71,104.3Z"/><path class="cls-1" d="M393.22,317.75a5.48,5.48,0,0,0,.86.07,3.57,3.57,0,0,0,3.61-2.81,18.21,18.21,0,0,0,.46-2.25c.05-.33.11-.67.17-1l.08-.42-.1-.42c-.08-.34-.17-.69-.25-1-.21-.91-.46-1.95-.77-3a3.73,3.73,0,0,0-3.85-2.74,17.42,17.42,0,0,0-4.24.71,4.58,4.58,0,0,0-3,5.56l0,.25a6.2,6.2,0,0,0,.4,1.38C387.6,314.19,389.32,317.12,393.22,317.75Z"/><path class="cls-1" d="M33.07,135.6a3.7,3.7,0,0,0,1.91.47,5.07,5.07,0,0,0,3.68-1.49A8.5,8.5,0,0,0,40.51,127a5.23,5.23,0,0,0-1.27-2.23,10.25,10.25,0,0,0-1-.93,6.85,6.85,0,0,1-.6-.56,3.67,3.67,0,0,0-4.31-1c-3.28,1.24-4.51,3.1-4.52,6.87C28.54,132.88,31.6,134.72,33.07,135.6Z"/><path class="cls-1" d="M166,21.51a12.31,12.31,0,0,0-.69-2.32A4.61,4.61,0,0,0,163,16.94,6.85,6.85,0,0,0,155.3,19a6.41,6.41,0,0,0-.12,7.92,7.58,7.58,0,0,0,5.71,2.67,5,5,0,0,0,1.43-.19c1.83-.55,3.29-2.59,3.64-5l.71-.18-.5-1.94C166.11,22,166.05,21.76,166,21.51Z"/><path class="cls-1" d="M391.43,137h-.3c-2.48,0-3.65.82-4.45,3.1a10.61,10.61,0,0,0-.45,2,7.31,7.31,0,0,0,5.88,7.91,6.78,6.78,0,0,0,1,.08c3,0,4.21-2.21,5-4.21,1.15-3-.38-5.35-1.3-6.74C395.27,136.81,393.05,136.91,391.43,137Z"/><path class="cls-1" d="M329.38,13.69a5.62,5.62,0,0,0-4.87-.47,5.36,5.36,0,0,0-3.35,3.33,15.76,15.76,0,0,0-.52,2.27c-.06.35-.13.71-.21,1.11l-.12.57.21.55a4.34,4.34,0,0,1,.12.43A5,5,0,0,0,322,24a7.91,7.91,0,0,0,5.35,2h0a4.65,4.65,0,0,0,3-1.11,7,7,0,0,0-1-11.24Z"/><path class="cls-1" d="M322.35,372.12c-1.46-.84-3.91-2.24-6.5-.53-3.3,2.17-3.88,4.64-3.77,6.38a5.39,5.39,0,0,0,3.48,5.51A6.22,6.22,0,0,0,318,384a4.78,4.78,0,0,0,3.9-1.95,17.91,17.91,0,0,0,2.38-4.29A4.57,4.57,0,0,0,322.35,372.12Z"/><path class="cls-1" d="M193.76,373a7.11,7.11,0,0,0-8.3.68l-.36.35a5.68,5.68,0,0,1-.52.49,5.07,5.07,0,0,0-2.05,4.28,6.2,6.2,0,0,0,1.22,3.7l.29.49a2.83,2.83,0,0,0,2.32,1.35h1.16a11.81,11.81,0,0,0,2-.14,5.31,5.31,0,0,0,3.26-1.5,17.81,17.81,0,0,0,2.56-4A4.5,4.5,0,0,0,193.76,373Z"/><path class="cls-1" d="M291.64,16.65a3.59,3.59,0,0,0-.62-1.48l-.34-.45a13.32,13.32,0,0,0-2.11-2.37,5.56,5.56,0,0,0-7.08.05c-2.77,2.54-2.48,4.87-2.06,6a11.57,11.57,0,0,0,3,4.56,5.76,5.76,0,0,0,3.81,1.62,4.47,4.47,0,0,0,.75-.06A4.72,4.72,0,0,0,290.35,22a13.57,13.57,0,0,0,1.07-2.88c.09-.34.19-.67.29-1l.2-.61-.19-.61C291.69,16.86,291.66,16.75,291.64,16.65Z"/><path class="cls-1" d="M81.71,375.45A3.87,3.87,0,0,0,78,373.37l-.3,0-.24,0c-3.11-.09-5.6,1.29-6.53,3.65-1,2.64-.85,4.94.58,6.82l.08.12a3.55,3.55,0,0,0,1,1.05,5.53,5.53,0,0,0,2.95.77,8.23,8.23,0,0,0,2.33-.35,7.17,7.17,0,0,0,4.54-3.52c1.18-2.54.1-4.67-.68-6.22Z"/><path class="cls-1" d="M154.33,371.67h-.17a10,10,0,0,0-6.34,3.05,5.51,5.51,0,0,0-.59,6.24,5.94,5.94,0,0,0,4.9,3,4.13,4.13,0,0,0,1-.12,9.46,9.46,0,0,0,6.51-5.1,4.31,4.31,0,0,0-.12-4.14A6.43,6.43,0,0,0,154.33,371.67Z"/><path class="cls-1" d="M390.94,181.28a4.82,4.82,0,0,0,1.65.3,4.11,4.11,0,0,0,3.78-2.5,16,16,0,0,0,.88-2.6c.1-.35.19-.7.3-1.06l.2-.66-.25-.64c-.16-.41-.31-.83-.46-1.24-.42-1.15-.86-2.34-1.41-3.49a3.76,3.76,0,0,0-3.15-1.81c-2.5-.07-6.06,2.78-6.5,5.31A7.14,7.14,0,0,0,390.94,181.28Z"/><path class="cls-1" d="M75.11,26.76a5.32,5.32,0,0,0,2.64.7,5.08,5.08,0,0,0,2.37-.58,4.39,4.39,0,0,0,2.38-3.59v-.15c.21-2.69.53-6.76-3.81-9.26l-.89-.51-.94.43-.83.36a16.46,16.46,0,0,0-2.39,1.16A5.8,5.8,0,0,0,71.06,19a6.28,6.28,0,0,0,.85,4.75A9.08,9.08,0,0,0,75.11,26.76Z"/><path class="cls-1" d="M390.34,349.61a5.67,5.67,0,0,0,2.41.56,4.17,4.17,0,0,0,2.07-.52,6.45,6.45,0,0,0,3.33-6.21l-.09-.73c-.06-.43-.14-.94-.21-1.46a5.37,5.37,0,0,0-3.85-4.45,5.53,5.53,0,0,0-5.14.86,4.64,4.64,0,0,0-2,4,31.22,31.22,0,0,0,.53,3.65c.07.36.13.71.2,1.07A4.59,4.59,0,0,0,390.34,349.61Z"/><path class="cls-1" d="M117.07,371.7a5.41,5.41,0,0,0-3.7,1.3,6.61,6.61,0,0,1-.9.57,5.92,5.92,0,0,0-3.33,5.5c-.05,1.48.52,3.58,3.55,5.17a4.82,4.82,0,0,0,2.24.56,5,5,0,0,0,3.2-1.19,14.46,14.46,0,0,0,2.78-3.45,5.94,5.94,0,0,0,0-6.38A3.68,3.68,0,0,0,117.07,371.7Z"/><path class="cls-1" d="M390.79,283.85a5.27,5.27,0,0,0,1.92.42,3.93,3.93,0,0,0,3.09-1.69c1.88-2.27,2.29-5.12,1.22-8.48a4.55,4.55,0,0,0-2.42-2.91,5.15,5.15,0,0,0-4.29.13c-.36.15-.73.28-1.15.42l-.77.26-.82.29-.35.8c-.09.21-.2.42-.31.64a7.8,7.8,0,0,0-.86,2.32A7.17,7.17,0,0,0,390.79,283.85Z"/><path class="cls-1" d="M396.11,371.12a4.73,4.73,0,0,0-2-1,6.13,6.13,0,0,0-6.36,6.23,8,8,0,0,0,4.46,6.18,5.91,5.91,0,0,0,2.53.6,4.38,4.38,0,0,0,2.32-.64,4.92,4.92,0,0,0,2.17-4.24C399.25,376.36,397.72,372.45,396.11,371.12Z"/><path class="cls-1" d="M359.14,371.54A6.7,6.7,0,0,0,355,370l-.64-.08c-1.71-.24-2.91,1.46-3.22,2.14a26.31,26.31,0,0,0-1.08,2.88l-.19.56a5,5,0,0,0,.61,4.54,4.74,4.74,0,0,0,3.84,2h.14a7.13,7.13,0,0,0,4.8-1.76,5.64,5.64,0,0,0,2.2-4v-.09A6.38,6.38,0,0,0,359.14,371.54Z"/></svg>