<svg id="Layer_1" data-name="Layer 1" xmlns="http://www.w3.org/2000/svg" viewBox="0 0 425.2 396.85"><defs><style>.cls-1{fill:#231f20;}</style></defs><title>kruh</title><path class="cls-1" d="M291.2,357.19a20.15,20.15,0,0,0-2.12-.4l-.89-.14a5,5,0,0,0-6.28,5.12,5.57,5.57,0,0,0,2.4,5.24,12,12,0,0,0,4.18,1.62,5.26,5.26,0,0,0,1.13.13,4.66,4.66,0,0,0,4.41-3.24,12.75,12.75,0,0,0,.81-3.32C295.09,359.49,293.93,357.9,291.2,357.19Z"/><path class="cls-1" d="M394.86,234.83a9.63,9.63,0,0,0-5.41-.91,4.2,4.2,0,0,0-3.65,3.16,8.31,8.31,0,0,0,2,7.75,5.82,5.82,0,0,0,4.88,2h.41a4,4,0,0,0,2.85-1.64,8.27,8.27,0,0,0,1.62-5.19A4.8,4.8,0,0,0,394.86,234.83Z"/><path class="cls-1" d="M31.76,186.52h.15c2.59,0,4-1.1,4.73-3.61a10.72,10.72,0,0,0,.26-1.25c0-.14,0-.28.07-.43l0-.31a9.5,9.5,0,0,0-1.4-4.93,4.43,4.43,0,0,0-3-2.22,4.78,4.78,0,0,0-3.85.86c-.48.36-1,.71-1.56,1.06a5.46,5.46,0,0,0-2.52,3.59,5.82,5.82,0,0,0,1.07,4.56A6.8,6.8,0,0,0,31.76,186.52Z"/><path class="cls-1" d="M84.25,323.11a4.89,4.89,0,0,1-.73-.51,4.24,4.24,0,0,0-7.42,2.32,23,23,0,0,0-.32,2.72L74.5,328l1,2.12c.08.16.14.32.21.49a5.79,5.79,0,0,0,1.08,1.87,6.43,6.43,0,0,0,4.75,2.12,7.07,7.07,0,0,0,2.61-.52,6.06,6.06,0,0,0,3.38-3.77,7.15,7.15,0,0,0-1-5A6,6,0,0,0,84.25,323.11Z"/><path class="cls-1" d="M365.28,294.87c-1.39.37-4,1.05-4.88,4a9.76,9.76,0,0,1-.66,1.47c-.15.29-.29.57-.43.86l-.35.75.28.77c1.09,3.06,1.38,3.42,3.89,4.84l.59.33.67-.09.6-.07a10.27,10.27,0,0,0,1.71-.29,8.3,8.3,0,0,0,2.37-1.05c2.88-1.92,2.67-6.76,1.26-9.25A4.28,4.28,0,0,0,365.28,294.87Z"/><path class="cls-1" d="M50.88,271.91a7.72,7.72,0,0,1-.26-.85,4.27,4.27,0,0,0-4.47-3.44h-.06c-2.31,0-3.87.9-4.64,2.67-.19.43-.39.86-.59,1.28a27.13,27.13,0,0,0-1.1,2.57,4.25,4.25,0,0,0,.3,3.52c.51.79,2,3.05,4.72,3.05a5.33,5.33,0,0,0,.56,0A4.88,4.88,0,0,0,49.71,279a6.59,6.59,0,0,0,1.49-6.08C51.11,272.57,51,272.24,50.88,271.91Z"/><path class="cls-1" d="M47.79,114.43a13.38,13.38,0,0,1-1.68-.2l-.42-.06a3.9,3.9,0,0,0-4.62,2.89,14.69,14.69,0,0,0-.26,4.3c.34,2.82,2.79,4.77,6.39,5.09l.53,0,.48-.22.56-.25a12.77,12.77,0,0,0,1.55-.76A5.53,5.53,0,0,0,52.75,121l.07-.38a5.05,5.05,0,0,0-5-6.23Z"/><path class="cls-1" d="M121.65,38.91c-.28-.21-.57-.4-.86-.59-.73-.48-1-.7-1.17-1.06-.46-1.21-1.83-2.39-4.18-1.77a5,5,0,0,0-3.05,2.69,8.41,8.41,0,0,0-.71,4.81v.13a5.84,5.84,0,0,0,5.91,5.5l.5,0c2.79,0,4.25-2.28,4.9-3.29C125,42.13,123.47,40.29,121.65,38.91Z"/><path class="cls-1" d="M254.83,24.18l0-.33a8.88,8.88,0,0,1,.24-1.78,5.19,5.19,0,0,0-.63-4.13,5.66,5.66,0,0,0-7.26-2.19c-3.32,1.73-3.58,4.17-3.37,5.63a6.91,6.91,0,0,0,4,6.58,4.27,4.27,0,0,0,1.68.31,6.36,6.36,0,0,0,3.21-.9A4.1,4.1,0,0,0,254.83,24.18Z"/><path class="cls-1" d="M397.87,201.58a11.85,11.85,0,0,1-1.17-.78c-.41-.3-.83-.6-1.27-.86a4.28,4.28,0,0,0-4.11-.34,4.16,4.16,0,0,0-2.27,3.31,13.67,13.67,0,0,0,0,4.37,7.13,7.13,0,0,0,5.11,5.5,3.22,3.22,0,0,0,1,.15,3.38,3.38,0,0,0,2.51-1c.17-.19.35-.38.53-.57.95-1,2.51-2.59,2-5A4.79,4.79,0,0,0,397.87,201.58Z"/><path class="cls-1" d="M193.26,375.64a9.47,9.47,0,0,0-6-2.38,4.78,4.78,0,0,0-3.71,1.24,4.93,4.93,0,0,0-1.55,3.67,6,6,0,0,0,4.17,6.15,18.5,18.5,0,0,0,2.35.78,4.38,4.38,0,0,0,1.07.13,5,5,0,0,0,4.23-2.65c1.37-2.37,1.38-4.84,0-6.46A2.77,2.77,0,0,0,193.26,375.64Z"/><path class="cls-1" d="M31.76,217.21c4.13-.75,4.29-4.76,4.34-6.08V211l0-.15A12.46,12.46,0,0,0,33.91,205,3.8,3.8,0,0,0,31,203.59a5.81,5.81,0,0,0-5.2,4c0,.15-.09.3-.14.45a4,4,0,0,1-.16.5,6.44,6.44,0,0,0,3,8.3,5.85,5.85,0,0,0,3.3.38Z"/><path class="cls-1" d="M162.63,20.19l-.12-.11a6.33,6.33,0,0,0-.55-.46l-.27-.2a11.93,11.93,0,0,0-1.33-.9c-1.49-.83-3.65-1.27-5.49,1.35a5.51,5.51,0,0,0-.84,3.71c0,.15,0,.29,0,.44A7.24,7.24,0,0,0,161,31h.07A4,4,0,0,0,165,28.38a15.36,15.36,0,0,0,.57-2.2c.06-.27.11-.54.17-.8l.05-.36A4.5,4.5,0,0,0,162.63,20.19Z"/><path class="cls-1" d="M321.76,346.58c-.13-.16-.27-.32-.39-.49a4.07,4.07,0,0,0-3.75-1.89,3.53,3.53,0,0,1-.6-.11,8,8,0,0,0-1.07-.2,3.94,3.94,0,0,0-2.49.38,5.14,5.14,0,0,0-2.68,4.25v0a8.45,8.45,0,0,0,4.84,7.07,5.15,5.15,0,0,0,1.89.38,5.61,5.61,0,0,0,3.76-1.63c2-1.81,2.54-3.88,1.56-6.17A6.55,6.55,0,0,0,321.76,346.58Z"/><path class="cls-1" d="M397,171c-.11-.07-.22-.15-.33-.24a3.36,3.36,0,0,0-4.33-.33,8.1,8.1,0,0,0-1.79,2.11l-.31.46a3.42,3.42,0,0,0-.54,1.94l0,.85a29.42,29.42,0,0,0,0,3.09,4.12,4.12,0,0,0,4,4.12,4.06,4.06,0,0,0,.83,0l.55,0a5.25,5.25,0,0,0,5.4-4.6A7,7,0,0,0,397,171Z"/><path class="cls-1" d="M41.26,242v-.26l-.06-.26c-.07-.34-.14-.68-.21-1a21.27,21.27,0,0,0-.64-2.63A4.3,4.3,0,0,0,35.14,235c-1,.24-1.72.44-2.41.65-2.11.64-3.92,2.65-3.3,4.91.07.24.13.49.19.74a8.84,8.84,0,0,0,1.88,4.11A6.22,6.22,0,0,0,36,247.23a6.38,6.38,0,0,0,2.2-.38C41.09,245.8,41.21,243,41.26,242Z"/><path class="cls-1" d="M387.9,269.15a3.31,3.31,0,0,0-2.5-3.16,16.66,16.66,0,0,1-2.22-.93,5,5,0,0,0-4.16-.38,4.84,4.84,0,0,0-2.73,3,9.74,9.74,0,0,0-.39,1.67c0,.18-.06.37-.1.55l0,.19a5.26,5.26,0,0,0,3,5.32,10.18,10.18,0,0,0,3.19,1,4.88,4.88,0,0,0,.9.09,4.74,4.74,0,0,0,3.88-2.15,7.46,7.46,0,0,0,1.15-4.88Z"/><path class="cls-1" d="M138.89,360.61c-.54-.69-1.07-1.39-1.57-2.1-.89-1.28-2.61-2.56-5.7-1.4a5,5,0,0,0-2.09,8.46,4.26,4.26,0,0,1,.4.48,6.8,6.8,0,0,0,1,1.1l.37.32a5.51,5.51,0,0,0,3.71,1.73l.49,0h.06l.41,0c1-.1,3.19-.32,4-2.56a5.44,5.44,0,0,0-.54-5.27Z"/><path class="cls-1" d="M35.52,154.85a4.72,4.72,0,0,0,.87.08,4.44,4.44,0,0,0,3.84-2.49,5.64,5.64,0,0,0,.66-2c0-.17.06-.35.11-.52l.08-.29v-.3a15.59,15.59,0,0,0-1.4-6.21,3.58,3.58,0,0,0-2.52-1.82A6.09,6.09,0,0,0,30.81,145a9.59,9.59,0,0,0,0,6.11C31.19,152.51,32.32,154.26,35.52,154.85Z"/><path class="cls-1" d="M346.09,322.22a4.5,4.5,0,0,0-4.3.2l-.92.54c-.6.34-1.19.68-1.77,1.05a4.83,4.83,0,0,0-1.79,1.75,6,6,0,0,0,2.79,7.57,13.89,13.89,0,0,0,2.21.62l.8.18.31.08.32,0a4.76,4.76,0,0,0,4.78-4.37,18.5,18.5,0,0,0,0-4.17A4.41,4.41,0,0,0,346.09,322.22Z"/><path class="cls-1" d="M384.54,147.49a6.13,6.13,0,0,0,3,.82,4.62,4.62,0,0,0,2.39-.64,5.4,5.4,0,0,0,2.43-4.8,8.58,8.58,0,0,0-1.29-5.09,4.86,4.86,0,0,0-3-2.4,4.36,4.36,0,0,0-3.41.52,5.64,5.64,0,0,0-1.66,1.75c-.09.14-.19.27-.28.4a6.45,6.45,0,0,0-1.33,5.27A6.24,6.24,0,0,0,384.54,147.49Z"/><path class="cls-1" d="M108.68,340.33a3.37,3.37,0,0,0-2.48-1.22l-.23,0a4.22,4.22,0,0,0-1.3,0h-.11l-.2,0a7.84,7.84,0,0,0-1.25,0c-1.85.13-4,1.63-4.14,3.56v.19a4.77,4.77,0,0,0,1.2,4.1,13.13,13.13,0,0,1,1.59,1.91,4.69,4.69,0,0,0,3.67,2l.46,0a5.94,5.94,0,0,0,4-1.53,4.52,4.52,0,0,0,1.49-3.4,8,8,0,0,0-2.1-4.82C109,340.83,108.85,340.58,108.68,340.33Z"/><path class="cls-1" d="M316,54.1h.23a4.7,4.7,0,0,0,4.56-3,16.4,16.4,0,0,0,.68-2.17c.08-.3.16-.6.25-.92l.19-.67-.27-.65c-.08-.2-.15-.4-.23-.6a11.13,11.13,0,0,0-.79-1.78,5.27,5.27,0,0,0-3.31-2.6,5.48,5.48,0,0,0-4.25.83,6.52,6.52,0,0,0-2.74,5.15A5.69,5.69,0,0,0,311.68,52,6,6,0,0,0,316,54.1Z"/><path class="cls-1" d="M213.33,9.93a3.54,3.54,0,0,0-2.75-1.15,3,3,0,0,0-2.35,1.12l-.24.31c-1.12,1.44-2.52,3.23-2.44,5.79a7.67,7.67,0,0,0,4.72,6.62,3.91,3.91,0,0,0,1.24.2,3.73,3.73,0,0,0,3.39-2.11c.18-.37.33-.76.49-1.14s.32-.8.5-1.14a5.39,5.39,0,0,0,0-5A17.55,17.55,0,0,0,213.33,9.93Z"/><path class="cls-1" d="M361.34,93.25a5.66,5.66,0,0,0,2.58-4.49l.08-.44a6,6,0,0,0-5.91-7.14h0c-4.21,0-4.82,2.82-4.88,4a18.33,18.33,0,0,0,.38,4.15c.56,3.22,3.54,4.12,4.66,4.46a2.87,2.87,0,0,0,.84.12A4.66,4.66,0,0,0,361.34,93.25Z"/><path class="cls-1" d="M340,72.51a5.14,5.14,0,0,0,2,.44,4.16,4.16,0,0,0,3.87-2.67,8.87,8.87,0,0,0,.58-2.26c0-.18.05-.36.09-.51l0-.33a6.45,6.45,0,0,0-2.76-5.56,5.93,5.93,0,0,0-5.65-.72,4,4,0,0,0-2.37,2.45C334.64,67.75,336,70.83,340,72.51Z"/><path class="cls-1" d="M224.39,375.61a4.38,4.38,0,0,0-2.13-.2,5.84,5.84,0,0,0-4.09,3.24,6,6,0,0,0-.31,5.32,7.37,7.37,0,0,0,4.65,3.89,4.74,4.74,0,0,0,1.34.2,3.78,3.78,0,0,0,3.55-2.25,17.91,17.91,0,0,0,.85-2.56c.06-.23.12-.44.18-.62l.09-.28v-.29C228.55,379.39,226.66,376.43,224.39,375.61Z"/><path class="cls-1" d="M377.14,120.75c3-.73,3.51-3.63,3.66-4.58,0-.25.08-.5.11-.75a5.36,5.36,0,0,0-3-5.66,9,9,0,0,0-4.18-.83h-.19a3.6,3.6,0,0,0-3.69,2.73,4.63,4.63,0,0,0-.17.78l-.76.34.58,1.72c.1.29.18.58.27.87a13.41,13.41,0,0,0,.89,2.41,6.13,6.13,0,0,0,5.29,3.11A5,5,0,0,0,377.14,120.75Z"/><path class="cls-1" d="M87.79,62.1A4,4,0,0,0,84,61.91a4.75,4.75,0,0,1-.59.21,3.81,3.81,0,0,0-2.58,1.79l-.39.77c-.8,1.55-1.8,3.49-1.38,5.78l.15.82.69.47.57.38a6.2,6.2,0,0,1,.59.41,5.58,5.58,0,0,0,5,1.11,5.19,5.19,0,0,0,3.6-3.18,9.54,9.54,0,0,0,.43-5.28A4.3,4.3,0,0,0,87.79,62.1Z"/><path class="cls-1" d="M66.22,84.57a5.79,5.79,0,0,0-5.87.13,6.1,6.1,0,0,0-3,5.53v.41l.16.38c.06.13.11.3.18.49a12.07,12.07,0,0,0,1.16,2.56,4.65,4.65,0,0,0,4,2h.06A4.69,4.69,0,0,0,66.95,94a8.48,8.48,0,0,0,1.11-7A4,4,0,0,0,66.22,84.57Z"/><path class="cls-1" d="M160.66,366.92a4.38,4.38,0,0,0-5.25-1.25c-1.92.73-4,4.14-3.71,6.21a2.59,2.59,0,0,0,.51,1.45c1.1,1.41,2.76,3.53,5.33,3.74h.55a5,5,0,0,0,3.85-1.44,4.83,4.83,0,0,0,1.11-4.08A8.12,8.12,0,0,0,160.66,366.92Z"/><path class="cls-1" d="M65,296.24a3.4,3.4,0,0,0-2.91-1.71,5.21,5.21,0,0,0-3.92,1.25A6.27,6.27,0,0,0,55.77,300l0,.46.16.43c.09.24.17.48.24.73a8.55,8.55,0,0,0,1,2.29,6.78,6.78,0,0,0,4.48,2.56,4.53,4.53,0,0,0,.93.1,3.55,3.55,0,0,0,3.2-1.81,5.72,5.72,0,0,0,1-3.73A20.72,20.72,0,0,0,65,296.24Z"/><path class="cls-1" d="M260.37,375.48a13,13,0,0,0-.82-2.33,3.68,3.68,0,0,0-3.16-1.95,10.45,10.45,0,0,0-3.25.67,4.71,4.71,0,0,0-3,3.88c-.62,3.07,1.88,6.16,4.52,6.88a4.81,4.81,0,0,0,1.26.17,4.24,4.24,0,0,0,4.14-3.11,14.89,14.89,0,0,0,.36-1.76c0-.27.09-.56.15-.87l.09-.49-.15-.47C260.49,375.91,260.43,375.7,260.37,375.48Z"/><path class="cls-1" d="M286.15,38.6a3.68,3.68,0,0,0,.54,0,4.62,4.62,0,0,0,3.43-2.87c1.1-2.36.89-4.42-.63-6.14a2.41,2.41,0,0,1-.42-.59,3.41,3.41,0,0,0-3.65-2.23A4.34,4.34,0,0,0,281,30c-1.18,3.45,1.06,6,1.9,6.93A4.39,4.39,0,0,0,286.15,38.6Z"/></svg>