<svg id="Layer_1" data-name="Layer 1" xmlns="http://www.w3.org/2000/svg" viewBox="0 0 425.2 396.85"><defs><style>.cls-1{fill:#231f20;}</style></defs><title>trojuhlenik</title><path class="cls-1" d="M298.26,160.18a6.66,6.66,0,0,0-2.31-7.93l-.08-.06a4.88,4.88,0,0,1-.87-.8c-1.54-2.24-3.83-3.07-6.82-2.47-4.77,1-5.41,1.62-6.24,6.47a7.48,7.48,0,0,0,4.22,8.36,9.71,9.71,0,0,0,2.93.64c.33,0,.66.07,1,.12l2,.33.06-.37A6.31,6.31,0,0,0,298.26,160.18Z"/><path class="cls-1" d="M419.9,367.4a11.21,11.21,0,0,0-1.85-6.38,6.38,6.38,0,0,0-5.46-2.7,4.81,4.81,0,0,0-4.16,2.37,62.15,62.15,0,0,0-2.82,6l-.39.91a4.19,4.19,0,0,0,0,3.21,8.09,8.09,0,0,0,7.4,4.77c.28,0,.56,0,.84,0a6.15,6.15,0,0,0,3.62-1.63,10.42,10.42,0,0,0,2.8-6.31v-.22Z"/><path class="cls-1" d="M308.58,367.11a5.54,5.54,0,0,0-4.39-2.75,22.79,22.79,0,0,1-3.55-.63,4,4,0,0,0-4.74,1.77,31.25,31.25,0,0,0-1.82,3.55A6.32,6.32,0,0,0,294,374a7.41,7.41,0,0,0,4,4,20.13,20.13,0,0,0,4.13,1.06c.55.1,1.11.2,1.66.32l.32,0h.35a4.59,4.59,0,0,0,4.41-2.85,3.47,3.47,0,0,0-.48-3.75l-.11-.12a6.84,6.84,0,0,1,.38-.85A5,5,0,0,0,308.58,367.11Z"/><path class="cls-1" d="M392.38,321c-4.66-1-7.14.22-9.14,4.33a8.06,8.06,0,0,0,0,7.52,7.14,7.14,0,0,0,5.88,3.5l.71,0a16.42,16.42,0,0,0,2.9-.32,4.41,4.41,0,0,0,3.53-3.08c.34-1.12.61-2.24.88-3.33.11-.45.22-.89.33-1.34l.49-1.95-.74-.18C397,322.9,395.87,321.75,392.38,321Z"/><path class="cls-1" d="M228.7,370.35a4.94,4.94,0,0,0-6.55-2.82,30.07,30.07,0,0,0-3.84,1.74,8.27,8.27,0,0,0-3.74,5.34l-.17.58.18.58c0,.12.06.24.09.36a3.92,3.92,0,0,0,.75,1.75l.35.43a16.45,16.45,0,0,0,2.82,2.91,8.24,8.24,0,0,0,4.33,1.7h.19c3.27,0,6.3-2.72,7-6.28a9.3,9.3,0,0,0-1.18-5.9Z"/><path class="cls-1" d="M257.11,95.66a7.8,7.8,0,0,0,.55-1.93l.09-.4v-.25c0-3-.39-6.14-2.83-8.59l-.25-.25a5.75,5.75,0,0,0-2.84-1.89,6.32,6.32,0,0,0-7.7,4.42,9.39,9.39,0,0,0-.35,1.88,5.82,5.82,0,0,1-.19,1.13c-.46,1.35-.79,3.92,2.28,6a31,31,0,0,0,4.5,2.45,5.72,5.72,0,0,0,2.4.57,4.35,4.35,0,0,0,1.58-.29A5.16,5.16,0,0,0,257.11,95.66Z"/><path class="cls-1" d="M356.61,363.33a12,12,0,0,0-6.52,2.76,8.16,8.16,0,0,0-2.57,6.45l0,.33c.31,1.68.79,4.21,3.23,5.85a5.74,5.74,0,0,0,3.23,1,6.37,6.37,0,0,0,2.11-.37,8.22,8.22,0,0,0,4.94-5.29,19.83,19.83,0,0,0,.7-4.52c0-.33,0-.66.08-1a5,5,0,0,0-1.62-4A4.4,4.4,0,0,0,356.61,363.33Z"/><path class="cls-1" d="M193.64,45.34A5.2,5.2,0,0,0,187.49,47a17.26,17.26,0,0,0-1,1.43c-.21.34-.43.68-.67,1-2.37,3.17-2.28,6.38.28,9.55a6.34,6.34,0,0,0,5,2.09c.27,0,.54,0,.81,0a6.61,6.61,0,0,0,5.37-3l.05-.09a4.65,4.65,0,0,0,.65-1.79c.1-.92.15-1.81.21-2.84l.08-1.38C198.42,48.61,196.89,46.44,193.64,45.34Z"/><path class="cls-1" d="M233.54,49.83h-.32l-.31.1-.8.24a36.75,36.75,0,0,0-3.57,1.21,4.52,4.52,0,0,0-2.43,2.83,9.06,9.06,0,0,0,2.79,9.71,6.37,6.37,0,0,0,4.24,1.68,5.88,5.88,0,0,0,1-.08,6.16,6.16,0,0,0,4.34-3.17,11.77,11.77,0,0,0,1.16-7.63C239.18,51.51,237.13,49.88,233.54,49.83Z"/><path class="cls-1" d="M351.72,266.54a6.93,6.93,0,0,0,3.61-1,6.51,6.51,0,0,0,3.15-6.48,6.76,6.76,0,0,0-3-6.25,7.37,7.37,0,0,0-8.67-.37,4.14,4.14,0,0,0-1.63,2.28l-.12.52c-.48,2.11-1.08,4.75.32,7.46a7.14,7.14,0,0,0,4.39,3.6A7,7,0,0,0,351.72,266.54Z"/><path class="cls-1" d="M217.85,24.34a18,18,0,0,0,.65-6.2c-.38-3.52-3.19-6-7-6.06h0a5.62,5.62,0,0,0-5.65,3.42,8.81,8.81,0,0,0-.27,7.39,7.83,7.83,0,0,0,5.85,4.89,4.57,4.57,0,0,0,1.11.13C214.74,27.91,217.31,26.52,217.85,24.34Z"/><path class="cls-1" d="M374.53,292.57a5.65,5.65,0,0,0-2.07-5.28,6.63,6.63,0,0,0-6.59-.85,3.57,3.57,0,0,0-1.76,1.45,13.92,13.92,0,0,0-2.2,5.79,7.58,7.58,0,0,0,1.68,5.86,6.82,6.82,0,0,0,4.74,2.42l.46,0,.43-.18,1.07-.43c.86-.34,1.75-.69,2.63-1.14a4.56,4.56,0,0,0,2.46-2.69,4.39,4.39,0,0,0-.49-3.48A2.24,2.24,0,0,1,374.53,292.57Z"/><path class="cls-1" d="M174,83c-1.07-.6-2.88-1-5.48.28a5.67,5.67,0,0,0-2.08,2,3.41,3.41,0,0,1-.46.58c-3.11,1.89-2.79,4.89-2.57,6.91.29,2.71,3,5.11,6.28,5.47a6.21,6.21,0,0,0,.69,0A5.73,5.73,0,0,0,175.87,94a29.17,29.17,0,0,0,.78-3.54c.07-.38.13-.74.19-1.05l.05-.26,0-.27C176.62,85.22,175.15,83.65,174,83Z"/><path class="cls-1" d="M151.85,120.57a6.4,6.4,0,0,0-6.13,4.18,7.57,7.57,0,0,1-.83,1.5l-.15.23c-.18.29-.39.56-.6.84a13.65,13.65,0,0,0-1,1.47,4.35,4.35,0,0,0,.35,5.1,8.19,8.19,0,0,0,4.77,2.91,5.91,5.91,0,0,0,.94.08,5.61,5.61,0,0,0,3.47-1.24c3.2-2.43,3.77-5.88,3.91-8.62v-.39c0-.28,0-.52,0-.77C156.34,122.87,154.53,120.84,151.85,120.57Z"/><path class="cls-1" d="M308.92,183.51a6.1,6.1,0,0,0-5.39.85,5.9,5.9,0,0,0-2.24,4.85,27.6,27.6,0,0,0,.34,3.81c.05.38.1.76.15,1.15a2.94,2.94,0,0,0,1.43,2.24c1,.52,2,1,2.74,1.35l.92.44h.62c2.26,0,5.34-.46,6.79-4a7.91,7.91,0,0,0,.05-6.58A8.17,8.17,0,0,0,308.92,183.51Z"/><path class="cls-1" d="M277.59,124.54a19.93,19.93,0,0,0-1-3.45,5.86,5.86,0,0,0-4.23-3.73,6,6,0,0,0-5.41,2c-.28.29-.55.59-.82.89s-.55.62-.85.92a4.72,4.72,0,0,0-.65,6.09,11.79,11.79,0,0,0,2.59,3.3,14.3,14.3,0,0,0,4.4,2.4,4.64,4.64,0,0,0,1.45.24,4.16,4.16,0,0,0,3.87-2.89,14.48,14.48,0,0,0,.66-2.42c.07-.35.15-.72.25-1.11l.12-.48-.12-.48C277.77,125.38,277.68,125,277.59,124.54Z"/><path class="cls-1" d="M102.79,369.17a5,5,0,0,0-5.61.27,9.64,9.64,0,0,0-3.34,9.87c1.19,3.62,3.14,5.18,6.5,5.23h.19c2.41,0,3.35-.68,4.29-3,.11-.29.25-.57.38-.85a12.26,12.26,0,0,0,.73-1.8l.17-.56a12.62,12.62,0,0,0,.73-3.8C106.8,371.47,104.4,370.09,102.79,369.17Z"/><path class="cls-1" d="M190.69,372.47a5.76,5.76,0,0,0-.27-1c-1.11-2.88-6-5.11-8.87-4.05a4.08,4.08,0,0,0-1.92,1.54,15.39,15.39,0,0,0-2.56,6.08,6.69,6.69,0,0,0,3,7,5.44,5.44,0,0,0,2.59.59c2.39,0,5.06-1.2,6.16-3.08a4.65,4.65,0,0,0,.42-1l.34-1.11c.13-.41.25-.83.38-1.24s.34-1.05.52-1.57l.42-1.27-.12-.54C190.73,372.66,190.71,372.56,190.69,372.47Z"/><path class="cls-1" d="M138,368.19h0c-4.38.1-6.55,1.75-8,6.08a6.8,6.8,0,0,0,.55,5.37,6,6,0,0,0,4.14,3.07,6.54,6.54,0,0,0,1.31.13,6.7,6.7,0,0,0,4.24-1.53,9.2,9.2,0,0,0,3.34-7.63C143.48,370,141.65,368.19,138,368.19Z"/><path class="cls-1" d="M331.61,222.21a14.85,14.85,0,0,0-2.36-1l-.57-.21-.38-.15h-.41a5.19,5.19,0,0,0-5.41,4.61,30.74,30.74,0,0,0-.24,4.21,4.76,4.76,0,0,0,1.26,3.38,16.64,16.64,0,0,0,4.2,3,4.7,4.7,0,0,0,1.93.42,4.47,4.47,0,0,0,1.61-.3,5,5,0,0,0,2.74-2.7c.93-2.13,2.08-4.77.55-8A7,7,0,0,0,331.61,222.21Z"/><path class="cls-1" d="M64.62,375.84c-.16-1.42-.45-4.07-3.44-5.11l-.43-.15a6,6,0,0,0-5.08-.11,8,8,0,0,0-3.33,11.21,6.49,6.49,0,0,0,5.58,3.1,5.68,5.68,0,0,0,2.75-.68,8,8,0,0,0,4.16-6.53l0-.36-.09-.35A8.07,8.07,0,0,1,64.62,375.84Z"/><path class="cls-1" d="M264.07,365.62c-2.18-1-5.24.4-6.63,2.23a10.93,10.93,0,0,0-2.35,6.09l0,.26.05.26c.05.26.09.54.13.81a8.35,8.35,0,0,0,.71,2.63,7.53,7.53,0,0,0,1.92,2.22l.43.38a3.35,3.35,0,0,0,2.17.91,2.42,2.42,0,0,0,.53-.06l.58-.12a6.06,6.06,0,0,0,4.07-2.14c1.8-2.33,1.9-4.9,2-7.17,0-.28,0-.56,0-.84A5.63,5.63,0,0,0,264.07,365.62Z"/><path class="cls-1" d="M17.62,370c-.51-2.26-1.72-3.64-3.57-4.1a7.26,7.26,0,0,0-8.2,4.65,10.43,10.43,0,0,0,.68,8.33,4.74,4.74,0,0,0,3.52,2.63,4.18,4.18,0,0,0,.52,0,4.56,4.56,0,0,0,3.36-1.6,11,11,0,0,0,1-1.27,7.17,7.17,0,0,1,.64-.85,8,8,0,0,0,2.15-6.26A5,5,0,0,0,17.62,370Z"/><path class="cls-1" d="M109.62,188.87a3.85,3.85,0,0,0-2.88,1.18,18.26,18.26,0,0,0-3.63,5.17c-.47.88-.92,1.71-1.43,2.47a2.93,2.93,0,0,0-.46,1.47v.25a5.93,5.93,0,0,0,4.2,5.76,6.15,6.15,0,0,0,2,.38c1.56,0,2.84-.8,4-2.46a13.54,13.54,0,0,0,1.67-3.46,8.3,8.3,0,0,0,.34-1.77,4.55,4.55,0,0,1,.17-1c1.16-3-.5-5.16-1.49-6.47A3.53,3.53,0,0,0,109.62,188.87Z"/><path class="cls-1" d="M133.87,161.08a17.41,17.41,0,0,0,.6-2.49c.06-.32.12-.64.19-1l.07-.32,0-.32A8.57,8.57,0,0,0,133,152.6a5.73,5.73,0,0,0-4.33-2.41,5.43,5.43,0,0,0-4.43,1.71,8.65,8.65,0,0,0-2.32,5.63c-.07,2.78,1,4.53,3.25,5.2.08.06.15.14.23.21s.37.33.55.48a5.5,5.5,0,0,0,3.32,1.18,4.69,4.69,0,0,0,1.37-.2A5,5,0,0,0,133.87,161.08Z"/><path class="cls-1" d="M52.22,302.65a3.49,3.49,0,0,1-.49-1.32,5.75,5.75,0,0,0-3.08-4.71,4.47,4.47,0,0,0-3.65-.49,4.39,4.39,0,0,0-2.61,2.52,15.29,15.29,0,0,0-1.12,8.16,5.55,5.55,0,0,0,5.66,5l.45,0,.43-.2a4.16,4.16,0,0,0,1.53-.84,33.31,33.31,0,0,0,2.45-2.55A4.56,4.56,0,0,0,52.22,302.65Z"/><path class="cls-1" d="M94.84,233.42a12.05,12.05,0,0,0,.43-2.26c0-.14,0-.27,0-.36l0-.23c.16-3.6-1.15-6.23-3.89-7.82a5.39,5.39,0,0,0-3.5-.52,6.64,6.64,0,0,0-5,5,5.52,5.52,0,0,0,1.67,5.88c.43.35.86.76,1.31,1.2s.91.88,1.42,1.31A5.17,5.17,0,0,0,90.67,237a3.9,3.9,0,0,0,1.1-.16A4.76,4.76,0,0,0,94.84,233.42Z"/><path class="cls-1" d="M35.13,330.54a5.22,5.22,0,0,0-5.24-2.77c-2.16.19-3.9,2.59-4.27,4.71-.08.47-.18.94-.27,1.42-.13.68-.27,1.36-.37,2a3.31,3.31,0,0,0,.56,2.51,34.8,34.8,0,0,0,2.72,3.15,4.81,4.81,0,0,0,1.76,1l.52.25H31a6.74,6.74,0,0,0,5.11-2.9,5.44,5.44,0,0,0,1-4.74A27.71,27.71,0,0,0,35.13,330.54Z"/><path class="cls-1" d="M74.19,266.48a4.87,4.87,0,0,0-1.07-2,21,21,0,0,0-3.33-2.76,4.36,4.36,0,0,0-3.68-.61,6.59,6.59,0,0,0-3.78,4.13,6.73,6.73,0,0,0,.38,5.63,6.56,6.56,0,0,0,2.94,2.44,5.29,5.29,0,0,0,2.12.45,7.65,7.65,0,0,0,4.18-1.55,5.79,5.79,0,0,0,2.48-4.35l.09-.6-.23-.54C74.25,266.67,74.22,266.57,74.19,266.48Z"/></svg>